<svg width="10" height="10" viewBox="0 0 10 10" fill="none" xmlns="http://www.w3.org/2000/svg">
<g id="Frame">
<path id="Vector" d="M5.69741 7.58336L5.15876 8.12201C4.80162 8.47916 4.31722 8.6798 3.81214 8.6798C3.30706 8.6798 2.82267 8.47916 2.46552 8.12201C2.10837 7.76487 1.90773 7.28047 1.90773 6.77539C1.90773 6.27031 2.10837 5.78591 2.46552 5.42877L3.00417 4.89012" stroke="#0571ED" stroke-width="0.979412" stroke-linecap="round" stroke-linejoin="round"/>
<path id="Vector_2" d="M4.61987 3.27734L5.15852 2.73869C5.51567 2.38155 6.00006 2.18091 6.50514 2.18091C7.01023 2.18091 7.49462 2.38155 7.85177 2.73869C8.20891 3.09584 8.40956 3.58024 8.40956 4.08532C8.40956 4.5904 8.20891 5.07479 7.85177 5.43194L7.31312 5.97059" stroke="#0571ED" stroke-width="0.979412" stroke-linecap="round" stroke-linejoin="round"/>
<path id="Vector_3" d="M4.0813 6.50586L6.23589 4.35126" stroke="#0571ED" stroke-width="0.979412" stroke-linecap="round" stroke-linejoin="round"/>
</g>
</svg>
