<svg width="10" height="11" viewBox="0 0 10 11" fill="none" xmlns="http://www.w3.org/2000/svg">
<g id="Frame">
<path id="Vector" d="M8.20545 4.72675C8.20545 7.01204 5.15839 9.29733 5.15839 9.29733C5.15839 9.29733 2.11133 7.01204 2.11133 4.72675C2.11133 3.91862 2.43236 3.14358 3.00379 2.57215C3.57523 2.00072 4.35026 1.67969 5.15839 1.67969C5.96652 1.67969 6.74155 2.00072 7.31298 2.57215C7.88442 3.14358 8.20545 3.91862 8.20545 4.72675Z" stroke="#8690A2" stroke-width="0.979412" stroke-linecap="round" stroke-linejoin="round"/>
<path id="Vector_2" d="M5.15852 5.87123C5.78958 5.87123 6.30116 5.35965 6.30116 4.72858C6.30116 4.09752 5.78958 3.58594 5.15852 3.58594C4.52745 3.58594 4.01587 4.09752 4.01587 4.72858C4.01587 5.35965 4.52745 5.87123 5.15852 5.87123Z" stroke="#8690A2" stroke-width="0.979412" stroke-linecap="round" stroke-linejoin="round"/>
</g>
</svg>
