<svg width="103" height="102" viewBox="0 0 103 102" fill="none" xmlns="http://www.w3.org/2000/svg">
<g id="noun-events-1630897 1">
<g id="Group">
<path id="Vector" d="M28.2632 40.6035H23.7946C20.2338 40.6035 17.3359 43.5003 17.3359 47.0622V51.5308C17.3359 55.0926 20.2338 57.9894 23.7946 57.9894H28.2632C31.824 57.9894 34.7218 55.0916 34.7218 51.5287V47.0622C34.7218 43.5024 31.824 40.6035 28.2632 40.6035ZM30.7428 51.5308C30.7428 52.8996 29.63 54.0124 28.2642 54.0124H23.7956C22.4298 54.0124 21.318 52.8996 21.318 51.5308V47.0622C21.318 45.6964 22.4288 44.5846 23.7956 44.5846H28.2642C29.63 44.5846 30.7428 45.6954 30.7428 47.0622V51.5308Z" fill="#B8BBCF"/>
<path id="Vector_2" d="M79.7629 51.5298V47.0622C79.7629 43.5024 76.864 40.6035 73.3022 40.6035H68.8356C65.2738 40.6035 62.377 43.5003 62.377 47.0622V51.5308C62.377 55.0926 65.2738 57.9894 68.8356 57.9894H73.3022C76.864 57.9904 79.7629 55.0926 79.7629 51.5298ZM66.357 51.5308V47.0622C66.357 45.6964 67.4688 44.5846 68.8356 44.5846H73.3022C74.671 44.5846 75.7828 45.6954 75.7828 47.0622V51.5308C75.7828 52.8996 74.671 54.0124 73.3022 54.0124H68.8356C67.4688 54.0124 66.357 52.8996 66.357 51.5308Z" fill="#B8BBCF"/>
<path id="Vector_3" d="M50.7847 62.1289H46.314C42.7542 62.1289 39.8574 65.0267 39.8574 68.5886V73.0592C39.8564 76.619 42.7532 79.5148 46.314 79.5148H50.7847C54.3475 79.5148 57.2443 76.619 57.2443 73.0592V68.5886C57.2443 65.0267 54.3475 62.1289 50.7847 62.1289ZM53.2612 73.0592C53.2612 74.424 52.1494 75.5348 50.7847 75.5348H46.314C44.9493 75.5348 43.8385 74.424 43.8385 73.0592V68.5886C43.8385 67.2218 44.9482 66.1079 46.314 66.1079H50.7847C52.1494 66.1079 53.2612 67.2218 53.2612 68.5886V73.0592Z" fill="#B8BBCF"/>
<path id="Vector_4" d="M50.7847 40.6035H46.314C42.7542 40.6035 39.8574 43.5003 39.8574 47.0622V51.5308C39.8564 55.0926 42.7532 57.9894 46.314 57.9894H50.7847C54.3475 57.9894 57.2443 55.0916 57.2443 51.5287V47.0622C57.2443 43.5024 54.3475 40.6035 50.7847 40.6035ZM53.2612 51.5308C53.2612 52.8996 52.1494 54.0124 50.7847 54.0124H46.314C44.9493 54.0124 43.8385 52.8996 43.8385 51.5308V47.0622C43.8385 45.6964 44.9482 44.5846 46.314 44.5846H50.7847C52.1494 44.5846 53.2612 45.6954 53.2612 47.0622V51.5308Z" fill="#B8BBCF"/>
<path id="Vector_5" d="M28.2632 62.1289H23.7946C20.2338 62.1289 17.3359 65.0267 17.3359 68.5886V73.0592C17.3359 76.619 20.2338 79.5148 23.7946 79.5148H28.2632C31.824 79.5148 34.7218 76.619 34.7218 73.0592V68.5886C34.7218 65.0267 31.824 62.1289 28.2632 62.1289ZM30.7428 73.0592C30.7428 74.424 29.63 75.5348 28.2642 75.5348H23.7956C22.4298 75.5348 21.318 74.424 21.318 73.0592V68.5886C21.318 67.2218 22.4288 66.1079 23.7956 66.1079H28.2642C29.63 66.1079 30.7428 67.2218 30.7428 68.5886V73.0592Z" fill="#B8BBCF"/>
<path id="Vector_6" d="M99.6181 92.7563C97.2119 90.3532 95.8308 87.0188 95.8308 83.6161V74.3647C95.8308 72.189 95.2973 70.1388 94.3661 68.3242V17.6812H94.364C94.364 13.0871 90.6268 9.35089 86.0347 9.35089H73.5397V3.10135C73.5397 1.95079 72.6095 1.01953 71.4559 1.01953C70.3063 1.01953 69.374 1.95079 69.374 3.10237V9.34987H31.889V3.10237C31.8901 1.95079 30.9588 1.01953 29.8062 1.01953C28.6546 1.01953 27.7244 1.95079 27.7244 3.10237V9.34987H11.0637C6.47166 9.34987 2.73438 13.0861 2.73438 17.6802V84.3199C2.73438 88.915 6.47166 92.6502 11.0637 92.6502H65.5235C65.4899 92.6839 65.4593 92.7226 65.4256 92.7563C64.7922 93.3918 64.5994 94.3475 64.9421 95.1747C65.2859 96.004 66.0968 96.5456 66.9934 96.5456H78.0838C78.0838 98.9895 80.0728 100.982 82.5208 100.982C84.9668 100.982 86.9578 98.9915 86.9578 96.5456H98.0483C98.9449 96.5456 99.7557 96.006 100.098 95.1747C100.44 94.3465 100.251 93.3938 99.6181 92.7563ZM6.90005 17.6782C6.90005 15.3842 8.76665 13.5156 11.0657 13.5156H27.7244V17.6802C25.4273 17.6802 23.5607 19.5499 23.5607 21.8449C23.5607 24.1399 25.4273 26.0105 27.7244 26.0105C30.0224 26.0105 31.8901 24.1409 31.8901 21.8449V13.5145H69.3751V17.6792C67.078 17.6792 65.2094 19.5489 65.2094 21.8439C65.2094 24.1389 67.078 26.0095 69.3751 26.0095C71.6741 26.0095 73.5407 24.1399 73.5407 21.8439V13.5135H86.0357C88.3358 13.5135 90.2014 15.3822 90.2014 17.6782V30.1732H6.90005V17.6782ZM69.2129 83.6191C69.2129 85.294 68.8763 86.9494 68.249 88.4855H11.0657C8.76665 88.4855 6.90005 86.6169 6.90005 84.3209V34.3409H90.2004V63.5129C88.0268 61.9707 85.3799 61.0567 82.5229 61.0567C75.184 61.0567 69.2129 67.0278 69.2129 74.3667V83.6191ZM71.4222 92.1096C72.8624 89.5331 73.6499 86.5965 73.6499 83.6181V74.3667C73.6499 69.4717 77.6279 65.4948 82.5229 65.4948C87.4158 65.4948 91.3938 69.4717 91.3938 74.3667V83.6181C91.3938 86.5965 92.1802 89.5331 93.6215 92.1096H71.4222Z" fill="#B8BBCF"/>
</g>
</g>
</svg>
