<svg width="88" height="88" viewBox="0 0 88 88" fill="none" xmlns="http://www.w3.org/2000/svg">
<g id="Vinyl_record 1">
<rect width="88" height="88" rx="10" fill="#FF6B00"/>
<g id="Group 168219">
<path id="use31" d="M44.3486 10.6294C25.7267 10.6294 10.6133 25.7428 10.6133 44.3647C10.6133 62.9866 25.7267 78.1 44.3486 78.1C62.9705 78.1 78.0839 62.9866 78.0839 44.3647C78.0839 25.7428 62.9705 10.6294 44.3486 10.6294ZM44.3486 43.4187C44.8713 43.4187 45.2945 43.842 45.2945 44.3647C45.2945 44.8874 44.8713 45.3106 44.3486 45.3106C43.8259 45.3106 43.4026 44.8874 43.4026 44.3647C43.4026 43.842 43.8259 43.4187 44.3486 43.4187Z" fill="black" fill-opacity="0.5"/>
<path id="path3191" d="M43.8544 9.90002C25.2326 9.90002 10.1191 25.0134 10.1191 43.6353C10.1191 62.2572 25.2326 77.3706 43.8544 77.3706C62.4763 77.3706 77.5897 62.2572 77.5897 43.6353C77.5897 25.0134 62.4763 9.90002 43.8544 9.90002ZM43.8544 42.6894C44.3771 42.6894 44.8004 43.1126 44.8004 43.6353C44.8004 44.158 44.3771 44.5813 43.8544 44.5813C43.3317 44.5813 42.9085 44.158 42.9085 43.6353C42.9085 43.1126 43.3317 42.6894 43.8544 42.6894Z" fill="black"/>
<path id="path3271" d="M43.8546 31.355C37.0785 31.355 31.5742 36.8592 31.5742 43.6353C31.5742 50.4114 37.0785 55.9157 43.8546 55.9157C50.6306 55.9157 56.1349 50.4114 56.1349 43.6353C56.1349 36.8592 50.6306 31.355 43.8546 31.355ZM43.8546 42.8261C44.3021 42.8261 44.6637 43.1878 44.6637 43.6353C44.6637 44.0828 44.3021 44.4445 43.8546 44.4445C43.407 44.4445 43.0454 44.0828 43.0454 43.6353C43.0454 43.1878 43.407 42.8261 43.8546 42.8261Z" fill="#333333"/>
<path id="path3176" d="M43.8558 10.2247C62.302 10.2247 77.2663 25.1891 77.2663 43.6352C77.2663 62.0814 62.302 77.0457 43.8558 77.0457C25.4096 77.0457 10.4453 62.0814 10.4453 43.6352C10.4453 25.1891 25.4096 10.2247 43.8558 10.2247Z" stroke="black" stroke-width="3.562"/>
<path id="use3151" d="M60.9171 43.6352C60.9171 53.054 53.2745 60.7023 43.8557 60.7023V76.7208C62.1181 76.7208 76.9414 61.8976 76.9414 43.6352H60.9171Z" fill="url(#paint0_radial_1628_19566)"/>
<path id="path3193" d="M26.7938 43.6353C26.7938 34.2166 34.4364 26.5682 43.8552 26.5682V10.5497C25.5928 10.5497 10.7695 25.373 10.7695 43.6353H26.7938Z" fill="url(#paint1_radial_1628_19566)"/>
<path id="path3215" d="M43.8531 31.3605C50.6306 31.3605 56.1277 36.8576 56.1277 43.6351C56.1277 50.4126 50.6306 55.9101 43.8531 55.9101C37.0756 55.9101 31.5781 50.4126 31.5781 43.6351C31.5781 36.8576 37.0756 31.3605 43.8531 31.3605Z" stroke="black" stroke-width="3"/>
<path id="path3223" d="M50.7772 36.7129C46.9565 32.8921 40.7528 32.8921 36.932 36.7129C33.1112 40.5336 33.1112 46.7374 36.932 50.5581C40.7528 54.3789 46.9565 54.3789 50.7772 50.5581C54.598 46.7373 54.598 40.5336 50.7772 36.7129ZM44.5235 42.9666C44.8931 43.3362 44.8931 43.9348 44.5235 44.3044C44.1539 44.674 43.5553 44.674 43.1857 44.3044C42.8161 43.9348 42.8161 43.3362 43.1857 42.9666C43.5553 42.597 44.1539 42.597 44.5235 42.9666Z" fill="url(#paint2_radial_1628_19566)"/>
<path id="path3230" opacity="0.742574" d="M51.8689 35.6209C50.5811 34.3332 49.0595 33.4229 47.4405 32.8849L47.2148 33.5618C48.7312 34.0659 50.1552 34.9226 51.3612 36.1286C52.8302 37.5977 53.7784 39.3899 54.206 41.2783L54.9031 41.1211C54.4468 39.1051 53.4374 37.1894 51.8689 35.6209Z" fill="white"/>
<path id="path3232" opacity="0.742574" d="M33.3897 41.8583L32.6805 41.7374C32.0902 45.2337 33.1434 48.9537 35.8396 51.6499C38.5286 54.3389 42.2358 55.393 45.7239 54.8131L45.607 54.1079C42.3383 54.652 38.8669 53.6618 36.3473 51.1422C33.8213 48.6162 32.8364 45.1342 33.3897 41.8583Z" fill="white"/>
</g>
</g>
<defs>
<radialGradient id="paint0_radial_1628_19566" cx="0" cy="0" r="1" gradientUnits="userSpaceOnUse" gradientTransform="translate(76.9414 76.7208) rotate(-45) scale(20.7436 46.7902)">
<stop stop-color="white"/>
<stop offset="1" stop-color="white" stop-opacity="0"/>
</radialGradient>
<radialGradient id="paint1_radial_1628_19566" cx="0" cy="0" r="1" gradientUnits="userSpaceOnUse" gradientTransform="translate(10.7695 10.5497) rotate(135) scale(20.7436 46.7902)">
<stop stop-color="white"/>
<stop offset="1" stop-color="white" stop-opacity="0"/>
</radialGradient>
<radialGradient id="paint2_radial_1628_19566" cx="0" cy="0" r="1" gradientUnits="userSpaceOnUse" gradientTransform="translate(43.8546 43.6355) rotate(90) scale(28.1255 9.79007)">
<stop stop-color="#F7F7F7"/>
<stop offset="1" stop-color="#E1E1E1"/>
</radialGradient>
</defs>
</svg>
