<svg width="30" height="28" viewBox="0 0 30 28" fill="none" xmlns="http://www.w3.org/2000/svg">
<g id="Asset 4 1">
<g id="Layer 2">
<g id="Layer 1">
<path id="Vector" d="M26.5 13.8515C26.4005 14.1243 26.3416 14.4221 26.1932 14.6651C25.9146 15.1212 25.447 15.3418 24.9454 15.4612C24.1635 15.6462 23.3642 15.5516 22.5715 15.5649C22.4992 15.554 22.4337 15.5161 22.3883 15.4588C21.9281 14.9388 21.3883 14.5224 20.73 14.2977C20.2665 14.1409 19.7773 14.0597 19.2856 13.9402C20.058 12.8099 20.376 11.4299 20.1761 10.0755C20.2698 10.0971 20.342 10.1095 20.4075 10.1294C21.4373 10.4575 22.5514 10.3985 23.5408 9.96353C23.9015 9.80762 24.258 9.64092 24.6104 9.46593C25.117 9.21712 25.5092 9.31499 25.8292 9.79269C26.1078 10.2074 26.2289 10.6809 26.3068 11.1628C26.3765 11.5948 26.4121 12.0319 26.4643 12.4665C26.4729 12.5152 26.4843 12.5634 26.4983 12.6108L26.5 13.8515Z" fill="#B8BBCF"/>
<path id="Vector_2" d="M3 12.6541C3.03731 12.3223 3.0597 11.9906 3.11608 11.6696C3.17635 11.2417 3.2678 10.8187 3.3897 10.404C3.49388 10.1116 3.64788 9.83945 3.84489 9.59958C4.09364 9.28858 4.44105 9.26121 4.80421 9.42542C5.36139 9.67422 5.9136 9.94542 6.48985 10.1461C7.32977 10.4372 8.1871 10.3899 9.03614 10.1461C9.09667 10.1287 9.15554 10.1096 9.21606 10.0939C9.25012 10.0885 9.28444 10.0849 9.31888 10.0831C9.12136 11.4441 9.4473 12.8294 10.2309 13.9594C9.83377 14.0382 9.44573 14.0921 9.07013 14.195C8.34266 14.3974 7.69056 14.8089 7.19462 15.3784C7.14326 15.4433 7.07684 15.4947 7.00113 15.5281C6.92541 15.5615 6.84269 15.5759 6.76015 15.57C6.17975 15.5501 5.59935 15.565 5.01896 15.5327C4.457 15.5116 3.92112 15.2901 3.50826 14.9082C3.24956 14.6675 3.08225 14.3445 3.03482 13.9943C3.02736 13.9462 3.01161 13.8981 3 13.8516V12.6541Z" fill="#B8BBCF"/>
<path id="Vector_3" d="M14.7473 24.9652C12.9896 24.9652 11.2321 24.9652 9.47483 24.9652C8.83474 24.9652 8.21869 24.8731 7.65073 24.5596C6.80251 24.0985 6.31664 23.3811 6.19144 22.4398C6.06624 21.4985 6.16242 20.5663 6.28513 19.6366C6.3727 18.8589 6.56804 18.0972 6.86553 17.3734C7.19719 16.5971 7.61756 15.8764 8.34057 15.3829C8.92402 14.986 9.61676 14.781 10.3222 14.7966C10.4408 14.8056 10.555 14.845 10.6539 14.911C11.0742 15.169 11.4755 15.4609 11.9059 15.7006C13.2043 16.4246 14.5782 16.6858 16.0449 16.3242C16.928 16.1069 17.7032 15.6823 18.4403 15.1632C18.5861 15.0555 18.7406 14.96 18.9022 14.8779C19.0136 14.823 19.1362 14.7946 19.2603 14.7949C20.5461 14.8331 21.5239 15.4034 22.1938 16.5059C22.6316 17.2257 22.8945 18.0053 23.0761 18.823C23.2925 19.7942 23.3538 20.7786 23.3654 21.7672C23.3762 22.6098 23.1689 23.3927 22.5645 24.023C22.0776 24.5481 21.409 24.8678 20.6948 24.9171C19.8855 24.9718 19.0705 24.9577 18.2579 24.9618C17.0863 24.9701 15.9173 24.9652 14.7473 24.9652Z" fill="#B8BBCF"/>
<path id="Vector_4" d="M14.7737 6.16485C17.3863 6.16485 19.479 8.35265 19.4525 10.9112C19.426 13.4697 17.3108 15.5762 14.7455 15.5704C12.0872 15.5646 10.0243 13.3611 10.0476 10.8291C10.0699 8.23738 12.2265 6.13582 14.7737 6.16485Z" fill="#B8BBCF"/>
<path id="Vector_5" d="M7.66523 9.29463C7.25146 9.29392 6.84203 9.21027 6.46112 9.04864C6.08021 8.887 5.73554 8.65065 5.44748 8.35355C5.15942 8.05645 4.9338 7.70462 4.78395 7.31884C4.6341 6.93307 4.56306 6.52116 4.57503 6.10747C4.57838 5.6956 4.66389 5.28855 4.82654 4.91016C4.98919 4.53178 5.22571 4.18967 5.52223 3.90388C5.81876 3.6181 6.16933 3.39438 6.5534 3.24585C6.93747 3.09732 7.34732 3.02696 7.75892 3.0389C9.47442 3.06544 10.8641 4.49191 10.8342 6.19455C10.8313 6.60672 10.7468 7.01423 10.5857 7.39359C10.4245 7.77294 10.1899 8.11663 9.89529 8.40483C9.60069 8.69303 9.25196 8.92004 8.86921 9.07275C8.48645 9.22547 8.07726 9.30088 7.66523 9.29463Z" fill="#B8BBCF"/>
<path id="Vector_6" d="M21.7891 9.29474C21.1699 9.29375 20.565 9.10911 20.0507 8.76417C19.5365 8.41923 19.1361 7.92948 18.9002 7.35689C18.6643 6.78429 18.6034 6.15458 18.7254 5.54739C18.8473 4.94021 19.1465 4.38284 19.5852 3.94579C20.0239 3.50874 20.5823 3.21165 21.1898 3.09209C21.7974 2.97254 22.4267 3.03589 22.9982 3.27415C23.5697 3.5124 24.0577 3.91484 24.4005 4.43056C24.7433 4.94629 24.9255 5.55212 24.9241 6.17143C24.9235 6.58249 24.842 6.9894 24.6841 7.3689C24.5262 7.7484 24.295 8.09305 24.0039 8.38313C23.7127 8.67321 23.3672 8.90303 22.9872 9.05946C22.6072 9.21588 22.2 9.29583 21.7891 9.29474Z" fill="#B8BBCF"/>
</g>
</g>
</g>
</svg>
