<svg width="32" height="32" viewBox="0 0 32 32" fill="none" xmlns="http://www.w3.org/2000/svg">
<rect x="4" y="4" width="24" height="24" fill="#EEEEEE"/>
<path d="M10.0858 27.9151C8.65848 27.8502 7.88314 27.6127 7.36743 27.4115C6.6841 27.1455 6.19693 26.8288 5.68407 26.3166C5.17122 25.8045 4.85381 25.3173 4.58918 24.634C4.38803 24.1183 4.1505 23.3429 4.08559 21.9157C4.01427 20.3728 4 19.9099 4 16.0011C4 12.0923 4.01569 11.63 4.08488 10.0858C4.14979 8.65848 4.38874 7.88457 4.58846 7.36743C4.85452 6.6841 5.17193 6.19693 5.68336 5.68336C6.1955 5.17122 6.68268 4.85309 7.36672 4.58846C7.88243 4.38732 8.65777 4.14979 10.0851 4.08488C11.6286 4.01427 12.0923 4 15.9996 4C19.9085 4 20.3707 4.01569 21.9149 4.08488C23.3422 4.14979 24.1161 4.38874 24.6333 4.58846C25.3166 4.85309 25.8038 5.17122 26.3166 5.68336C26.8295 6.1955 27.1455 6.68339 27.4115 7.36672C27.6127 7.88243 27.8502 8.65777 27.9151 10.0851C27.9857 11.6293 28 12.0915 28 16.0004C28 19.9077 27.9857 20.3714 27.9151 21.9157C27.8502 23.3429 27.6113 24.1183 27.4115 24.634C27.1455 25.3173 26.8288 25.8045 26.3166 26.3166C25.8045 26.8288 25.3166 27.1455 24.6333 27.4115C24.1176 27.6127 23.3422 27.8502 21.9149 27.9151C20.3721 27.9857 19.9085 28 15.9996 28C12.0923 28 11.6286 27.9864 10.0858 27.9151" fill="#B8BBCF"/>
<path d="M13.2771 15.915C13.2771 14.4579 14.4579 13.2765 15.915 13.2765C17.3721 13.2765 18.5535 14.4579 18.5535 15.915C18.5535 17.3721 17.3721 18.5535 15.915 18.5535C14.4579 18.5535 13.2771 17.3721 13.2771 15.915M11.8507 15.915C11.8507 18.1597 13.6703 19.9793 15.915 19.9793C18.1597 19.9793 19.9793 18.1597 19.9793 15.915C19.9793 13.6703 18.1597 11.8507 15.915 11.8507C13.6703 11.8507 11.8508 13.6702 11.8508 15.915M19.1904 11.6896C19.1903 11.8774 19.246 12.0611 19.3503 12.2173C19.4546 12.3736 19.6029 12.4954 19.7764 12.5673C19.9499 12.6393 20.1409 12.6582 20.3251 12.6216C20.5094 12.585 20.6787 12.4946 20.8116 12.3619C20.9444 12.2291 21.035 12.0599 21.0717 11.8756C21.1084 11.6914 21.0897 11.5004 21.0179 11.3269C20.946 11.1533 20.8244 11.0049 20.6682 10.9005C20.5121 10.796 20.3284 10.7402 20.1406 10.7402H20.1402C19.8884 10.7403 19.647 10.8403 19.4689 11.0184C19.2908 11.1964 19.1906 11.4378 19.1904 11.6896M12.7173 22.3577C11.9457 22.3225 11.5262 22.194 11.2475 22.0854C10.878 21.9415 10.6143 21.7702 10.3371 21.4934C10.0599 21.2165 9.88827 20.9531 9.74504 20.5836C9.63638 20.305 9.50784 19.8854 9.47276 19.1137C9.43439 18.2794 9.42673 18.0288 9.42673 15.9151C9.42673 13.8014 9.43502 13.5515 9.47276 12.7165C9.5079 11.9448 9.63739 11.5261 9.74504 11.2467C9.8889 10.8771 10.0602 10.6135 10.3371 10.3363C10.6139 10.059 10.8773 9.88744 11.2475 9.74421C11.5261 9.63556 11.9457 9.50702 12.7173 9.47194C13.5516 9.43356 13.8023 9.4259 15.915 9.4259C18.0277 9.4259 18.2786 9.43407 19.1136 9.47206C19.8853 9.50721 20.304 9.6367 20.5835 9.74434C20.953 9.88757 21.2167 10.0595 21.4939 10.3364C21.7711 10.6132 21.9421 10.8773 22.0859 11.2468C22.1946 11.5254 22.3231 11.945 22.3582 12.7166C22.3966 13.5516 22.4042 13.8016 22.4042 15.9153C22.4042 18.0289 22.3966 18.2789 22.3582 19.1139C22.323 19.8855 22.1939 20.305 22.0859 20.5837C21.9421 20.9532 21.7707 21.2169 21.4939 21.4935C21.217 21.7701 20.953 21.9417 20.5835 22.0855C20.3048 22.1942 19.8853 22.3227 19.1136 22.3578C18.2793 22.3962 18.0287 22.4038 15.915 22.4038C13.8013 22.4038 13.5514 22.3962 12.7173 22.3578M12.6518 8.04793C11.8092 8.08631 11.2334 8.21991 10.7306 8.41557C10.2102 8.61762 9.76903 8.8887 9.32852 9.32852C8.888 9.76834 8.61762 10.2096 8.41557 10.7306C8.21991 11.2338 8.08631 11.8092 8.04793 12.6518C8.00893 13.4957 8 13.7655 8 15.915C8 18.0645 8.00893 18.3343 8.04793 19.1782C8.08631 20.0209 8.21991 20.5962 8.41557 21.0994C8.61762 21.6198 8.88806 22.0619 9.32852 22.5015C9.76897 22.9411 10.2096 23.2118 10.7306 23.4144C11.2344 23.6101 11.8092 23.7437 12.6518 23.7821C13.4962 23.8204 13.7655 23.83 15.915 23.83C18.0645 23.83 18.3343 23.8211 19.1782 23.7821C20.0209 23.7437 20.5962 23.6101 21.0994 23.4144C21.6198 23.2118 22.061 22.9413 22.5015 22.5015C22.942 22.0617 23.2118 21.6198 23.4144 21.0994C23.6101 20.5962 23.7443 20.0208 23.7821 19.1782C23.8204 18.3336 23.8294 18.0645 23.8294 15.915C23.8294 13.7655 23.8204 13.4957 23.7821 12.6518C23.7437 11.8091 23.6101 11.2334 23.4144 10.7306C23.2118 10.2102 22.9413 9.76903 22.5015 9.32852C22.0617 8.888 21.6198 8.61762 21.1 8.41557C20.5962 8.21991 20.0208 8.08567 19.1788 8.04793C18.3348 8.00937 18.0651 8 15.916 8C13.7668 8 13.4965 8.00893 12.6521 8.04793" fill="white"/>
</svg>
