<svg width="58" height="77" viewBox="0 0 58 77" fill="none" xmlns="http://www.w3.org/2000/svg">
<g id="mp3 1">
<g id="Group">
<path id="Vector" d="M31.5786 54.9115C31.4364 54.7153 31.2382 54.5511 30.9829 54.4189C30.7276 54.2868 30.3892 54.2207 29.9697 54.2207H28.7383V58.2173H30.244C30.4443 58.2173 30.6425 58.1833 30.8397 58.1142C31.0369 58.0451 31.2162 57.934 31.3803 57.7788C31.5445 57.6237 31.6767 57.4074 31.7768 57.1291C31.8769 56.8508 31.927 56.5064 31.927 56.0959C31.927 55.9317 31.905 55.7415 31.8589 55.5282C31.8128 55.315 31.7197 55.1087 31.5786 54.9115Z" fill="#B8BBCF"/>
<path id="Vector_2" d="M51.0523 48.0453V22.9942C51.0523 22.2274 50.9602 21.6597 50.5017 21.2002L38.8511 9.55064C38.5017 9.20123 38.0172 9 37.5216 9H8.46586C7.27848 9 6 9.91706 6 11.9294V48.0453H51.0523ZM37.036 12.3949C37.036 11.9364 37.5897 11.7071 37.914 12.0315L48.0208 22.1383C48.3452 22.4626 48.1159 23.0163 47.6574 23.0163H37.036V12.3949ZM23.3141 35.2074H27.0244V26.1439V17.7752V16.774C27.0244 16.2204 27.4719 15.7729 28.0256 15.7729C28.5792 15.7729 29.0267 16.2204 29.0267 16.774V17.6731C29.1319 18.1346 29.9758 21.2833 33.8944 24.4189C34.9036 25.2278 35.6364 25.9757 36.2051 26.7726C37.5717 28.6889 39.623 32.7085 37.9941 38.0898C37.863 38.5223 37.4665 38.8006 37.036 38.8006C36.9399 38.8006 36.8428 38.7866 36.7457 38.7575C36.3132 38.6264 36.0349 38.2299 36.0349 37.7994C36.0349 37.7033 36.0489 37.6062 36.0779 37.5091C37.0561 34.2793 33.1695 31.418 30.8478 29.707C30.1871 29.2215 29.6645 28.837 29.3251 28.5006L29.0267 28.2554V39.7417C29.0267 43.2167 26.2005 46.043 22.7254 46.043C19.2554 46.043 17.0128 43.8004 17.0128 40.3304C17.0128 37.1707 19.4276 35.2074 23.3141 35.2074Z" fill="#B8BBCF"/>
<path id="Vector_3" d="M6 50.0469V65.0643C6 66.0745 7.22142 67.0666 8.46586 67.0666H48.5864C49.8309 67.0666 51.0523 66.0745 51.0523 65.0643V50.0469H6ZM24.5896 63.062H22.9196V56.1219L20.661 61.7334H19.2103L16.9377 56.1219V63.062H15.2678V52.9743H16.9377L19.9352 59.8733L22.9186 52.9743H24.5886V63.062H24.5896ZM33.2546 57.4845C33.0814 57.9 32.8392 58.2494 32.5288 58.5317C32.2184 58.8141 31.844 59.0333 31.4065 59.1885C30.969 59.3437 30.4844 59.4208 29.9558 59.4208H28.7374V63.062H27.0945V52.9743H29.9959C30.4254 52.9743 30.8498 53.0424 31.2683 53.1795C31.6868 53.3167 32.0643 53.5219 32.3976 53.7952C32.731 54.0685 33.0003 54.3999 33.2056 54.7874C33.4108 55.1748 33.5139 55.6103 33.5139 56.0949C33.5139 56.6065 33.4278 57.069 33.2546 57.4845ZM40.8985 61.331C40.7664 61.6644 40.5992 61.9397 40.3989 62.1589C40.1987 62.3782 39.9724 62.5544 39.7211 62.6855C39.4699 62.8167 39.2266 62.9158 38.9893 62.9799C38.752 63.044 38.5358 63.084 38.3395 63.103C38.1433 63.1221 37.9901 63.1301 37.881 63.1301C37.1141 63.1301 36.5104 63.077 36.0669 62.9729C35.6234 62.8688 35.316 62.7606 35.1428 62.6515L35.5123 61.4741C35.5944 61.5202 35.6714 61.5703 35.7445 61.6243C35.8176 61.6784 35.9227 61.7314 36.0589 61.7815C36.1951 61.8316 36.3873 61.8726 36.6336 61.9046C36.8798 61.9367 37.2172 61.9527 37.6467 61.9527C38.2765 61.9527 38.747 61.7815 39.0564 61.4391C39.3657 61.0967 39.5219 60.6662 39.5219 60.1456C39.5219 59.653 39.3797 59.2375 39.0974 58.9002C38.8151 58.5628 38.3996 58.3936 37.852 58.3936H36.4694L36.4554 57.2853H37.3864C37.5867 57.2853 37.7899 57.2803 37.9951 57.2713C38.2004 57.2623 38.3936 57.2112 38.5768 57.1211C38.76 57.031 38.9102 56.8748 39.0283 56.6556C39.1465 56.4363 39.2066 56.1219 39.2066 55.7115C39.2066 55.5473 39.1925 55.3741 39.1655 55.1908C39.1385 55.0076 39.0624 54.8394 38.9392 54.6843C38.8161 54.5291 38.6359 54.4039 38.3986 54.3078C38.1613 54.2117 37.833 54.1637 37.4135 54.1637C36.994 54.1637 36.6586 54.2027 36.4073 54.2798C36.156 54.3569 35.9678 54.4189 35.8396 54.465L35.3601 53.2336C35.5793 53.1705 35.8507 53.1014 36.174 53.0283C36.4974 52.9553 36.966 52.9192 37.5767 52.9192C38.0062 52.9192 38.4116 52.9723 38.7951 53.0764C39.1785 53.1805 39.5139 53.3477 39.8012 53.576C40.0886 53.8042 40.3168 54.0966 40.486 54.452C40.6552 54.8074 40.7393 55.2269 40.7393 55.7115C40.7393 55.9938 40.6893 56.2521 40.5892 56.4843C40.489 56.7166 40.3609 56.9209 40.2057 57.0931C40.0505 57.2653 39.8773 57.4094 39.6851 57.5246C39.4929 57.6397 39.3157 57.7138 39.1515 57.7508C39.3617 57.7779 39.578 57.8469 39.8012 57.9561C40.0245 58.0652 40.2327 58.2214 40.424 58.4216C40.6152 58.6218 40.7754 58.8661 40.9035 59.1534C41.0317 59.4408 41.0947 59.7712 41.0947 60.1456C41.0977 60.6031 41.0307 60.9976 40.8985 61.331Z" fill="#B8BBCF"/>
</g>
</g>
</svg>
