<svg width="35" height="34" viewBox="0 0 35 34" fill="none" xmlns="http://www.w3.org/2000/svg">
<g id="noun-events-1630897 1">
<g id="Group">
<path id="Vector" d="M9.75448 13.5349H8.26494C7.078 13.5349 6.11206 14.5005 6.11206 15.6878V17.1773C6.11206 18.3646 7.078 19.3302 8.26494 19.3302H9.75448C10.9414 19.3302 11.9074 18.3643 11.9074 17.1767V15.6878C11.9074 14.5012 10.9414 13.5349 9.75448 13.5349ZM10.581 17.1773C10.581 17.6336 10.2101 18.0046 9.75482 18.0046H8.26528C7.81002 18.0046 7.43942 17.6336 7.43942 17.1773V15.6878C7.43942 15.2325 7.80968 14.8619 8.26528 14.8619H9.75482C10.2101 14.8619 10.581 15.2322 10.581 15.6878V17.1773Z" fill="#B8BBCF"/>
<path id="Vector_2" d="M26.921 17.177V15.6878C26.921 14.5012 25.9548 13.5349 24.7675 13.5349H23.2786C22.0913 13.5349 21.1257 14.5005 21.1257 15.6878V17.1773C21.1257 18.3646 22.0913 19.3302 23.2786 19.3302H24.7675C25.9548 19.3306 26.921 18.3646 26.921 17.177ZM22.4524 17.1773V15.6878C22.4524 15.2325 22.823 14.8619 23.2786 14.8619H24.7675C25.2238 14.8619 25.5944 15.2322 25.5944 15.6878V17.1773C25.5944 17.6336 25.2238 18.0046 24.7675 18.0046H23.2786C22.823 18.0046 22.4524 17.6336 22.4524 17.1773Z" fill="#B8BBCF"/>
<path id="Vector_3" d="M17.2617 20.7097H15.7715C14.5849 20.7097 13.6193 21.6757 13.6193 22.8629V24.3532C13.6189 25.5398 14.5845 26.505 15.7715 26.505H17.2617C18.4493 26.505 19.4149 25.5398 19.4149 24.3532V22.8629C19.4149 21.6757 18.4493 20.7097 17.2617 20.7097ZM18.0872 24.3532C18.0872 24.8081 17.7166 25.1783 17.2617 25.1783H15.7715C15.3165 25.1783 14.9463 24.8081 14.9463 24.3532V22.8629C14.9463 22.4073 15.3162 22.0361 15.7715 22.0361H17.2617C17.7166 22.0361 18.0872 22.4073 18.0872 22.8629V24.3532Z" fill="#B8BBCF"/>
<path id="Vector_4" d="M17.2617 13.5349H15.7715C14.5849 13.5349 13.6193 14.5005 13.6193 15.6878V17.1773C13.6189 18.3646 14.5845 19.3302 15.7715 19.3302H17.2617C18.4493 19.3302 19.4149 18.3643 19.4149 17.1767V15.6878C19.4149 14.5012 18.4493 13.5349 17.2617 13.5349ZM18.0872 17.1773C18.0872 17.6336 17.7166 18.0046 17.2617 18.0046H15.7715C15.3165 18.0046 14.9463 17.6336 14.9463 17.1773V15.6878C14.9463 15.2325 15.3162 14.8619 15.7715 14.8619H17.2617C17.7166 14.8619 18.0872 15.2322 18.0872 15.6878V17.1773Z" fill="#B8BBCF"/>
<path id="Vector_5" d="M9.75448 20.7097H8.26494C7.078 20.7097 6.11206 21.6757 6.11206 22.8629V24.3532C6.11206 25.5398 7.078 26.505 8.26494 26.505H9.75448C10.9414 26.505 11.9074 25.5398 11.9074 24.3532V22.8629C11.9074 21.6757 10.9414 20.7097 9.75448 20.7097ZM10.581 24.3532C10.581 24.8081 10.2101 25.1783 9.75482 25.1783H8.26528C7.81002 25.1783 7.43942 24.8081 7.43942 24.3532V22.8629C7.43942 22.4073 7.80968 22.0361 8.26528 22.0361H9.75482C10.2101 22.0361 10.581 22.4073 10.581 22.8629V24.3532Z" fill="#B8BBCF"/>
<path id="Vector_6" d="M33.5392 30.919C32.7371 30.118 32.2768 29.0065 32.2768 27.8723V24.7885C32.2768 24.0632 32.0989 23.3798 31.7885 22.775V5.89399H31.7878C31.7878 4.36263 30.5421 3.11721 29.0114 3.11721H24.8464V1.03403C24.8464 0.650508 24.5363 0.340088 24.1518 0.340088C23.7686 0.340088 23.4578 0.650508 23.4578 1.03437V3.11687H10.9628V1.03437C10.9632 0.650508 10.6528 0.340088 10.2686 0.340088C9.88471 0.340088 9.57463 0.650508 9.57463 1.03437V3.11687H4.02107C2.49039 3.11687 1.24463 4.36229 1.24463 5.89365V28.1069C1.24463 29.6386 2.49039 30.8836 4.02107 30.8836H22.1744C22.1631 30.8949 22.1529 30.9078 22.1417 30.919C21.9306 31.1308 21.8663 31.4494 21.9806 31.7251C22.0951 32.0016 22.3654 32.1821 22.6643 32.1821H26.3611C26.3611 32.9967 27.0241 33.6608 27.8401 33.6608C28.6554 33.6608 29.3191 32.9974 29.3191 32.1821H33.0159C33.3148 32.1821 33.5851 32.0022 33.6993 31.7251C33.8132 31.4491 33.7503 31.1315 33.5392 30.919ZM2.63319 5.89297C2.63319 5.12831 3.25539 4.50543 4.02175 4.50543H9.57463V5.89365C8.80895 5.89365 8.18675 6.51687 8.18675 7.28187C8.18675 8.04687 8.80895 8.67043 9.57463 8.67043C10.3406 8.67043 10.9632 8.04721 10.9632 7.28187V4.50509H23.4582V5.89331C22.6925 5.89331 22.0696 6.51653 22.0696 7.28153C22.0696 8.04653 22.6925 8.67009 23.4582 8.67009C24.2245 8.67009 24.8467 8.04687 24.8467 7.28153V4.50475H29.0117C29.7784 4.50475 30.4003 5.12763 30.4003 5.89297V10.058H2.63319V5.89297ZM23.4041 27.8733C23.4041 28.4316 23.2919 28.9834 23.0828 29.4954H4.02175C3.25539 29.4954 2.63319 28.8725 2.63319 28.1072V11.4472H30.4V21.1712C29.6754 20.6571 28.7931 20.3525 27.8408 20.3525C25.3945 20.3525 23.4041 22.3428 23.4041 24.7891V27.8733ZM24.1406 30.7034C24.6206 29.8446 24.8831 28.8657 24.8831 27.8729V24.7891C24.8831 23.1575 26.2091 21.8318 27.8408 21.8318C29.4718 21.8318 30.7978 23.1575 30.7978 24.7891V27.8729C30.7978 28.8657 31.0599 29.8446 31.5403 30.7034H24.1406Z" fill="#B8BBCF"/>
</g>
</g>
</svg>
