<svg width="25" height="25" viewBox="0 0 25 25" fill="none" xmlns="http://www.w3.org/2000/svg">
<g id="highlight_off_black_24dp 2" clip-path="url(#clip0_6066_94759)">
<path id="Vector" d="M14.7658 8.71094L12.1758 11.3009L9.58578 8.71094L8.17578 10.1209L10.7658 12.7109L8.17578 15.3009L9.58578 16.7109L12.1758 14.1209L14.7658 16.7109L16.1758 15.3009L13.5858 12.7109L16.1758 10.1209L14.7658 8.71094ZM12.1758 2.71094C6.64578 2.71094 2.17578 7.18094 2.17578 12.7109C2.17578 18.2409 6.64578 22.7109 12.1758 22.7109C17.7058 22.7109 22.1758 18.2409 22.1758 12.7109C22.1758 7.18094 17.7058 2.71094 12.1758 2.71094ZM12.1758 20.7109C7.76578 20.7109 4.17578 17.1209 4.17578 12.7109C4.17578 8.30094 7.76578 4.71094 12.1758 4.71094C16.5858 4.71094 20.1758 8.30094 20.1758 12.7109C20.1758 17.1209 16.5858 20.7109 12.1758 20.7109Z" fill="#EF453F"/>
</g>
<defs>
<clipPath id="clip0_6066_94759">
<rect width="24" height="24" fill="white" transform="translate(0.175781 0.710938)"/>
</clipPath>
</defs>
</svg>
