<svg width="32" height="32" viewBox="0 0 32 32" fill="none" xmlns="http://www.w3.org/2000/svg">
<g id="Frame 1310">
<path id="Vector" d="M23.0984 14.6382C19.2303 12.341 12.8499 12.1299 9.15732 13.2506C8.56419 13.4305 7.9372 13.0958 7.75762 12.5028C7.57793 11.9094 7.91227 11.2828 8.50562 11.1025C12.7446 9.8159 19.7909 10.0644 24.244 12.7077C24.7775 13.0245 24.9522 13.7132 24.6362 14.2456C24.3198 14.779 23.6303 14.955 23.0982 14.6382M22.9716 18.0406C22.7003 18.481 22.1245 18.6191 21.6847 18.3487C18.46 16.3665 13.5425 15.7922 9.72724 16.9503C9.23255 17.0996 8.70992 16.8209 8.55967 16.3269C8.48805 16.0895 8.5135 15.8333 8.63045 15.6146C8.7474 15.3959 8.9463 15.2325 9.18354 15.1602C13.5418 13.8376 18.96 14.4781 22.6638 16.7543C23.1036 17.0252 23.242 17.6012 22.9716 18.0406ZM21.5033 21.3081C21.4522 21.3921 21.385 21.4651 21.3056 21.5231C21.2263 21.581 21.1362 21.6228 21.0407 21.6459C20.9452 21.669 20.846 21.673 20.7489 21.6578C20.6518 21.6425 20.5587 21.6083 20.4749 21.557C17.657 19.8348 14.1101 19.4458 9.93305 20.4C9.83734 20.4219 9.73825 20.4247 9.64145 20.4083C9.54465 20.3918 9.45204 20.3565 9.36889 20.3043C9.28575 20.2521 9.2137 20.184 9.15688 20.1039C9.10005 20.0239 9.05956 19.9334 9.0377 19.8377C9.0157 19.7419 9.0128 19.6428 9.02916 19.5459C9.04553 19.4491 9.08084 19.3564 9.13309 19.2732C9.18533 19.19 9.25347 19.1179 9.33361 19.0611C9.41374 19.0043 9.5043 18.9638 9.6001 18.942C14.1712 17.8972 18.0921 18.3468 21.2551 20.2796C21.339 20.3308 21.4119 20.3981 21.4698 20.4775C21.5276 20.5569 21.5693 20.6469 21.5923 20.7424C21.6154 20.8379 21.6194 20.9371 21.6041 21.0341C21.5889 21.1312 21.5545 21.2243 21.5033 21.3081ZM15.9998 4C9.37269 4 4 9.37248 4 15.9998C4 22.6277 9.37269 28 15.9999 28C22.6274 28 28 22.6277 28 15.9998C28 9.37258 22.6274 4 15.9998 4Z" fill="#B8BBCF"/>
</g>
</svg>
