<svg width="32" height="32" viewBox="0 0 32 32" fill="none" xmlns="http://www.w3.org/2000/svg">
<path d="M25.5337 11.0324C25.5435 11.2547 25.5435 11.4669 25.5435 11.6893C25.5532 18.4295 20.6011 26.2106 11.5451 26.2106C8.87409 26.2106 6.25183 25.4123 4 23.9167C4.38993 23.9673 4.77985 23.9875 5.16978 23.9875C7.38262 23.9875 9.53696 23.2195 11.2819 21.7946C9.17628 21.7542 7.32413 20.3293 6.68075 18.2476C7.42161 18.3992 8.18197 18.3689 8.90333 18.1567C6.61251 17.6918 4.96507 15.6 4.95532 13.1646C4.95532 13.1444 4.95532 13.1242 4.95532 13.104C5.63769 13.4981 6.4078 13.7204 7.18765 13.7406C5.03331 12.245 4.36068 9.26397 5.66694 6.92963C8.17222 10.1229 11.857 12.053 15.8148 12.2653C15.4151 10.4968 15.961 8.63743 17.238 7.38437C19.2169 5.45425 22.3363 5.5553 24.208 7.60669C25.3095 7.38437 26.3721 6.95994 27.3371 6.36373C26.9667 7.54605 26.1966 8.54648 25.173 9.18312C26.1478 9.06186 27.1032 8.78901 28 8.3848C27.3371 9.41555 26.4988 10.3048 25.5337 11.0324Z" fill="#B8BBCF"/>
</svg>
