<svg width="24" height="24" viewBox="0 0 24 24" fill="none" xmlns="http://www.w3.org/2000/svg">
<g id="noun-microphone-3543453 1">
<g id="Group">
<path id="Vector" fill-rule="evenodd" clip-rule="evenodd" d="M17.5984 10.5454V7.74536C17.5984 7.49081 17.3439 7.23627 17.0893 7.23627C16.8348 7.23627 16.5803 7.49081 16.5803 7.74536V10.5454C16.5803 13.0908 14.5439 15.1272 11.9984 15.1272C9.45298 15.1272 7.41662 13.0908 7.41662 10.5454V7.74536C7.41662 7.49081 7.16207 7.23627 6.90753 7.23627C6.65298 7.23627 6.39844 7.49081 6.39844 7.74536V10.5454C6.39844 13.3454 8.68935 15.8908 11.4893 16.1454V17.9272H9.70753C9.45298 17.9272 9.19844 18.1817 9.19844 18.4363L8.94389 18.9454C8.94389 19.1999 8.68935 19.4544 8.4348 19.4544H7.67116C7.41662 19.4544 6.90753 19.709 6.90753 20.2181C6.90753 20.4726 7.16207 20.9817 7.67116 20.9817H11.9984H16.3257C16.5803 20.9817 17.0893 20.7272 17.0893 20.2181C17.0893 19.9635 16.8348 19.4544 16.3257 19.4544H15.5621C15.3075 19.4544 15.053 19.1999 15.053 18.9454L14.7984 18.4363C14.7984 18.1817 14.5439 17.9272 14.2893 17.9272H12.5075V16.1454C15.3075 15.8908 17.5984 13.3454 17.5984 10.5454ZM11.9984 13.8544C13.7803 13.8544 15.3075 12.3272 15.3075 10.5454V10.0363H14.0348C13.7803 10.0363 13.5257 9.78172 13.5257 9.52717C13.5257 9.27263 13.7803 9.01808 14.0348 9.01808H15.3075V7.9999H14.0348C13.7803 7.9999 13.5257 7.74536 13.5257 7.49081C13.5257 7.23627 13.7803 6.98172 14.0348 6.98172H15.3075V5.96354H14.0348C13.7803 5.96354 13.5257 5.70899 13.5257 5.45445C13.5257 5.1999 13.7803 4.94536 14.0348 4.94536H15.053C14.7984 3.41808 13.5257 2.3999 11.9984 2.3999C10.4712 2.3999 9.19844 3.41808 8.94389 4.94536H9.96207C10.2166 4.94536 10.4712 5.1999 10.4712 5.45445C10.4712 5.70899 10.2166 5.96354 9.96207 5.96354H8.68935V6.98172H9.96207C10.2166 6.98172 10.4712 7.23627 10.4712 7.49081C10.4712 7.74536 10.2166 7.9999 9.96207 7.9999H8.68935V9.01808H9.96207C10.2166 9.01808 10.4712 9.27263 10.4712 9.52717C10.4712 9.78172 10.2166 10.0363 9.96207 10.0363H8.68935V10.5454C8.68935 12.3272 10.2166 13.8544 11.9984 13.8544Z" fill="#B8BBCF"/>
</g>
</g>
</svg>
