<svg width="1480" height="693" viewBox="0 0 1480 693" fill="none" xmlns="http://www.w3.org/2000/svg">
<g clip-path="url(#clip0_1866_20048)">
<path d="M0 20C0 8.95431 8.95431 0 20 0H1460C1471.05 0 1480 8.95431 1480 20V693H0V20Z" fill="black"/>
<g filter="url(#filter0_f_1866_20048)">
<rect width="1480" height="627" rx="20" fill="url(#paint0_linear_1866_20048)"/>
</g>
<g filter="url(#filter1_f_1866_20048)">
<rect x="1480" y="696" width="1480" height="3" transform="rotate(180 1480 696)" fill="url(#paint1_linear_1866_20048)"/>
</g>
</g>
<defs>
<filter id="filter0_f_1866_20048" x="-180" y="-180" width="1840" height="987" filterUnits="userSpaceOnUse" color-interpolation-filters="sRGB">
<feFlood flood-opacity="0" result="BackgroundImageFix"/>
<feBlend mode="normal" in="SourceGraphic" in2="BackgroundImageFix" result="shape"/>
<feGaussianBlur stdDeviation="90" result="effect1_foregroundBlur_1866_20048"/>
</filter>
<filter id="filter1_f_1866_20048" x="-180" y="513" width="1840" height="363" filterUnits="userSpaceOnUse" color-interpolation-filters="sRGB">
<feFlood flood-opacity="0" result="BackgroundImageFix"/>
<feBlend mode="normal" in="SourceGraphic" in2="BackgroundImageFix" result="shape"/>
<feGaussianBlur stdDeviation="90" result="effect1_foregroundBlur_1866_20048"/>
</filter>
<linearGradient id="paint0_linear_1866_20048" x1="-502" y1="43.0803" x2="412.164" y2="512.996" gradientUnits="userSpaceOnUse">
<stop stop-color="#FF5C00"/>
<stop offset="1" stop-color="#FF6B00" stop-opacity="0"/>
</linearGradient>
<linearGradient id="paint1_linear_1866_20048" x1="978" y1="696.206" x2="978.1" y2="706.963" gradientUnits="userSpaceOnUse">
<stop stop-color="#FF5C00"/>
<stop offset="1" stop-color="#FF6B00" stop-opacity="0"/>
</linearGradient>
<clipPath id="clip0_1866_20048">
<path d="M0 20C0 8.95431 8.95431 0 20 0H1460C1471.05 0 1480 8.95431 1480 20V693H0V20Z" fill="white"/>
</clipPath>
</defs>
</svg>
