<svg width="59" height="58" viewBox="0 0 59 58" fill="none" xmlns="http://www.w3.org/2000/svg">
<g id="noun-empty-3455681 1" clip-path="url(#clip0_8009_69607)">
<g id="Group">
<path id="Vector" fill-rule="evenodd" clip-rule="evenodd" d="M52.7612 36.2487L44.5678 24.1654H14.4322L9.56561 31.4154H9.5879L6.3584 36.2487H22.25C22.25 40.2528 25.4959 43.4987 29.5 43.4987C33.5041 43.4987 36.75 40.2528 36.75 36.2487H52.7612ZM58.5 36.2487V55.582H0.5V36.2487L11.8553 19.332H47.1447L58.5 36.2487ZM18.4221 41.082H5.33333V50.7487H53.6667V41.082H40.5779C38.7133 45.3496 34.4549 48.332 29.5 48.332C24.5451 48.332 20.2867 45.3496 18.4221 41.082ZM31.9167 14.4987H27.0833V4.83203H31.9167V14.4987ZM43.4634 16.0171L39.7033 12.9803L45.5588 5.73025L49.3189 8.76714L43.4634 16.0171ZM19.2967 12.9803L15.5366 16.0171L9.68107 8.76714L13.4412 5.73025L19.2967 12.9803Z" fill="#8690A2"/>
</g>
</g>
<defs>
<clipPath id="clip0_8009_69607">
<rect width="58" height="58" fill="white" transform="translate(0.5)"/>
</clipPath>
</defs>
</svg>
