<svg width="26" height="25" viewBox="0 0 26 25" fill="none" xmlns="http://www.w3.org/2000/svg">
<path d="M25.5283 12.4953C25.5274 10.1066 24.8421 7.76812 23.5535 5.75677C22.2648 3.74543 20.4269 2.14543 18.2572 1.1462C16.0875 0.146968 13.6769 -0.209651 11.3108 0.118562C8.94472 0.446775 6.72222 1.44608 4.90643 2.99816C3.09063 4.55024 1.75761 6.59011 1.06512 8.87626C0.372626 11.1624 0.349665 13.5991 0.999004 15.8979C1.64834 18.1967 2.94278 20.2613 4.72904 21.8473C6.5153 23.4333 8.71856 24.4742 11.078 24.8469V16.1132H7.9195V12.4953H11.0993V9.73952C11.0993 6.60922 12.9647 4.87802 15.8194 4.87802C16.7664 4.89019 17.7112 4.97286 18.6459 5.12534V8.19911H17.0702C16.7982 8.15604 16.5201 8.1756 16.2568 8.25631C15.9936 8.33702 15.7523 8.47674 15.5513 8.66483C15.3503 8.85291 15.1948 9.08441 15.0968 9.34167C14.9988 9.59894 14.9607 9.87518 14.9856 10.1494V12.4953H18.4551L17.904 16.1132H14.9856V24.8469C17.9253 24.3794 20.6018 22.8788 22.5342 20.6148C24.4666 18.3509 25.5282 15.4719 25.5283 12.4953Z" fill="#373C59"/>
<path d="M17.8963 16.1141L18.4475 12.4962H14.9851V10.1502C14.9615 9.88016 14.999 9.60823 15.0946 9.35456C15.1903 9.1009 15.3418 8.87198 15.5378 8.68473C15.7339 8.49749 15.9695 8.35671 16.2273 8.27281C16.4851 8.1889 16.7585 8.16402 17.0272 8.19999H18.6029V5.12622C17.6682 4.97374 16.7235 4.89108 15.7765 4.87891C12.95 4.87891 11.0563 6.61011 11.0563 9.74041V12.4962H7.91895V16.1141H11.0987V24.8478C12.3913 25.0457 13.7066 25.0457 14.9992 24.8478V16.1141H17.8963Z" fill="white"/>
</svg>
