<svg width="38" height="40" viewBox="0 0 38 40" fill="none" xmlns="http://www.w3.org/2000/svg">
<path d="M14.6415 30.438H14.5355C13.9891 30.438 13.4895 30.6393 13.1067 30.9735C12.9468 30.9358 12.7815 30.916 12.6107 30.916C11.4085 30.916 10.429 31.8955 10.429 33.0977V35.558C10.429 36.7603 11.4085 37.7397 12.6107 37.7397C12.7815 37.7397 12.9468 37.72 13.1067 37.6822C13.4895 38.0147 13.9891 38.2178 14.5355 38.2178H14.6415C15.8456 38.2178 16.8232 37.2383 16.8232 36.036V32.6215C16.8232 31.4174 15.8456 30.438 14.6415 30.438Z" fill="#48CEE0"/>
<path d="M25.1637 30.916C24.9929 30.916 24.8276 30.9358 24.6677 30.9735C24.2849 30.6411 23.7853 30.438 23.2389 30.438H23.1311C21.9288 30.438 20.9494 31.4174 20.9494 32.6197V36.0342C20.9494 37.2383 21.9288 38.216 23.1311 38.216H23.2389C23.7853 38.216 24.2849 38.0147 24.6677 37.6804C24.8276 37.7182 24.9929 37.7379 25.1637 37.7379C26.3659 37.7379 27.3454 36.7585 27.3454 35.5562V33.0959C27.3454 31.8955 26.3659 30.916 25.1637 30.916Z" fill="#48CEE0"/>
<path d="M36.978 33.9656C37.3769 33.4139 37.3787 32.8496 37.3608 32.6375C37.3087 31.9977 36.9564 31.446 36.3706 31.0812C35.8745 30.7739 35.224 30.6104 34.4908 30.6104C34.356 30.6104 34.2176 30.6157 34.081 30.6265C33.4736 30.6768 32.8608 30.9087 32.4798 31.0794L17.0317 32.1936L2.84871 31.3759C2.80378 31.3741 2.75885 31.3723 2.71752 31.3723C1.50626 31.3723 0.510646 32.3212 0.454935 33.5325C0.436964 33.9099 0.512443 34.2765 0.668794 34.6072C0.525023 34.9414 0.465718 35.308 0.496269 35.6818C0.593314 36.8482 1.58353 37.7611 2.75346 37.7611C2.82355 37.7611 2.89544 37.7575 2.96552 37.7521L17.1071 36.4348L32.5822 37.0027C32.9686 37.1609 33.5886 37.3712 34.1978 37.3999C34.2787 37.4035 34.3578 37.4053 34.435 37.4053C35.2024 37.4053 35.8835 37.2328 36.4029 36.9075C37.0193 36.5211 37.3751 35.9406 37.4075 35.2757C37.4273 34.7941 37.2781 34.3448 36.978 33.9656Z" fill="#48CEE0"/>
<path d="M18.2411 39.2798C14.8553 37.1664 11.4444 34.2012 8.37489 30.7075C5.41143 27.3343 3.01226 23.7077 1.62128 20.4963C0.311176 17.4717 -0.233354 14.3033 0.0919262 11.5789C0.525034 7.94151 2.37787 5.09306 5.60013 3.10903C8.90505 1.07468 13.5003 0 18.8899 0C24.2777 0 28.8729 1.07468 32.1797 3.10903C35.4019 5.09127 37.2548 7.94151 37.6879 11.5789C38.0131 14.3051 37.4686 17.4717 36.1585 20.4963C34.7675 23.7077 32.3684 27.3343 29.4049 30.7075C26.3354 34.2012 22.9244 37.1646 19.5387 39.2798L18.8917 39.6842L18.2411 39.2798Z" fill="#48CEE0"/>
<path d="M20.3851 6.50919C16.9579 5.23682 11.5809 6.5038 6.92096 11.6166C2.93673 15.989 4.3331 22.0508 4.82192 23.7149C4.89919 23.9809 4.9549 24.1336 4.9603 24.1516C-0.15613 16.3341 -0.150738 9.33967 4.71229 5.25659C9.57712 1.17351 18.8862 1.22024 18.8862 1.22024C19.323 1.52216 19.641 1.9319 19.8729 2.38837C20.7481 4.10643 20.3851 6.50919 20.3851 6.50919Z" fill="#FFC80B"/>
<path d="M19.898 6.26482C16.4709 4.99245 11.0939 6.25943 6.43391 11.3723C2.44967 15.7447 3.84604 21.8064 4.33486 23.4705C0.102622 16.2227 0.781936 10.1017 5.51378 6.46251C11.6384 1.75223 19.6284 2.68674 19.5062 2.41357C20.3814 4.13522 19.898 6.26482 19.898 6.26482Z" fill="#F8A541"/>
<path d="M32.2695 18.2212C31.3332 23.0465 28.42 25.0036 25.9023 25.3864C25.5752 25.4367 25.2571 25.4601 24.948 25.4601C22.2631 25.4601 19.0714 23.264 18.277 19.5224L19.8226 12.2817L21.0356 6.83643C21.0356 6.83643 20.6295 4.97999 21.3681 3.6591C22.1067 2.34001 24.292 2.39572 26.33 3.41469C26.4468 3.4722 26.56 3.5351 26.6732 3.5998C28.6177 4.723 30.0716 6.88315 30.0716 9.19066C30.0716 9.19246 33.3262 12.7705 32.2695 18.2212Z" fill="white"/>
<path d="M32.2695 18.2211C31.3332 23.0463 28.4201 25.0034 25.9023 25.3862C25.8664 25.3341 25.8484 25.3035 25.8484 25.3035C32.6433 17.2218 27.7282 8.8005 27.7282 8.8005C28.1002 6.27913 27.3382 4.56287 26.6769 3.59961C28.6214 4.72282 30.0752 6.88296 30.0752 9.19048C30.0716 9.19227 33.3262 12.7704 32.2695 18.2211Z" fill="#E8E4D2"/>
<path d="M5.09147 24.3564C5.09147 24.3564 3.20269 19.2184 5.09147 14.7418C7.29655 9.51751 12.2009 6.6421 16.9831 6.18204C21.2063 5.77588 22.184 7.75632 22.4266 8.78428C22.7519 10.1681 22.29 11.7495 19.8243 12.2815C17.3587 12.8134 11.6546 13.827 8.5797 16.5928C5.50481 19.3586 5.35026 23.6735 6.48604 26.3961" fill="#EF453F"/>
<path d="M34.1781 21.7936C30.6809 27.203 28.102 30.657 28.0211 30.7631C28.0517 30.7163 28.5243 29.9795 28.9377 28.9084C29.466 27.539 29.8955 25.6251 29.1749 23.9178C29.1749 23.9178 35.9033 17.4194 30.0717 9.19033C30.0717 9.19033 30.4562 5.59967 26.4918 3.49883C26.1018 3.29216 25.7262 3.12323 25.3668 2.99024C24.7468 2.75841 24.1753 2.63441 23.6595 2.60206C22.4914 2.53017 21.6198 2.93992 21.1615 3.70011C20.7464 4.38661 20.6727 5.36065 21.0249 6.5216L20.2773 6.18014C20.2773 6.18014 20.5918 5.31033 20.4498 4.16197C20.3726 3.53477 20.1569 2.8249 19.6825 2.12762C19.4722 1.81851 19.2098 1.513 18.8881 1.21827C18.8881 1.21827 26.2941 0.812119 32.0898 4.50702C37.5369 7.98087 37.731 16.298 34.1781 21.7936Z" fill="#827596"/>
<path d="M19.6356 2.46729C20.6708 2.46729 22.0653 2.52839 23.6324 2.75303C22.4625 2.73685 21.6107 3.18793 21.1901 3.96789C20.9206 4.09369 20.6887 4.25902 20.5 4.4621C20.3922 3.84029 20.1442 3.14121 19.6356 2.46729Z" fill="#483C59"/>
<path d="M28.9375 28.9084C29.4659 27.539 29.8954 25.6251 29.1748 23.9178C29.1748 23.9178 35.9032 17.4194 30.0715 9.19033C30.0715 9.19033 30.4561 5.59967 26.4916 3.49882C26.1017 3.29215 25.7261 3.12322 25.3666 2.99023C27.2267 3.48085 29.2089 4.23564 31.0312 5.39839C36.4801 8.87403 36.5825 18.0556 33.0296 23.5512C33.0296 23.553 30.2944 27.7511 28.9375 28.9084Z" fill="#483C59"/>
<path d="M20.3132 14.8191C20.1982 16.0483 19.7795 17.5777 18.6419 19.0962C16.0846 22.518 14.0394 22.0975 12.041 25.2999C10.8585 27.1941 10.6411 28.896 10.801 30.1935C10.9124 31.0903 11.2018 31.793 11.4785 32.2369C11.4785 32.2369 11.2108 31.996 10.783 31.5773C9.65085 30.4631 7.40444 28.0891 6.1123 25.6108C6.1123 25.6108 5.93978 24.9585 5.87508 23.9575C5.73131 21.8099 6.07277 18.0593 9.63467 15.7123C14.2317 12.6823 20.1227 12.2061 20.1227 12.2061C20.1227 12.2061 20.457 13.2807 20.3132 14.8191Z" fill="#827596"/>
<path d="M20.6024 14.6466C20.4874 15.8759 20.0687 17.4052 18.9311 18.9238C16.3738 22.3455 14.3287 21.925 12.3303 25.1275C11.1477 27.0216 10.9303 28.7235 11.0902 30.0211C11.0309 30.5189 11.0327 30.9825 11.0723 31.4048C9.94007 30.2906 7.69366 27.9166 6.40153 25.4384C6.40153 25.4384 6.229 24.786 6.16431 23.785C6.30808 21.6626 7.11139 18.9328 9.9239 17.0799C14.521 14.05 20.4119 13.5737 20.4119 13.5737C20.4119 13.5737 20.5395 13.9799 20.6024 14.6466Z" fill="#483C59"/>
<path d="M30.0717 9.51747C30.0717 9.51747 29.1048 9.04663 27.7246 8.80222C26.2384 8.53983 24.2741 8.53983 22.5165 9.67382C22.3135 7.7473 21.0249 6.52346 21.0249 6.52346C20.7769 5.41103 20.8775 4.42261 21.4508 3.52584C21.9055 2.81598 23.2767 2.13307 25.4135 2.97053C25.9724 3.18978 26.5816 3.51147 27.2412 3.96434C30.4311 6.15145 30.0717 9.51747 30.0717 9.51747Z" fill="#FFC80B"/>
<path d="M30.0716 9.51764C30.0716 9.51764 29.1048 9.0468 27.7246 8.80239C28.0858 6.20554 26.7595 3.99686 25.4135 2.9707C25.9724 3.18995 26.5816 3.51164 27.2411 3.96452C30.431 6.15162 30.0716 9.51764 30.0716 9.51764Z" fill="#F8A541"/>
<path d="M28.8423 28.5795C28.5063 29.4152 27.9941 30.3227 27.2321 31.2734C23.9811 35.3241 18.888 38.2427 18.888 38.2427C18.888 38.2427 14.0286 35.157 11.4803 32.2385C10.6248 30.0585 10.6698 28.3153 11.2161 26.8614C12.5082 23.4253 16.6075 21.6138 18.277 19.522C18.277 19.522 21.2495 29.1564 29.1766 23.9178C29.1766 23.9178 29.9422 25.8551 28.8423 28.5795Z" fill="#483C59"/>
<path d="M23.4347 27.6942C20.6779 29.0797 19.7363 26.8495 19.7363 26.8495C16.7135 28.0913 16.027 25.4927 16.027 25.4927C16.4529 28.8174 19.6284 27.5791 19.6284 27.5791C21.2081 29.777 23.4276 28.316 23.4276 28.316C24.9929 29.8453 26.3748 27.8882 26.3748 27.8882C24.7359 29.0923 23.4347 27.6942 23.4347 27.6942Z" fill="#223644"/>
<path d="M36.8755 11.6743C36.473 8.29575 34.7495 5.64857 31.7483 3.80113C28.571 1.84585 24.1231 0.8125 18.8863 0.8125C13.6495 0.8125 9.20156 1.84585 6.02423 3.80113C3.02482 5.64678 1.29958 8.29575 0.897024 11.6743C0.589715 14.2586 1.11088 17.2778 2.36528 20.173C3.72391 23.309 6.07455 26.8583 8.9841 30.1704C12.0015 33.6047 15.3513 36.5161 18.6706 38.5882L18.8863 38.7229L19.1019 38.5882C22.4212 36.5161 25.7711 33.6047 28.7885 30.1704C31.698 26.8583 34.0487 23.3072 35.4073 20.173C36.6617 17.2778 37.1847 14.2586 36.8755 11.6743ZM19.8621 5.91994C19.0372 5.71687 18.0614 5.66834 16.9418 5.77617C13.8166 6.07809 10.9484 7.30912 8.67679 9.22306C9.32556 5.87142 7.64345 4.6943 6.75027 4.3151C9.75327 2.57009 13.8939 1.64277 18.7605 1.6266C19.1091 1.88898 20.3617 3.05532 19.8621 5.91994ZM5.51385 24.2596C5.49588 24.2309 5.47611 24.2021 5.45814 24.1734C5.28561 23.672 3.75446 18.9599 5.46712 14.9002C7.80159 9.36683 12.9665 6.97665 17.0227 6.58668C20.8254 6.22006 21.794 7.86443 22.0313 8.87802C22.1445 9.35605 22.1948 10.0569 21.803 10.6769C21.4328 11.2628 20.7373 11.669 19.7381 11.8846C19.5458 11.9259 19.332 11.9709 19.1019 12.0194C16.3469 12.5963 11.2215 13.6692 8.30838 16.2912C6.83114 17.6193 5.87867 19.402 5.55339 21.4471C5.40422 22.3727 5.39524 23.3341 5.51385 24.2596ZM29.7715 9.46568C29.802 9.49982 32.8769 12.9539 31.8687 18.144C30.8803 23.2389 27.6455 25.054 24.9462 25.054C22.4967 25.054 19.5386 23.034 18.7209 19.641C19.0319 19.2744 19.3284 18.8754 19.5979 18.4334C21.1021 15.9731 20.7984 13.4427 20.6061 12.4867C21.4652 12.1919 22.096 11.7319 22.4877 11.1118C22.9172 10.4325 23.0323 9.59507 22.8202 8.69291C22.68 8.09626 22.326 7.25341 21.431 6.61543C21.422 6.60824 21.413 6.60285 21.4023 6.59746C21.3304 6.14997 21.1812 4.8219 21.7204 3.86043C22.2918 2.83966 24.195 2.80552 26.1467 3.78136C28.2529 4.83088 29.6655 7.0072 29.6655 9.19251V9.35066L29.7715 9.46568ZM12.4022 27.8575C12.7113 26.3749 13.432 24.8725 15.3441 23.1293C16.532 22.0474 17.2473 21.2584 17.6768 20.7121C17.8098 20.5917 17.941 20.4695 18.0704 20.3419C18.6527 22.2451 19.7651 23.4815 20.6457 24.2075C21.9234 25.2624 23.4923 25.8663 24.948 25.8663C26.3282 25.8663 27.6976 25.435 28.8765 24.6442C28.837 25.6165 28.5566 27.8629 26.9123 29.9835C20.8865 32.6145 15.3136 30.7473 12.4022 27.8575ZM9.11889 29.0706C8.88346 26.4989 9.6095 24.2489 11.2808 22.3816C12.5406 20.9727 13.8957 20.3203 13.91 20.3149C14.1131 20.2197 14.1994 19.9771 14.1041 19.774C14.0089 19.5709 13.7663 19.4829 13.5632 19.5799C13.5021 19.6087 12.068 20.2952 10.6986 21.8155C9.56817 23.0699 8.2994 25.1259 8.26525 28.0444C8.03881 27.764 7.81597 27.4819 7.59672 27.198C7.6093 27.1512 7.61649 27.1027 7.6111 27.0506C7.37388 24.513 7.97771 22.3834 9.40463 20.7193C10.4703 19.4775 11.6241 18.9689 11.6474 18.9581C11.8541 18.8701 11.9494 18.631 11.8631 18.4244C11.775 18.2177 11.536 18.1207 11.3294 18.2087C11.2754 18.2321 10.0085 18.7802 8.81338 20.1568C7.84472 21.2746 6.76645 23.149 6.74848 25.9561C5.74748 23.2335 6.13565 19.3391 8.84932 16.8968C11.5989 14.4222 16.586 13.378 19.2655 12.8155C19.4614 12.7742 19.6447 12.7365 19.8154 12.6987C19.9789 13.5757 20.2216 15.8509 18.9043 18.0074C17.9392 19.5853 16.6578 20.554 15.301 21.5783C14.2515 22.3709 13.1642 23.1921 12.2639 24.3082C10.6644 26.2922 10.0839 28.3248 10.4883 30.6107C10.0228 30.1075 9.56458 29.5917 9.11889 29.0706ZM34.6615 19.8495C33.5095 22.5056 31.68 25.3667 29.4696 28.0947C30.2495 25.94 29.9278 24.6011 29.6834 24.0206C31.1858 22.6854 32.1904 20.7642 32.6685 18.3004C33.6569 13.2073 31.0493 9.72985 30.4778 9.03976C30.4149 6.60644 28.837 4.21626 26.5133 3.05352C24.0908 1.84226 21.8282 2.00939 21.0141 3.46327C20.9116 3.64478 20.8308 3.83347 20.7643 4.02577C20.6565 2.91155 20.2701 2.14238 19.8945 1.64098C24.5419 1.76318 28.4776 2.74441 31.3242 4.49482C38.6421 8.99842 35.729 17.3856 34.6615 19.8495Z" fill="#223644"/>
<path d="M2.58265 34.6794C2.04711 34.6093 1.64815 34.133 1.67331 33.5921C1.68589 33.3118 1.80989 33.053 2.01836 32.8643C2.22682 32.6756 2.49819 32.5803 2.77854 32.5965L32.9218 34.3343C33.1518 34.2552 33.8006 34.0522 34.3523 34.0791C34.4565 34.0845 34.559 34.0935 34.6614 34.1061C35.6139 34.2301 36.2105 34.6668 36.1854 35.2185C36.1764 35.418 36.0704 35.7864 35.4701 36.0146C35.1341 36.1422 34.7027 36.2015 34.2535 36.18C34.1942 36.1764 34.1295 36.171 34.0666 36.1638C33.5705 36.0991 33.0512 35.8816 32.8553 35.7918L2.6815 34.6866C2.64735 34.6866 2.615 34.683 2.58265 34.6794Z" fill="#F2C5A0"/>
<path d="M34.3344 34.4853C33.7413 34.4565 32.9829 34.7458 32.9829 34.7458L2.75702 33.0044C2.40119 32.9847 2.09748 33.2578 2.0813 33.6119C2.06513 33.9677 2.34189 34.2678 2.69592 34.2804L32.9524 35.3892C32.9524 35.3892 33.682 35.7468 34.2733 35.7756C35.0874 35.8133 35.7613 35.5564 35.7793 35.2005C35.7954 34.8447 35.1485 34.523 34.3344 34.4853Z" fill="#A57C58"/>
<path d="M34.3739 34.2246C33.7809 34.1923 33.0189 34.4726 33.0189 34.4726L2.80913 32.4706C2.4533 32.4473 2.14779 32.7186 2.12802 33.0727C2.10825 33.4285 2.38142 33.7304 2.73725 33.7466L32.9829 35.116C32.9829 35.116 33.709 35.4808 34.302 35.5132C35.1161 35.5581 35.7918 35.3065 35.8134 34.9507C35.8332 34.5948 35.188 34.2696 34.3739 34.2246Z" fill="#F2C5A0"/>
<path d="M2.71933 33.0026C2.73191 33.0026 2.74449 33.0026 2.75707 33.0044L32.983 34.7458C32.983 34.7458 33.6731 34.4834 34.2518 34.4834C34.2805 34.4834 34.3075 34.4834 34.3344 34.4852C35.1485 34.5229 35.7955 34.8428 35.7793 35.2005C35.7631 35.5329 35.1755 35.7809 34.4333 35.7809C34.3811 35.7809 34.3272 35.7791 34.2733 35.7773C33.6803 35.7486 32.9524 35.391 32.9524 35.391L2.69597 34.2821C2.34014 34.2696 2.06338 33.9676 2.08135 33.6136C2.09573 33.2685 2.37967 33.0026 2.71933 33.0026ZM2.71933 32.1885C1.94297 32.1885 1.30499 32.7959 1.26905 33.5723C1.25108 33.9622 1.38586 34.336 1.65004 34.6236C1.91422 34.9111 2.27544 35.0783 2.66542 35.0926L32.7601 36.1961C33.0531 36.3237 33.6659 36.5609 34.2356 36.5878C34.3021 36.5914 34.3686 36.5932 34.4333 36.5932C35.6859 36.5932 36.5539 36.0487 36.5916 35.2382C36.6024 34.9974 36.5413 34.3953 35.729 33.9946C35.357 33.8113 34.8754 33.6963 34.3722 33.6729C34.3326 33.6711 34.2913 33.6693 34.25 33.6693C33.7162 33.6693 33.1483 33.8311 32.8662 33.9227L2.802 32.1903C2.77504 32.1903 2.74629 32.1885 2.71933 32.1885Z" fill="#223644"/>
<path d="M2.75342 36.5446C2.21429 36.5446 1.75602 36.1223 1.71109 35.5849C1.68773 35.3046 1.77579 35.0314 1.95909 34.8176C2.1424 34.6037 2.39759 34.4743 2.67795 34.4545L32.7942 32.2836C33.0117 32.1758 33.6299 31.89 34.1798 31.8451C34.284 31.8361 34.3865 31.8325 34.4889 31.8325C35.4486 31.8325 36.0974 32.1884 36.1441 32.7401C36.1603 32.9396 36.1045 33.3169 35.5384 33.6225C35.2221 33.7932 34.8016 33.9082 34.3541 33.9441C34.2948 33.9495 34.2301 33.9513 34.1654 33.9513C33.664 33.9513 33.1231 33.8022 32.9146 33.7393L2.85227 36.5392C2.81992 36.5428 2.78577 36.5446 2.75342 36.5446Z" fill="#F2C5A0"/>
<path d="M34.214 32.2516C33.6227 32.3001 32.9075 32.6847 32.9075 32.6847L2.7085 34.861C2.35446 34.8862 2.08849 35.1971 2.11724 35.5511C2.14599 35.9052 2.45869 36.1675 2.81453 36.1352L32.9596 33.3263C32.9596 33.3263 33.7287 33.5869 34.32 33.5384C35.1323 33.4719 35.7685 33.1286 35.7379 32.7728C35.7092 32.4169 35.0263 32.1833 34.214 32.2516Z" fill="#A57C58"/>
<path d="M34.2302 31.9748C33.639 32.018 32.9201 32.3972 32.9201 32.3972L2.70319 34.3147C2.34736 34.3381 2.07959 34.6454 2.10654 34.9994C2.1335 35.3535 2.4444 35.6194 2.79844 35.5889L32.9668 33.0387C32.9668 33.0387 33.7342 33.3065 34.3255 33.2634C35.1396 33.2041 35.7776 32.8662 35.7506 32.5104C35.7236 32.1546 35.0425 31.9155 34.2302 31.9748Z" fill="#F2C5A0"/>
<path d="M34.4889 32.2389C35.1754 32.2389 35.7128 32.4582 35.7379 32.7727C35.7667 33.1285 35.1323 33.4717 34.32 33.5382C34.2697 33.5418 34.2176 33.5436 34.1654 33.5436C33.6029 33.5436 32.9596 33.3244 32.9596 33.3244L2.81453 36.1351C2.79476 36.1369 2.77499 36.1387 2.75522 36.1387C2.42635 36.1387 2.146 35.8871 2.11904 35.551C2.09029 35.197 2.35626 34.8861 2.7103 34.8609L32.9075 32.6846C32.9075 32.6846 33.6227 32.3 34.214 32.2515C34.3074 32.2425 34.4009 32.2389 34.4889 32.2389ZM34.4889 31.4248C34.3757 31.4248 34.2607 31.4302 34.1457 31.4392C33.5778 31.4859 32.9739 31.7447 32.6864 31.8831L2.65099 34.0486C2.26101 34.0774 1.90698 34.2553 1.65179 34.5518C1.39659 34.8483 1.27439 35.2275 1.30674 35.6157C1.36784 36.3633 2.00402 36.9492 2.75343 36.9492C2.79836 36.9492 2.84328 36.9474 2.88821 36.942L32.8733 34.1493C33.1411 34.2265 33.6622 34.3559 34.1636 34.3559C34.2391 34.3559 34.3146 34.3523 34.3865 34.3469C34.8897 34.3056 35.3659 34.1744 35.7307 33.9767C36.5287 33.5472 36.5682 32.9434 36.5484 32.7026C36.4855 31.928 35.6768 31.4248 34.4889 31.4248Z" fill="#223644"/>
<path d="M15.6029 32.6216V36.0344C15.6029 36.5663 15.1734 36.9958 14.6414 36.9958H14.5336C14.0017 36.9958 13.5721 36.5645 13.5721 36.0344V32.6216C13.5721 32.0897 14.0017 31.6602 14.5336 31.6602H14.6414C15.1734 31.6584 15.6029 32.0897 15.6029 32.6216Z" fill="#F8A541"/>
<path d="M13.572 33.0977V35.558C13.572 36.0899 13.1425 36.5194 12.6106 36.5194C12.0786 36.5194 11.6491 36.0899 11.6491 35.558V33.0977C11.6491 32.5657 12.0804 32.1362 12.6106 32.1362C12.8765 32.1362 13.1174 32.2441 13.2899 32.4184C13.466 32.5909 13.572 32.8317 13.572 33.0977Z" fill="#F8A541"/>
<path d="M17.5275 33.0977V35.558C17.5275 36.0899 17.098 36.5194 16.5661 36.5194C16.0341 36.5194 15.6046 36.0899 15.6046 35.558V33.0977C15.6046 32.5657 16.0359 32.1362 16.5661 32.1362C16.8321 32.1362 17.0729 32.2441 17.2454 32.4184C17.4197 32.5909 17.5275 32.8317 17.5275 33.0977Z" fill="#F8A541"/>
<path d="M15.6029 34.9273V36.0361C15.6029 36.5681 15.1734 36.9976 14.6414 36.9976H14.5336C14.0017 36.9976 13.5721 36.5663 13.5721 36.0361V34.9273C13.5721 34.3953 14.0017 33.9658 14.5336 33.9658H14.6414C15.1734 33.9658 15.6029 34.3953 15.6029 34.9273Z" fill="#C78434"/>
<path d="M13.572 35.4038V35.5584C13.572 36.0904 13.1425 36.5199 12.6106 36.5199C12.0786 36.5199 11.6491 36.0904 11.6491 35.5584V35.4038C11.6491 34.8719 12.0804 34.4424 12.6106 34.4424C12.8765 34.4424 13.1174 34.5502 13.2899 34.7245C13.466 34.8989 13.572 35.1379 13.572 35.4038Z" fill="#C78434"/>
<path d="M17.5275 35.4038V35.5584C17.5275 36.0904 17.098 36.5199 16.5661 36.5199C16.0341 36.5199 15.6046 36.0904 15.6046 35.5584V35.4038C15.6046 34.8719 16.0359 34.4424 16.5661 34.4424C16.8321 34.4424 17.0729 34.5502 17.2454 34.7245C17.4197 34.8989 17.5275 35.1379 17.5275 35.4038Z" fill="#C78434"/>
<path d="M14.6414 37.4039H14.5354C13.7806 37.4039 13.166 36.7892 13.166 36.0344V32.6199C13.166 31.8651 13.7806 31.2505 14.5354 31.2505H14.6414C15.3962 31.2505 16.0108 31.8651 16.0108 32.6199V36.0344C16.0108 36.7892 15.3962 37.4039 14.6414 37.4039ZM14.5354 32.0664C14.2299 32.0664 13.9801 32.3162 13.9801 32.6217V36.0362C13.9801 36.3418 14.2299 36.5916 14.5354 36.5916H14.6414C14.9469 36.5916 15.1967 36.3418 15.1967 36.0362V32.6217C15.1967 32.3162 14.9469 32.0664 14.6414 32.0664H14.5354Z" fill="#223644"/>
<path d="M12.6106 36.9257C11.8558 36.9257 11.2412 36.311 11.2412 35.5562V33.096C11.2412 32.3412 11.8558 31.7266 12.6106 31.7266C13.3654 31.7266 13.98 32.3412 13.98 33.096V35.5562C13.98 36.3128 13.3654 36.9257 12.6106 36.9257ZM12.6106 32.5425C12.3051 32.5425 12.0553 32.7923 12.0553 33.0978V35.558C12.0553 35.8636 12.3051 36.1134 12.6106 36.1134C12.9161 36.1134 13.1659 35.8636 13.1659 35.558V33.0978C13.1659 32.7923 12.9161 32.5425 12.6106 32.5425Z" fill="#223644"/>
<path d="M16.5642 36.9257C15.8094 36.9257 15.1948 36.311 15.1948 35.5562V33.096C15.1948 32.3412 15.8094 31.7266 16.5642 31.7266C17.319 31.7266 17.9336 32.3412 17.9336 33.096V35.5562C17.9336 36.3128 17.319 36.9257 16.5642 36.9257ZM16.5642 32.5425C16.2587 32.5425 16.0089 32.7923 16.0089 33.0978V35.558C16.0089 35.8636 16.2587 36.1134 16.5642 36.1134C16.8698 36.1134 17.1196 35.8636 17.1196 35.558V33.0978C17.1196 32.7923 16.8715 32.5425 16.5642 32.5425Z" fill="#223644"/>
<path d="M22.1714 32.6216V36.0344C22.1714 36.5663 22.6009 36.9958 23.1328 36.9958H23.2407C23.7726 36.9958 24.2021 36.5645 24.2021 36.0344V32.6216C24.2021 32.0897 23.7726 31.6602 23.2407 31.6602H23.1328C22.6009 31.6584 22.1714 32.0897 22.1714 32.6216Z" fill="#F8A541"/>
<path d="M24.2021 33.0977V35.558C24.2021 36.0899 24.6317 36.5194 25.1636 36.5194C25.6956 36.5194 26.1251 36.0899 26.1251 35.558V33.0977C26.1251 32.5657 25.6938 32.1362 25.1636 32.1362C24.8976 32.1362 24.6568 32.2441 24.4843 32.4184C24.3082 32.5909 24.2021 32.8317 24.2021 33.0977Z" fill="#F8A541"/>
<path d="M20.2466 33.0977V35.558C20.2466 36.0899 20.6762 36.5194 21.2081 36.5194C21.7401 36.5194 22.1696 36.0899 22.1696 35.558V33.0977C22.1696 32.5657 21.7383 32.1362 21.2081 32.1362C20.9421 32.1362 20.7013 32.2441 20.5288 32.4184C20.3545 32.5909 20.2466 32.8317 20.2466 33.0977Z" fill="#F8A541"/>
<path d="M22.1714 34.9273V36.0361C22.1714 36.5681 22.6009 36.9976 23.1328 36.9976H23.2407C23.7726 36.9976 24.2021 36.5663 24.2021 36.0361V34.9273C24.2021 34.3953 23.7726 33.9658 23.2407 33.9658H23.1328C22.6009 33.9658 22.1714 34.3953 22.1714 34.9273Z" fill="#C78434"/>
<path d="M24.2021 35.4038V35.5584C24.2021 36.0904 24.6317 36.5199 25.1636 36.5199C25.6956 36.5199 26.1251 36.0904 26.1251 35.5584V35.4038C26.1251 34.8719 25.6938 34.4424 25.1636 34.4424C24.8976 34.4424 24.6568 34.5502 24.4843 34.7245C24.3082 34.8989 24.2021 35.1379 24.2021 35.4038Z" fill="#C78434"/>
<path d="M20.2466 35.4038V35.5584C20.2466 36.0904 20.6762 36.5199 21.2081 36.5199C21.7401 36.5199 22.1696 36.0904 22.1696 35.5584V35.4038C22.1696 34.8719 21.7383 34.4424 21.2081 34.4424C20.9421 34.4424 20.7013 34.5502 20.5288 34.7245C20.3545 34.8989 20.2466 35.1379 20.2466 35.4038Z" fill="#C78434"/>
<path d="M23.2388 37.4039H23.131C22.3762 37.4039 21.7616 36.7892 21.7616 36.0344V32.6199C21.7616 31.8651 22.3762 31.2505 23.131 31.2505H23.2388C23.9936 31.2505 24.6082 31.8651 24.6082 32.6199V36.0344C24.6082 36.7892 23.9936 37.4039 23.2388 37.4039ZM23.1328 32.0664C22.8273 32.0664 22.5775 32.3162 22.5775 32.6217V36.0362C22.5775 36.3418 22.8273 36.5916 23.1328 36.5916H23.2406C23.5461 36.5916 23.7959 36.3418 23.7959 36.0362V32.6217C23.7959 32.3162 23.5461 32.0664 23.2406 32.0664H23.1328Z" fill="#223644"/>
<path d="M25.1637 36.9257C24.4089 36.9257 23.7943 36.311 23.7943 35.5562V33.096C23.7943 32.3412 24.4089 31.7266 25.1637 31.7266C25.9185 31.7266 26.5331 32.3412 26.5331 33.096V35.5562C26.5313 36.3128 25.9185 36.9257 25.1637 36.9257ZM25.1637 32.5425C24.8581 32.5425 24.6083 32.7923 24.6083 33.0978V35.558C24.6083 35.8636 24.8581 36.1134 25.1637 36.1134C25.4692 36.1134 25.719 35.8636 25.719 35.558V33.0978C25.719 32.7923 25.4692 32.5425 25.1637 32.5425Z" fill="#223644"/>
<path d="M21.2082 36.9257C20.4534 36.9257 19.8387 36.311 19.8387 35.5562V33.096C19.8387 32.3412 20.4534 31.7266 21.2082 31.7266C21.963 31.7266 22.5776 32.3412 22.5776 33.096V35.5562C22.5776 36.3128 21.963 36.9257 21.2082 36.9257ZM21.2082 32.5425C20.9026 32.5425 20.6528 32.7923 20.6528 33.0978V35.558C20.6528 35.8636 20.9026 36.1134 21.2082 36.1134C21.5137 36.1134 21.7635 35.8636 21.7635 35.558V33.0978C21.7635 32.7923 21.5155 32.5425 21.2082 32.5425Z" fill="#223644"/>
<path d="M25.1006 7.62716C25.9513 7.27956 26.3094 6.18592 25.9002 5.18445C25.491 4.18298 24.4697 3.65291 23.6189 4.0005C22.7681 4.3481 22.4101 5.44174 22.8192 6.44321C23.2284 7.44468 24.2498 7.97475 25.1006 7.62716Z" fill="#223644"/>
<path d="M24.2664 5.4067C24.7083 5.17229 24.9052 4.67805 24.7061 4.30278C24.5071 3.92751 23.9875 3.81332 23.5456 4.04773C23.1037 4.28214 22.9068 4.77638 23.1059 5.15165C23.3049 5.52692 23.8245 5.64111 24.2664 5.4067Z" fill="white"/>
<path d="M25.0595 5.60552C25.1945 5.60552 25.3039 5.49609 25.3039 5.36111C25.3039 5.22613 25.1945 5.1167 25.0595 5.1167C24.9245 5.1167 24.8151 5.22613 24.8151 5.36111C24.8151 5.49609 24.9245 5.60552 25.0595 5.60552Z" fill="white"/>
</svg>
