<svg xmlns="http://www.w3.org/2000/svg" xmlns:xlink="http://www.w3.org/1999/xlink" width="175" height="46" fill="none" xmlns:v="https://vecta.io/nano"><g fill="#48cee0"><path d="M21.641 33.438h-.106c-.546 0-1.046.201-1.429.535-.16-.038-.325-.058-.496-.058-1.202 0-2.182.979-2.182 2.182v2.46c0 1.202.979 2.182 2.182 2.182.171 0 .336-.02.496-.057.383.332.882.535 1.429.535h.106c1.204 0 2.182-.979 2.182-2.182V35.62c0-1.204-.978-2.183-2.182-2.183zm10.523.478c-.171 0-.336.02-.496.058a2.17 2.17 0 0 0-1.429-.535h-.108c-1.202 0-2.182.979-2.182 2.182v3.414c0 1.204.979 2.182 2.182 2.182h.108c.546 0 1.046-.201 1.429-.535.16.038.325.058.496.058 1.202 0 2.182-.979 2.182-2.182v-2.46c0-1.2-.979-2.18-2.182-2.18z"/><path d="M43.978 36.966a2.02 2.02 0 0 0 .383-1.328c-.052-.64-.404-1.192-.99-1.556-.496-.307-1.147-.471-1.88-.471l-.41.016c-.608.05-1.22.282-1.601.453l-15.448 1.114-14.183-.818-.131-.004c-1.211 0-2.207.949-2.263 2.16-.018.377.058.744.214 1.075-.144.334-.203.701-.173 1.075a2.28 2.28 0 0 0 2.257 2.079l.212-.009 14.142-1.317 15.475.568c.386.158 1.006.368 1.616.397l.237.005c.767 0 1.449-.172 1.968-.498.616-.386.972-.967 1.005-1.632a1.95 1.95 0 0 0-.43-1.31z"/><path d="M25.241 42.28c-3.386-2.113-6.797-5.079-9.866-8.572-2.963-3.373-5.363-7-6.754-10.211-1.31-3.025-1.855-6.193-1.529-8.917.433-3.637 2.286-6.486 5.508-8.47C15.905 4.075 20.5 3 25.89 3s9.983 1.075 13.29 3.109c3.222 1.982 5.075 4.832 5.508 8.47.325 2.726-.219 5.893-1.529 8.917-1.391 3.211-3.79 6.838-6.754 10.211-3.069 3.494-6.48 6.457-9.866 8.572l-.647.404-.651-.404z"/></g><path d="M27.385 9.509c-3.427-1.272-8.804-.005-13.464 5.107-3.984 4.373-2.588 10.434-2.099 12.098.077.266.133.419.138.437-5.116-7.817-5.111-14.812-.248-18.895S25.886 4.22 25.886 4.22c.437.302.755.712.987 1.168.875 1.718.512 4.121.512 4.121z" fill="#ffc80b"/><path d="M26.898 9.265c-3.427-1.272-8.804-.005-13.464 5.107-3.984 4.372-2.588 10.434-2.099 12.098-4.232-7.248-3.553-13.369 1.179-17.008 6.125-4.71 14.115-3.776 13.993-4.049.875 1.722.392 3.851.392 3.851z" fill="#f8a541"/><path d="M39.27 21.221c-.936 4.825-3.849 6.782-6.367 7.165a6.27 6.27 0 0 1-.954.074c-2.685 0-5.877-2.196-6.671-5.938l1.546-7.241 1.213-5.445s-.406-1.856.333-3.177 2.924-1.263 4.962-.244l.343.185c1.945 1.123 3.398 3.283 3.398 5.591 0 .002 3.255 3.58 2.198 9.031z" fill="#fff"/><path d="M39.27 21.221c-.936 4.825-3.849 6.782-6.367 7.165l-.054-.083c6.795-8.082 1.88-16.503 1.88-16.503.372-2.521-.39-4.238-1.051-5.201 1.944 1.123 3.398 3.283 3.398 5.591-.004.002 3.251 3.58 2.194 9.031z" fill="#e8e4d2"/><path d="M12.092 27.357s-1.889-5.138 0-9.615c2.205-5.224 7.11-8.1 11.892-8.56 4.223-.406 5.201 1.574 5.444 2.602.325 1.384-.137 2.965-2.602 3.497s-8.17 1.546-11.245 4.311-3.229 7.081-2.094 9.803" fill="#ef453f"/><path d="M41.178 24.794c-3.497 5.409-6.076 8.863-6.157 8.97.031-.047.503-.784.917-1.855.528-1.369.958-3.283.237-4.991 0 0 6.729-6.498.897-14.727 0 0 .385-3.591-3.58-5.691-.39-.207-.766-.376-1.125-.509-.62-.232-1.192-.356-1.707-.388-1.168-.072-2.04.338-2.498 1.098-.415.686-.489 1.661-.137 2.821l-.748-.341s.314-.87.173-2.018c-.077-.627-.293-1.337-.767-2.034a5.22 5.22 0 0 0-.794-.909s7.406-.406 13.202 3.289c5.447 3.474 5.641 11.791 2.088 17.287z" fill="#827596"/><path d="M26.636 5.467a28.49 28.49 0 0 1 3.997.286c-1.17-.016-2.022.435-2.442 1.215-.27.126-.501.291-.69.494a4.58 4.58 0 0 0-.864-1.995zm9.302 26.442c.528-1.369.958-3.283.237-4.991 0 0 6.729-6.498.897-14.727 0 0 .385-3.591-3.58-5.691a9.3 9.3 0 0 0-1.125-.509c1.86.491 3.842 1.245 5.665 2.408 5.449 3.476 5.551 12.657 1.998 18.153 0 .002-2.735 4.2-4.092 5.357z" fill="#483c59"/><path d="M27.313 17.819c-.115 1.229-.534 2.759-1.671 4.277-2.557 3.422-4.602 3.001-6.601 6.204-1.183 1.894-1.4 3.596-1.24 4.894.111.897.401 1.599.678 2.043l-.695-.66c-1.132-1.114-3.379-3.488-4.671-5.966 0 0-.172-.652-.237-1.653-.144-2.148.198-5.898 3.76-8.245 4.597-3.03 10.488-3.506 10.488-3.506s.334 1.075.191 2.613z" fill="#827596"/><path d="M27.602 17.647c-.115 1.229-.534 2.759-1.671 4.277-2.557 3.422-4.602 3.001-6.601 6.204-1.183 1.894-1.4 3.596-1.24 4.893-.059.498-.058.962-.018 1.384-1.132-1.114-3.379-3.488-4.671-5.966 0 0-.173-.652-.237-1.653.144-2.122.947-4.852 3.76-6.705 4.597-3.03 10.488-3.506 10.488-3.506s.128.406.191 1.073z" fill="#483c59"/><path d="M37.072 12.518s-.967-.471-2.347-.715c-1.486-.262-3.451-.262-5.208.872-.203-1.927-1.492-3.15-1.492-3.15-.248-1.112-.147-2.101.426-2.998.455-.71 1.826-1.393 3.963-.555.559.219 1.168.541 1.828.994 3.19 2.187 2.831 5.553 2.831 5.553z" fill="#ffc80b"/><path d="M37.072 12.518s-.967-.471-2.347-.715c.361-2.597-.965-4.805-2.311-5.832.559.219 1.168.541 1.828.994 3.19 2.187 2.83 5.553 2.83 5.553z" fill="#f8a541"/><path d="M35.842 31.58c-.336.836-.848 1.743-1.61 2.694-3.251 4.051-8.344 6.969-8.344 6.969s-4.859-3.086-7.408-6.004c-.855-2.18-.811-3.923-.264-5.377 1.292-3.436 5.391-5.248 7.061-7.339 0 0 2.972 9.634 10.9 4.396 0 0 .766 1.937-.334 4.662z" fill="#483c59"/><path d="M30.435 30.694c-2.757 1.386-3.698-.845-3.698-.845-3.023 1.242-3.709-1.357-3.709-1.357.426 3.325 3.601 2.087 3.601 2.087 1.58 2.198 3.799.737 3.799.737 1.565 1.529 2.947-.428 2.947-.428-1.639 1.204-2.94-.194-2.94-.194zm13.441-16.02c-.403-3.379-2.126-6.026-5.127-7.873-3.177-1.955-7.625-2.989-12.862-2.989s-9.685 1.033-12.862 2.989c-2.999 1.846-4.725 4.495-5.127 7.873-.307 2.584.214 5.603 1.468 8.499 1.359 3.136 3.709 6.685 6.619 9.997 3.017 3.434 6.367 6.346 9.687 8.418l.216.135.216-.135c3.319-2.072 6.669-4.983 9.687-8.418 2.91-3.312 5.26-6.863 6.619-9.997 1.254-2.895 1.777-5.914 1.468-8.499zM26.862 8.92c-.825-.203-1.801-.252-2.92-.144-3.125.302-5.993 1.533-8.265 3.447.649-3.352-1.033-4.529-1.927-4.908 3.003-1.745 7.144-2.672 12.01-2.689.349.262 1.601 1.429 1.102 4.293zM12.514 27.26c-.018-.029-.038-.058-.056-.086-.172-.501-1.704-5.213.009-9.273 2.335-5.533 7.499-7.924 11.556-8.314 3.803-.367 4.771 1.278 5.009 2.291.113.478.163 1.179-.228 1.799-.37.586-1.066.992-2.065 1.208l-.636.135c-2.755.577-7.88 1.65-10.793 4.272-1.477 1.328-2.43 3.111-2.755 5.156a9.9 9.9 0 0 0-.04 2.813zm24.258-14.794c.03.034 3.105 3.488 2.097 8.678-.988 5.095-4.223 6.91-6.922 6.91-2.45 0-5.408-2.02-6.225-5.413.311-.367.607-.765.877-1.208 1.504-2.46 1.201-4.991 1.008-5.947.859-.295 1.49-.755 1.882-1.375.43-.679.545-1.517.332-2.419a3.49 3.49 0 0 0-1.389-2.077c-.009-.007-.018-.013-.029-.018-.072-.447-.221-1.776.318-2.737.571-1.021 2.475-1.055 4.426-.079 2.106 1.05 3.519 3.226 3.519 5.411v.158l.106.115zm-17.37 18.391c.309-1.483 1.03-2.985 2.942-4.728 1.188-1.082 1.903-1.871 2.333-2.417a13.61 13.61 0 0 0 .394-.37 8.02 8.02 0 0 0 2.575 3.866c1.278 1.055 2.847 1.659 4.302 1.659 1.38 0 2.75-.431 3.928-1.222a9.5 9.5 0 0 1-1.964 5.339c-6.026 2.631-11.599.764-14.51-2.126zm-3.283 1.213c-.235-2.572.491-4.822 2.162-6.689 1.26-1.409 2.615-2.061 2.629-2.067.203-.095.289-.338.194-.541s-.338-.291-.541-.194c-.061.029-1.495.715-2.865 2.236-1.13 1.254-2.399 3.31-2.433 6.229l-.669-.846a.4.4 0 0 0 .014-.147c-.237-2.538.367-4.667 1.793-6.331 1.066-1.242 2.22-1.75 2.243-1.761a.41.41 0 0 0 .216-.534c-.088-.207-.327-.304-.534-.216-.054.023-1.321.572-2.516 1.948-.969 1.118-2.047 2.992-2.065 5.799-1.001-2.723-.613-6.617 2.101-9.059 2.75-2.475 7.737-3.519 10.416-4.081l.55-.117c.163.877.406 3.152-.911 5.309-.965 1.578-2.246 2.547-3.603 3.571-1.049.793-2.137 1.614-3.037 2.73-1.599 1.984-2.18 4.017-1.776 6.303-.465-.503-.924-1.019-1.369-1.54zm25.543-9.221c-1.152 2.656-2.981 5.517-5.192 8.245.78-2.155.458-3.494.214-4.074 1.502-1.335 2.507-3.256 2.985-5.72.988-5.093-1.619-8.57-2.191-9.261-.063-2.433-1.641-4.824-3.965-5.986-2.422-1.211-4.685-1.044-5.499.41-.102.182-.183.37-.25.563-.108-1.114-.494-1.883-.87-2.385 4.647.122 8.583 1.103 11.43 2.854 7.318 4.504 4.405 12.891 3.337 15.355z" fill="#223644"/><path d="M9.583 37.679c-.536-.07-.934-.546-.909-1.087a1.04 1.04 0 0 1 1.105-.996l30.143 1.738c.23-.079.879-.282 1.431-.255l.309.027c.953.124 1.549.561 1.524 1.112-.009.2-.115.568-.715.796-.336.128-.767.187-1.217.165l-.187-.016c-.496-.065-1.015-.282-1.211-.372L9.681 37.686c-.034 0-.066-.004-.099-.007z" fill="#f2c5a0"/><path d="M41.334 37.485c-.593-.029-1.351.261-1.351.261L9.757 36.004a.64.64 0 0 0-.676.607.64.64 0 0 0 .615.669l30.256 1.109s.73.358 1.321.386c.814.038 1.488-.219 1.506-.575s-.631-.678-1.445-.715z" fill="#a57c58"/><path d="M41.374 37.225c-.593-.032-1.355.248-1.355.248l-30.21-2.002a.64.64 0 0 0-.681.602.64.64 0 0 0 .609.674l30.246 1.369s.726.365 1.319.397c.814.045 1.49-.207 1.511-.562s-.625-.681-1.439-.726z" fill="#f2c5a0"/><path d="M9.719 36.003l.038.002 30.226 1.741s.69-.262 1.269-.262l.083.002c.814.038 1.461.358 1.445.715-.016.332-.604.58-1.346.58-.052 0-.106-.002-.16-.004-.593-.029-1.321-.386-1.321-.386L9.696 37.282a.64.64 0 0 1-.615-.668c.014-.345.298-.611.638-.611zm0-.814a1.45 1.45 0 0 0-1.45 1.384c-.018.39.117.764.381 1.051s.625.455 1.015.469l30.095 1.103c.293.128.906.365 1.475.392l.198.005c1.253 0 2.121-.544 2.158-1.355.011-.241-.05-.843-.863-1.244-.372-.183-.854-.298-1.357-.322l-.122-.004c-.534 0-1.102.162-1.384.253L9.802 35.19c-.027 0-.056-.002-.083-.002z" fill="#223644"/><path d="M9.753 39.545c-.539 0-.997-.422-1.042-.96a1.04 1.04 0 0 1 .248-.767c.183-.214.438-.343.719-.363l30.116-2.171c.218-.108.836-.394 1.386-.438l.309-.013c.96 0 1.608.356 1.655.908.016.2-.04.577-.606.882-.316.171-.737.286-1.184.322a2.12 2.12 0 0 1-.189.007c-.501 0-1.042-.149-1.251-.212l-30.062 2.8a.91.91 0 0 1-.099.005z" fill="#f2c5a0"/><path d="M41.214 35.251c-.591.048-1.306.433-1.306.433L9.709 37.861a.64.64 0 0 0-.591.69.64.64 0 0 0 .697.584l30.145-2.809s.769.261 1.36.212c.812-.066 1.449-.41 1.418-.765s-.712-.59-1.524-.521z" fill="#a57c58"/><path d="M41.23 34.975c-.591.043-1.31.422-1.31.422L9.703 37.314a.64.64 0 0 0-.597.685.64.64 0 0 0 .692.589l30.168-2.55s.767.268 1.359.225c.814-.059 1.452-.397 1.425-.753s-.708-.595-1.52-.536z" fill="#f2c5a0"/><path d="M41.489 35.239c.687 0 1.224.219 1.249.534.029.356-.606.699-1.418.766l-.155.005c-.562 0-1.206-.219-1.206-.219L9.815 39.135l-.059.004a.64.64 0 0 1-.045-1.278l30.197-2.176s.715-.385 1.306-.433a2.89 2.89 0 0 1 .275-.013zm0-.814l-.343.014c-.568.047-1.172.306-1.459.444L9.651 37.048a1.45 1.45 0 0 0-.999.503 1.44 1.44 0 0 0-.345 1.064 1.46 1.46 0 0 0 1.447 1.334c.045 0 .09-.002.135-.007l29.985-2.793c.268.077.789.207 1.29.207l.223-.009c.503-.041.979-.172 1.344-.37.798-.43.837-1.033.818-1.274-.063-.775-.872-1.278-2.059-1.278z" fill="#223644"/><g fill="#f8a541"><path d="M22.603 35.622v3.413a.96.96 0 0 1-.962.962h-.108a.96.96 0 0 1-.962-.962v-3.413a.96.96 0 0 1 .962-.962h.108a.96.96 0 0 1 .962.962z"/><use xlink:href="#B"/><use xlink:href="#B" x="3.956"/></g><g fill="#c78434"><path d="M22.603 37.927v1.109a.96.96 0 0 1-.962.962h-.108a.96.96 0 0 1-.962-.962v-1.109a.96.96 0 0 1 .962-.962h.108a.96.96 0 0 1 .962.962z"/><path d="M20.572 38.404v.154a.961.961 0 1 1-1.923 0v-.154a.96.96 0 0 1 .961-.962.95.95 0 0 1 .961.961zm3.956 0v.154a.962.962 0 1 1-1.923 0v-.154a.96.96 0 0 1 .961-.962.95.95 0 0 1 .679.282c.172.174.282.413.282.679z"/></g><g fill="#223644"><path d="M21.642 40.404h-.106a1.37 1.37 0 0 1-1.369-1.369V35.62a1.37 1.37 0 0 1 1.369-1.369h.106a1.37 1.37 0 0 1 1.369 1.369v3.414a1.37 1.37 0 0 1-1.369 1.369zm-.106-5.337c-.305 0-.555.25-.555.555v3.415c0 .306.25.555.555.555h.106c.305 0 .555-.25.555-.555v-3.415c0-.305-.25-.555-.555-.555h-.106z"/><path d="M19.611 39.926a1.37 1.37 0 0 1-1.369-1.369v-2.46a1.37 1.37 0 0 1 1.369-1.369 1.37 1.37 0 0 1 1.369 1.369v2.46a1.37 1.37 0 0 1-1.369 1.369zm0-4.383c-.306 0-.555.25-.555.555v2.46c0 .306.25.555.555.555s.555-.25.555-.555v-2.46c0-.306-.25-.555-.555-.555zm3.953 4.383a1.37 1.37 0 0 1-1.369-1.369v-2.46a1.37 1.37 0 0 1 1.369-1.369 1.37 1.37 0 0 1 1.369 1.369v2.46a1.37 1.37 0 0 1-1.369 1.369zm0-4.383c-.305 0-.555.25-.555.555v2.46c0 .306.25.555.555.555s.555-.25.555-.555v-2.46c0-.306-.248-.555-.555-.555z"/></g><g fill="#f8a541"><path d="M29.171 35.622v3.413a.96.96 0 0 0 .961.962h.108a.96.96 0 0 0 .961-.962v-3.413a.96.96 0 0 0-.961-.962h-.108a.96.96 0 0 0-.961.962z"/><path d="M31.202 36.098v2.46a.961.961 0 1 0 1.923 0v-2.46a.96.96 0 0 0-.962-.961.95.95 0 0 0-.679.282c-.172.174-.282.413-.282.679zm-3.955 0v2.46a.962.962 0 1 0 1.923 0v-2.46a.96.96 0 0 0-.961-.961.95.95 0 0 0-.679.282c-.172.174-.282.413-.282.679z"/></g><g fill="#c78434"><path d="M29.171 37.927v1.109a.96.96 0 0 0 .961.962h.108a.96.96 0 0 0 .961-.962v-1.109a.96.96 0 0 0-.961-.962h-.108a.96.96 0 0 0-.961.962z"/><path d="M31.202 38.404v.154a.961.961 0 1 0 1.923 0v-.154a.96.96 0 0 0-.962-.962.95.95 0 0 0-.961.961zm-3.955 0v.154a.962.962 0 1 0 1.923 0v-.154a.96.96 0 0 0-.961-.962.95.95 0 0 0-.679.282c-.172.174-.282.413-.282.679z"/></g><g fill="#223644"><path d="M30.239 40.404h-.108a1.37 1.37 0 0 1-1.369-1.369V35.62a1.37 1.37 0 0 1 1.369-1.369h.108a1.37 1.37 0 0 1 1.369 1.369v3.414a1.37 1.37 0 0 1-1.369 1.369zm-.106-5.337c-.305 0-.555.25-.555.555v3.415c0 .306.25.555.555.555h.108c.305 0 .555-.25.555-.555v-3.415c0-.305-.25-.555-.555-.555h-.108z"/><path d="M32.164 39.926a1.37 1.37 0 0 1-1.369-1.369v-2.46a1.37 1.37 0 0 1 1.369-1.369 1.37 1.37 0 0 1 1.369 1.369v2.46a1.37 1.37 0 0 1-1.369 1.369zm0-4.383c-.305 0-.555.25-.555.555v2.46c0 .306.25.555.555.555s.555-.25.555-.555v-2.46c0-.306-.25-.555-.555-.555zm-3.956 4.383a1.37 1.37 0 0 1-1.369-1.369v-2.46a1.37 1.37 0 0 1 1.369-1.369 1.37 1.37 0 0 1 1.369 1.369v2.46a1.37 1.37 0 0 1-1.369 1.369zm0-4.383c-.306 0-.555.25-.555.555v2.46c0 .306.25.555.555.555s.555-.25.555-.555v-2.46c0-.306-.248-.555-.555-.555zM32.1 10.627c.851-.348 1.209-1.441.8-2.443S31.47 6.652 30.619 7s-1.209 1.441-.8 2.443 1.431 1.532 2.281 1.184z"/></g><path d="M31.267 8.406c.442-.234.639-.729.44-1.104s-.719-.489-1.161-.255-.639.729-.44 1.104.719.489 1.161.255zm.792.199c.135 0 .244-.109.244-.244s-.11-.244-.244-.244-.244.109-.244.244.109.244.244.244z" fill="#fff"/><path d="M50.744 23.011c0-7.72 5.672-13.394 13.709-13.394 6.421 0 11.385 3.625 13.078 9.061h-7.013c-1.222-1.97-3.348-3.152-6.067-3.152-4.372 0-7.248 3.152-7.248 7.485s2.875 7.485 7.248 7.485c3.23 0 5.515-1.299 6.696-3.821h-5.296c-1.644 0-2.976-1.332-2.976-2.976v-2.144h12.449c1.546 0 2.796 1.253 2.796 2.796-.631 7.012-6.105 12.053-13.669 12.053-8.035 0-13.707-5.672-13.707-13.394zm29.09 3.152c0-5.909 4.333-10.242 10.479-10.242s10.361 4.333 10.361 10.242c0 .913-.741 1.655-1.655 1.655H85.981c.473 2.284 2.205 3.308 4.333 3.308 1.695 0 2.954-.354 3.702-1.418h6.106c-1.26 4.018-4.963 6.696-9.809 6.696-6.144 0-10.479-4.333-10.479-10.242zm14.772-2.088c-.67-2.009-2.245-2.875-4.293-2.875s-3.625.906-4.214 2.875h8.508zm7.766 2.088c0-5.909 4.333-10.242 10.479-10.242s10.361 4.333 10.361 10.242c0 .913-.741 1.655-1.656 1.655h-13.038c.473 2.284 2.207 3.308 4.333 3.308 1.695 0 2.955-.354 3.702-1.418h6.107c-1.26 4.018-4.964 6.696-9.809 6.696-6.146 0-10.479-4.333-10.479-10.242zm14.772-2.088c-.67-2.009-2.244-2.875-4.293-2.875s-3.625.906-4.214 2.875h8.507zm8.098 1.891V7.924h2.904c1.661 0 3.005 1.346 3.005 3.005v7.631c1.222-1.732 3.192-2.64 5.516-2.64 4.412 0 9.454 3.229 9.454 10.006 0 6.263-4.333 10.479-10.518 10.479-5.949 0-10.361-3.9-10.361-10.44zm14.89.198c0-2.796-1.812-4.726-4.492-4.726s-4.491 1.93-4.491 4.726 1.812 4.727 4.491 4.727 4.492-1.93 4.492-4.727zm8.126.353V16.434h2.946c1.637 0 2.963 1.326 2.963 2.963v7.12c0 3.073 1.497 4.373 3.704 4.373s3.702-1.299 3.702-4.373V16.434h5.909v10.084c0 6.54-3.86 9.888-9.611 9.888s-9.613-3.309-9.613-9.888z" fill="#223644"/><defs ><path id="B" d="M20.572 36.098v2.46a.96.96 0 1 1-1.923 0v-2.46a.96.96 0 0 1 .961-.961c.266 0 .507.108.679.282s.282.413.282.679z"/></defs></svg>