<svg width="25" height="24" viewBox="0 0 25 24" fill="none" xmlns="http://www.w3.org/2000/svg">
<path d="M11.9721 1.62471C12.1383 1.11332 12.8617 1.11332 13.0279 1.62471L15.0695 7.90825C15.1439 8.13695 15.357 8.2918 15.5974 8.2918H22.2044C22.7421 8.2918 22.9656 8.97987 22.5306 9.29592L17.1855 13.1794C16.991 13.3207 16.9096 13.5712 16.9839 13.7999L19.0255 20.0835C19.1917 20.5949 18.6064 21.0201 18.1714 20.7041L12.8263 16.8206C12.6317 16.6793 12.3683 16.6793 12.1737 16.8206L6.82864 20.7041C6.39362 21.0201 5.80832 20.5949 5.97448 20.0835L8.01612 13.7999C8.09043 13.5712 8.00903 13.3207 7.81448 13.1794L2.46938 9.29592C2.03437 8.97987 2.25794 8.2918 2.79564 8.2918H9.40255C9.64302 8.2918 9.85614 8.13695 9.93045 7.90825L11.9721 1.62471Z" fill="#FF6B00"/>
</svg>
