<svg width="26" height="25" viewBox="0 0 26 25" fill="none" xmlns="http://www.w3.org/2000/svg">
<path d="M13.3428 25C20.2463 25 25.8428 19.4036 25.8428 12.5C25.8428 5.59644 20.2463 0 13.3428 0C6.43921 0 0.842773 5.59644 0.842773 12.5C0.842773 19.4036 6.43921 25 13.3428 25Z" fill="#373C59"/>
<path d="M20.2465 8.20975C19.7952 8.40422 19.3199 8.53731 18.8333 8.60545C19.0594 8.60545 19.3844 8.16735 19.5399 8.00483C19.7442 7.75837 19.9001 7.47545 19.9992 7.17102C19.9992 7.17102 19.9992 7.1145 19.9992 7.10036C19.9874 7.09354 19.9739 7.08995 19.9603 7.08995C19.9467 7.08995 19.9333 7.09354 19.9214 7.10036C19.4049 7.37369 18.8567 7.58253 18.2892 7.72219C18.2722 7.73286 18.2527 7.73852 18.2327 7.73852C18.2127 7.73852 18.193 7.73286 18.1761 7.72219C18.1327 7.66937 18.0854 7.61977 18.0348 7.57379C17.7999 7.37025 17.5323 7.20781 17.2434 7.0933C16.8592 6.93359 16.443 6.86584 16.028 6.89544C15.6254 6.92478 15.2329 7.03576 14.8746 7.22163C14.5162 7.40749 14.1994 7.66435 13.9435 7.97656C13.6791 8.30312 13.4908 8.68452 13.3923 9.09301C13.3147 9.48015 13.3147 9.87886 13.3923 10.266C13.3923 10.3296 13.3923 10.3367 13.3358 10.3296C11.1778 10.1157 9.17611 9.10848 7.71825 7.50313C7.65465 7.42541 7.6193 7.42541 7.56984 7.50313C7.27276 8.04084 7.15895 8.6607 7.24565 9.26887C7.33234 9.87704 7.61484 10.4404 8.05033 10.8737L8.39657 11.1775C8.02041 11.1445 7.65377 11.0414 7.31547 10.8737C7.24481 10.8313 7.21653 10.8737 7.20946 10.9302C7.19907 11.0359 7.19907 11.1425 7.20946 11.2482C7.27633 11.7544 7.47642 12.2337 7.78928 12.6372C8.10214 13.0407 8.51656 13.3539 8.99014 13.5447C9.10512 13.5971 9.22618 13.6351 9.35052 13.6577C8.99703 13.7133 8.63702 13.7133 8.28353 13.6577C8.2058 13.6577 8.17755 13.6577 8.20581 13.7567C8.38729 14.2334 8.68775 14.6557 9.0786 14.9835C9.46944 15.3112 9.93765 15.5335 10.4387 15.6292C10.5409 15.636 10.6424 15.6501 10.7425 15.6716C10.3089 16.0647 9.78448 16.3439 9.21626 16.4842C8.47389 16.7481 7.68345 16.8493 6.89855 16.781C6.77136 16.781 6.75015 16.781 6.71482 16.781C6.67949 16.781 6.71486 16.8304 6.75019 16.8658C6.90564 16.9647 7.06816 17.0566 7.23068 17.1484C7.72248 17.4111 8.24135 17.6196 8.77817 17.7702C10.1558 18.1815 11.6168 18.2264 13.0171 17.9005C14.4174 17.5746 15.7084 16.8891 16.7629 15.9118C17.5213 15.0882 18.1076 14.1215 18.4874 13.0682C18.8672 12.015 19.0328 10.8965 18.9746 9.77843C18.9746 9.69364 19.0806 9.64417 19.1442 9.59471C19.559 9.27175 19.9255 8.89102 20.2323 8.46413C20.2797 8.40105 20.3046 8.32394 20.303 8.24508C20.303 8.24508 20.303 8.18855 20.2465 8.20975Z" fill="white"/>
</svg>
