<svg width="25" height="25" viewBox="0 0 25 25" fill="none" xmlns="http://www.w3.org/2000/svg">
<path d="M12.5 25C19.4036 25 25 19.4036 25 12.5C25 5.59644 19.4036 0 12.5 0C5.59644 0 0 5.59644 0 12.5C0 19.4036 5.59644 25 12.5 25Z" fill="#373C59"/>
<path d="M19.1918 10.7394C19.1918 9.94296 18.8753 9.1791 18.3122 8.61591C17.749 8.05272 16.9851 7.73633 16.1886 7.73633H8.51483C7.71835 7.73633 6.95447 8.05272 6.39128 8.61591C5.82808 9.1791 5.51172 9.94296 5.51172 10.7394V14.2725C5.51172 15.069 5.82808 15.8328 6.39128 16.396C6.95447 16.9592 7.71835 17.2756 8.51483 17.2756H16.1886C16.9851 17.2756 17.749 16.9592 18.3122 16.396C18.8753 15.8328 19.1918 15.069 19.1918 14.2725V10.7394ZM14.6765 12.7886L11.2353 14.4916C11.101 14.5693 10.6417 14.4916 10.6417 14.3149V10.8172C10.6417 10.6617 11.1081 10.5628 11.2423 10.6405L14.5351 12.4353C14.6765 12.4918 14.8178 12.6897 14.6765 12.7674V12.7886Z" fill="white"/>
</svg>
