<svg width="24" height="24" viewBox="0 0 24 24" fill="none" xmlns="http://www.w3.org/2000/svg">
<g id="Threads" clip-path="url(#clip0_6901_77070)">
<path id="back" d="M0 12C0 5.37258 5.37258 0 12 0C18.6274 0 24 5.37258 24 12C24 18.6274 18.6274 24 12 24C5.37258 24 0 18.6274 0 12Z" fill="#1C1C1C"/>
<path id="Vector" d="M15.894 11.4157C15.8239 11.3827 15.7527 11.3509 15.6806 11.3204C15.555 9.04485 14.2904 7.74208 12.167 7.72875C12.1573 7.72869 12.1478 7.72869 12.1381 7.72869C10.8681 7.72869 9.81175 8.26174 9.16159 9.23173L10.3294 10.0194C10.8151 9.29486 11.5773 9.1404 12.1387 9.1404C12.1452 9.1404 12.1517 9.1404 12.1581 9.14046C12.8573 9.14484 13.3849 9.34472 13.7264 9.7345C13.9749 10.0183 14.1411 10.4104 14.2234 10.9053C13.6035 10.8017 12.9331 10.7699 12.2164 10.8103C10.1975 10.9246 8.89962 12.0823 8.98679 13.691C9.03103 14.507 9.44447 15.209 10.1509 15.6676C10.7482 16.0553 11.5175 16.2448 12.317 16.2019C13.3728 16.145 14.2011 15.7489 14.779 15.0247C15.2179 14.4747 15.4954 13.7619 15.618 12.8638C16.1212 13.1624 16.4941 13.5553 16.7 14.0277C17.0502 14.8306 17.0707 16.15 15.9757 17.2257C15.0164 18.168 13.8632 18.5757 12.1205 18.5883C10.1873 18.5742 8.72526 17.9646 7.77468 16.7764C6.88455 15.6638 6.42452 14.0568 6.40736 12C6.42452 9.94315 6.88455 8.33613 7.77468 7.22356C8.72526 6.03541 10.1873 5.42583 12.1205 5.41171C14.0677 5.42594 15.5552 6.03845 16.5421 7.23233C17.0261 7.8178 17.3909 8.55407 17.6315 9.41253L19 9.05352C18.7084 7.99685 18.2497 7.08631 17.6254 6.33117C16.3601 4.80056 14.5096 4.01626 12.1252 4H12.1157C9.73619 4.01621 7.90639 4.80348 6.67714 6.33994C5.58327 7.7072 5.01902 9.60964 5.00006 11.9944L5 12L5.00006 12.0056C5.01902 14.3903 5.58327 16.2928 6.67714 17.6601C7.90639 19.1965 9.73619 19.9838 12.1157 20H12.1252C14.2407 19.9856 15.7319 19.441 16.9603 18.2343C18.5675 16.6555 18.5191 14.6766 17.9894 13.4618C17.6094 12.5906 16.8848 11.883 15.894 11.4157ZM12.2414 14.7923C11.3566 14.8413 10.4373 14.4508 10.392 13.6143C10.3584 12.9942 10.8409 12.3022 12.2957 12.2197C12.4623 12.2103 12.6258 12.2057 12.7864 12.2057C13.3149 12.2057 13.8092 12.2561 14.2587 12.3528C14.091 14.4113 13.1077 14.7455 12.2414 14.7923Z" fill="white"/>
</g>
<defs>
<clipPath id="clip0_6901_77070">
<rect width="24" height="24" fill="white"/>
</clipPath>
</defs>
</svg>
