<svg width="24" height="24" viewBox="0 0 24 24" fill="none" xmlns="http://www.w3.org/2000/svg">
<path d="M23.5057 6.22892C23.2289 5.20092 22.4184 4.39038 21.3904 4.11361C19.5123 3.59961 11.9999 3.59961 11.9999 3.59961C11.9999 3.59961 4.48762 3.59961 2.60954 4.09384C1.60131 4.37061 0.771002 5.20092 0.494232 6.22892C0 8.107 0 12.0015 0 12.0015C0 12.0015 0 15.9159 0.494232 17.7742C0.771002 18.8022 1.58154 19.6127 2.60954 19.8895C4.50739 20.4035 11.9999 20.4035 11.9999 20.4035C11.9999 20.4035 19.5123 20.4035 21.3904 19.9093C22.4184 19.6325 23.2289 18.8219 23.5057 17.7939C23.9999 15.9159 23.9999 12.0213 23.9999 12.0213C23.9999 12.0213 24.0197 8.107 23.5057 6.22892Z" fill="#FF0000"/>
<path d="M9.60742 15.5993L15.8545 12.0013L9.60742 8.40332V15.5993Z" fill="white"/>
</svg>
