<svg width="256" height="256" viewBox="0 0 256 256" fill="none" xmlns="http://www.w3.org/2000/svg">
<path fill-rule="evenodd" clip-rule="evenodd" d="M65.083 21.3334H190.916C214.979 21.3334 234.666 41.0209 234.666 65.0834V190.917C234.666 214.979 214.979 234.667 190.916 234.667H65.083C41.0205 234.667 21.333 214.979 21.333 190.917V65.0834C21.333 41.0209 41.0205 21.3334 65.083 21.3334Z" fill="#B8BBCF"/>
<path d="M161.904 122.824C161.296 122.532 160.675 122.249 160.046 121.982C158.954 101.832 147.946 90.2948 129.458 90.1782C118.792 90.1073 109.242 94.4573 103.292 103.486L113.458 110.462C117.688 104.045 124.325 102.678 129.213 102.678H129.379C135.467 102.716 140.063 104.487 143.033 107.937C145.196 110.453 146.646 113.924 147.363 118.307C141.963 117.391 136.129 117.107 129.888 117.466C112.313 118.478 101.012 128.728 101.771 142.97C102.154 150.199 105.754 156.412 111.904 160.474C117.104 163.907 123.804 165.587 130.763 165.203C139.958 164.703 147.167 161.195 152.2 154.782C156.021 149.912 158.438 143.599 159.504 135.649C163.883 138.291 167.129 141.77 168.925 145.953C171.971 153.061 172.15 164.745 162.617 174.27C154.267 182.616 144.225 186.224 129.054 186.337C112.221 186.212 99.4917 180.812 91.2167 170.291C83.4667 160.441 79.4625 146.212 79.3125 127.999C79.4625 109.787 83.4667 95.5573 91.2167 85.7073C99.4917 75.1865 112.221 69.7865 129.054 69.6615C146.004 69.7865 158.954 75.2115 167.55 85.7823C171.763 90.9657 174.938 97.4865 177.033 105.086L188.946 101.907C186.408 92.5532 182.417 84.4907 176.979 77.8032C165.963 64.249 149.854 57.3073 129.096 57.1615H129.013C108.296 57.3073 92.3625 64.2782 81.6625 77.8823C72.1375 89.9865 67.225 106.832 67.0625 127.949V128.049C67.225 149.166 72.1375 166.012 81.6625 178.116C92.3625 191.72 108.296 198.695 129.013 198.837H129.096C147.513 198.707 160.496 193.887 171.192 183.199C185.183 169.22 184.763 151.699 180.15 140.941C176.842 133.228 170.533 126.961 161.904 122.824ZM130.104 152.724C122.404 153.157 114.4 149.699 114.004 142.295C113.713 136.803 117.913 130.674 130.579 129.945C132.029 129.862 133.454 129.82 134.85 129.82C139.45 129.82 143.754 130.266 147.667 131.124C146.208 149.349 137.65 152.307 130.104 152.724Z" fill="white"/>
</svg>
