<svg width="256" height="252" viewBox="0 0 256 252" fill="none" xmlns="http://www.w3.org/2000/svg">
<path d="M209.794 231H46.2053C32.4682 231 21.333 220.039 21.333 206.516V45.4836C21.333 31.9612 32.4682 21 46.2053 21H209.792C223.529 21 234.664 31.9612 234.664 45.4836V206.514C234.666 220.039 223.531 231 209.794 231Z" fill="#B8BBCF" stroke="white" stroke-miterlimit="10"/>
<path d="M54.1104 57.5859L111.449 133.056L53.749 194.415H66.7359L117.253 140.693L158.068 194.415H202.26L141.694 114.701L195.401 57.5859H182.414L135.892 107.061L98.3023 57.5859H54.1104ZM73.2082 67.004H93.5098L183.16 184.999H162.858L73.2082 67.004Z" fill="white"/>
</svg>
