<svg width="49" height="48" viewBox="0 0 49 48" fill="none" xmlns="http://www.w3.org/2000/svg">
<path d="M24.0007 47.9998C12.728 47.9998 0.566406 40.9291 0.566406 25.414C0.566406 9.89883 12.728 2.82812 24.0007 2.82812C30.2634 2.82812 36.0412 4.88873 40.324 8.64631C44.9704 12.7675 47.4351 18.5857 47.4351 25.414C47.4351 32.2423 44.9704 38.02 40.324 42.1413C36.0412 45.8988 30.223 47.9998 24.0007 47.9998Z" fill="url(#paint0_radial_5510_42976)"/>
<path d="M43.3508 11.9878C45.5043 15.4625 46.6276 19.5999 46.6276 24.2019C46.6276 31.0302 44.1629 36.808 39.5165 40.9292C35.2336 44.6868 29.4155 46.7878 23.1932 46.7878C15.8963 46.7878 8.24373 43.8181 3.72656 37.5191C8.07404 44.6545 16.2518 47.9999 24.0013 47.9999C30.2235 47.9999 36.0417 45.8989 40.3245 42.1413C44.971 38.0201 47.4357 32.2423 47.4357 25.4141C47.4357 20.2666 46.0336 15.6928 43.3508 11.9878Z" fill="#EB8F00"/>
<path d="M24.1616 0C10.8283 0 0 2.73535 0 6.10909C0 9.48283 6.13333 13.0303 24.1616 13.0303C41.196 13.0303 48.303 9.48687 48.303 6.10909C48.303 2.73131 37.4949 0 24.1616 0ZM24.1616 8.66263C13.8505 8.66263 5.48687 7.85455 5.48687 5.86667C5.48687 3.87879 13.8505 1.82626 24.1616 1.82626C34.4727 1.82626 42.8364 3.89495 42.8364 5.88687C42.8364 7.87879 34.4566 8.66263 24.1616 8.66263Z" fill="#4FC3F7"/>
<path d="M23.7588 37.0143C20.0942 37.0426 16.5952 35.5032 14.1427 32.78C13.9568 32.5659 13.9124 32.2628 14.0296 32.0042C14.1467 31.7416 14.4053 31.5719 14.6922 31.5679C14.8215 31.5679 14.9508 31.6042 15.0639 31.6689C17.0114 32.7881 20.2679 34.178 23.7588 34.178H23.8154C27.3023 34.178 30.5629 32.7881 32.5063 31.6689C32.6195 31.6042 32.7487 31.5679 32.878 31.5679C33.1649 31.5719 33.4235 31.7416 33.5407 32.0042C33.6619 32.2628 33.6174 32.5659 33.4275 32.78C30.975 35.5032 27.4679 37.0467 23.8033 37.0143" fill="#422B0D"/>
<path d="M18.1012 22.9861L18.0406 22.9053L17.8668 22.6831L17.6527 22.4528C17.5638 22.3518 17.4588 22.2548 17.3578 22.1498C17.2567 22.0447 17.1315 21.9437 17.0184 21.8589C16.9133 21.7781 16.8002 21.7013 16.679 21.6407C16.5982 21.5962 16.5093 21.5599 16.4163 21.5397C16.3881 21.5356 16.3598 21.5356 16.3315 21.5397C16.3315 21.5397 16.3073 21.5397 16.2951 21.5397H16.2628H16.3719H16.1497C16.0891 21.5397 16.1295 21.5397 16.1497 21.5397H16.182H16.1376C16.0446 21.5599 15.9557 21.5922 15.8709 21.6407C15.7537 21.7053 15.6365 21.7781 15.5315 21.8589C15.4143 21.9477 15.3012 22.0447 15.1961 22.1498C14.982 22.3558 14.7921 22.5538 14.6709 22.7114L14.4608 22.9538L14.3679 23.0629C13.786 23.7134 12.8042 23.8185 12.0972 23.3094C11.6446 22.9942 11.4143 22.4488 11.5032 21.9033C11.5032 21.9033 11.5315 21.7417 11.6083 21.4548C11.7295 21.0467 11.8992 20.6508 12.1133 20.2791C12.4567 19.673 12.9214 19.1437 13.479 18.7235C13.8466 18.4407 14.2547 18.2144 14.6911 18.0568C14.8123 18.0084 14.9376 17.972 15.0628 17.9397C15.1961 17.8993 15.3295 17.871 15.4668 17.8467L15.7133 17.8104L15.9194 17.7861H16.1416H16.4608H16.6668C16.8042 17.7861 16.9376 17.8225 17.0709 17.8427C17.3295 17.8871 17.5881 17.9558 17.8345 18.0488C18.2709 18.2063 18.679 18.4326 19.0466 18.7154C19.6042 19.1356 20.0689 19.6649 20.4123 20.271C20.5376 20.4811 20.6466 20.7033 20.7355 20.9296C20.8123 21.1114 20.8769 21.2932 20.9295 21.4831C20.9578 21.5801 20.982 21.677 20.9941 21.774V21.875C21.1153 22.6993 20.5416 23.4669 19.7174 23.5882C19.6972 23.5922 19.6769 23.5922 19.6567 23.5962C19.0668 23.6811 18.4769 23.4467 18.1012 22.9861Z" fill="#422B0D"/>
<path d="M34.0466 22.9861L33.982 22.9053L33.8083 22.6831L33.5941 22.4528C33.5052 22.3518 33.4002 22.2548 33.2992 22.1498C33.1982 22.0447 33.0729 21.9437 32.9598 21.8589C32.8547 21.7781 32.7416 21.7013 32.6204 21.6407C32.5396 21.5962 32.4507 21.5599 32.3577 21.5397C32.3295 21.5356 32.3012 21.5356 32.2729 21.5397C32.2729 21.5397 32.2487 21.5397 32.2365 21.5397H32.2042H32.3133H32.0911C32.0305 21.5397 32.0709 21.5397 32.0911 21.5397H32.1234H32.079C31.986 21.5599 31.8971 21.5922 31.8123 21.6407C31.6951 21.7013 31.582 21.7781 31.4769 21.8589C31.3557 21.9477 31.2426 22.0447 31.1375 22.1498C30.9234 22.3558 30.7335 22.5538 30.6123 22.7114L30.4022 22.9538L30.3133 23.0629C29.7274 23.7134 28.7497 23.8185 28.0386 23.3094C27.586 22.9942 27.3557 22.4488 27.4446 21.9033C27.4446 21.9033 27.4729 21.7417 27.5537 21.4548C27.6749 21.0427 27.8406 20.6467 28.0588 20.2791C28.4022 19.673 28.8628 19.1437 29.4204 18.7235C29.7881 18.4407 30.1961 18.2144 30.6325 18.0568C30.7537 18.0084 30.879 17.972 31.0042 17.9397C31.1375 17.8993 31.2709 17.871 31.4083 17.8467L31.6588 17.8104L31.8608 17.7861H32.083H32.4022H32.6083C32.7456 17.7861 32.879 17.8225 33.0123 17.8427C33.2749 17.8871 33.5295 17.9558 33.7759 18.0488C34.2123 18.2063 34.6204 18.4326 34.9881 18.7154C35.5456 19.1356 36.0103 19.6649 36.3537 20.271C36.479 20.4811 36.5881 20.7033 36.6769 20.9296C36.7537 21.1073 36.8184 21.2892 36.8709 21.475C36.8992 21.572 36.9234 21.669 36.9355 21.7659V21.8669C37.0648 22.6912 36.4992 23.4629 35.6749 23.5922C35.6628 23.5922 35.6507 23.5962 35.6386 23.5962C35.0365 23.6972 34.4264 23.4629 34.0466 22.9861Z" fill="#422B0D"/>
<defs>
<radialGradient id="paint0_radial_5510_42976" cx="0" cy="0" r="1" gradientUnits="userSpaceOnUse" gradientTransform="translate(24.0007 25.4139) scale(23.014 23.014)">
<stop offset="0.5" stop-color="#FDE030"/>
<stop offset="0.92" stop-color="#F7C02B"/>
<stop offset="1" stop-color="#F4A223"/>
</radialGradient>
</defs>
</svg>
