<svg width="51" height="48" viewBox="0 0 51 48" fill="none" xmlns="http://www.w3.org/2000/svg">
<path d="M25.179 48C13.2004 48 0.277344 40.4866 0.277344 24C0.277344 7.51342 13.2004 0 25.179 0C31.8337 0 37.9732 2.18962 42.5242 6.18247C47.4616 10.5617 50.0806 16.7442 50.0806 24C50.0806 31.2558 47.4616 37.3954 42.5242 41.7746C37.9732 45.7674 31.7908 48 25.179 48Z" fill="url(#paint0_radial_5510_43061)"/>
<path d="M45.738 9.73291C48.0264 13.4252 49.2199 17.8216 49.2199 22.7118C49.2199 29.9676 46.601 36.1072 41.6636 40.4864C37.1126 44.4792 30.9301 46.7118 24.3183 46.7118C16.5645 46.7118 8.41564 43.5562 3.63281 36.8628C8.25249 44.4449 16.938 47.9998 25.177 47.9998C31.7888 47.9998 37.9713 45.7673 42.5223 41.7744C47.4596 37.3952 50.0786 31.2556 50.0786 23.9998C50.0786 18.53 48.5888 13.6699 45.738 9.73291Z" fill="#EB8F00"/>
<path opacity="0.8" d="M9.57201 34.4887C13.7216 34.4887 17.0854 31.1249 17.0854 26.9753C17.0854 22.8258 13.7216 19.4619 9.57201 19.4619C5.42247 19.4619 2.05859 22.8258 2.05859 26.9753C2.05859 31.1249 5.42247 34.4887 9.57201 34.4887Z" fill="url(#paint1_radial_5510_43061)"/>
<path opacity="0.8" d="M41.1267 34.4887C45.2762 34.4887 48.6401 31.1249 48.6401 26.9753C48.6401 22.8258 45.2762 19.4619 41.1267 19.4619C36.9772 19.4619 33.6133 22.8258 33.6133 26.9753C33.6133 31.1249 36.9772 34.4887 41.1267 34.4887Z" fill="url(#paint2_radial_5510_43061)"/>
<path d="M18.1238 12.2832C19.1156 12.2961 19.4032 10.9394 18.3514 10.7161C17.5657 10.5573 16.7027 10.5358 15.8483 10.6431C13.4569 10.905 11.3961 12.1372 10.0523 13.743C9.38249 14.5673 10.4773 15.4345 11.2072 14.8206C13.0748 13.305 15.5392 12.3047 18.1238 12.2832Z" fill="#422B0D"/>
<path d="M32.2301 12.5752C31.2469 12.6868 30.8261 11.3645 31.8479 11.0382C32.6165 10.8063 33.4708 10.699 34.3295 10.7205C36.7338 10.7462 38.9063 11.768 40.4047 13.2364C41.1517 13.992 40.1471 14.9623 39.3614 14.4214C37.3521 13.0947 34.8018 12.3434 32.2301 12.5752Z" fill="#422B0D"/>
<path d="M25.3453 38.297C29.9821 38.297 32.9875 34.9052 33.8032 33.3167C34.1038 32.7156 34.1038 32.2004 33.8462 31.9857C33.6315 31.814 33.331 31.814 32.9446 31.9857C32.8158 32.0287 32.687 32.1145 32.5582 32.2004C30.4973 33.6602 27.9643 34.5618 25.3453 34.5618C22.7263 34.5618 20.1932 33.6602 18.1324 32.2433C18.0036 32.1575 17.8748 32.0716 17.746 32.0287C17.3596 31.8569 17.0591 31.8569 16.8444 32.0287C16.5868 32.2863 16.5868 32.7585 16.8873 33.3596C17.7031 34.9052 20.7084 38.297 25.3453 38.297Z" fill="#422B0D"/>
<path d="M20.0241 23.3686L19.9382 23.2828C19.8953 23.2398 19.7665 23.111 19.7235 23.0681C19.6377 22.9822 19.5518 22.9393 19.423 22.8105C19.2942 22.7246 19.1654 22.5958 18.9937 22.51C18.8219 22.4241 18.6502 22.2953 18.4785 22.2094C18.3067 22.1236 18.0921 22.0377 17.8774 21.9518C17.6627 21.866 17.4481 21.823 17.2334 21.7801C17.0187 21.7372 16.804 21.7372 16.5464 21.7372H16.4606H16.3318C16.203 21.7372 16.203 21.7372 16.16 21.7372C16.0742 21.7372 15.9454 21.7801 15.8595 21.7801C15.6448 21.823 15.4302 21.866 15.2155 21.9518C15.0008 22.0377 14.7862 22.0806 14.6144 22.2094C14.4427 22.2953 14.271 22.3812 14.0992 22.51C13.7987 22.7246 13.5411 22.9393 13.3693 23.0681C13.1976 23.2398 13.1117 23.3257 13.1117 23.3257L13.0259 23.4116C12.5107 23.9268 11.652 23.9268 11.0509 23.4974C10.6216 23.154 10.4928 22.5529 10.7074 22.1236L10.7504 21.9948C10.7933 21.9089 10.8362 21.7801 10.9221 21.6513C11.0938 21.3508 11.3944 20.9214 11.8667 20.4491C12.0813 20.2345 12.3819 19.9769 12.6824 19.7622C12.9829 19.5475 13.3693 19.3329 13.7557 19.1611C14.1421 18.9894 14.6144 18.8177 15.0438 18.7318C15.2584 18.6889 15.516 18.6459 15.7736 18.603C15.9024 18.603 16.0742 18.5601 16.1171 18.5601H16.4606C16.9328 18.5601 17.4051 18.603 17.8774 18.6889C18.3497 18.7747 18.779 18.9465 19.1654 19.1182C19.5518 19.2899 19.9382 19.5046 20.2388 19.7193C20.5822 19.9339 20.8398 20.1486 21.0545 20.4062C21.2692 20.6209 21.4838 20.8356 21.6126 21.0502C21.6985 21.1361 21.7414 21.2649 21.8273 21.3508C21.8702 21.4366 21.9561 21.5225 21.999 21.6084C22.1278 21.7801 22.1278 21.866 22.1708 21.9518C22.2137 22.0377 22.2137 22.0377 22.2137 22.0377C22.5142 22.6817 22.1708 23.4116 21.4409 23.6692C21.0545 23.8839 20.4105 23.755 20.0241 23.3686Z" fill="#422B0D"/>
<path d="M37.5849 23.2139C37.5849 23.2139 37.5549 23.1838 37.4991 23.128C37.4518 23.0808 37.3445 22.9606 37.2801 22.9134C37.1985 22.8447 37.0998 22.7631 36.9839 22.6686C36.8594 22.5742 36.7177 22.4711 36.5631 22.3638C36.4043 22.2651 36.2325 22.162 36.0479 22.0719C35.8676 21.9731 35.6615 21.9044 35.4554 21.8271C35.2493 21.7541 35.0304 21.7155 34.8114 21.6683C34.5925 21.6339 34.3649 21.6168 34.1374 21.6168H34.1975H34.1932H34.1846H34.1674H34.1331H34.0644L33.9313 21.6211C33.8196 21.6211 33.8025 21.6296 33.7595 21.6339C33.6908 21.6339 33.5663 21.6554 33.459 21.6726C33.24 21.7198 33.0211 21.7584 32.815 21.8314C32.6132 21.9087 32.4071 21.9774 32.2268 22.0761C32.0422 22.1706 31.8704 22.2693 31.7116 22.3681C31.4025 22.5742 31.1492 22.7803 30.9817 22.9348C30.81 23.0894 30.7112 23.1838 30.7112 23.1838L30.6039 23.2912C30.0844 23.7935 29.2086 23.8236 28.6418 23.3642C28.1953 22.9992 28.0837 22.4368 28.3069 21.9688C28.3069 21.9688 28.3284 21.9259 28.3713 21.84C28.4143 21.7584 28.4658 21.6296 28.5602 21.4794C28.7363 21.1745 29.0282 20.7452 29.4919 20.2944C29.7238 20.0711 29.9942 19.835 30.3162 19.6203C30.6297 19.3971 30.9946 19.1953 31.3982 19.0193C31.8018 18.8475 32.2397 18.6973 32.7034 18.6028C32.9395 18.5599 33.1585 18.5169 33.4461 18.4912C33.5792 18.4783 33.7381 18.4654 33.8068 18.4611L34.1374 18.4482C34.6225 18.4568 35.1034 18.5083 35.5713 18.5985C36.035 18.693 36.473 18.8432 36.8765 19.015C37.2758 19.191 37.645 19.3928 37.9585 19.616C38.2805 19.8307 38.5467 20.0626 38.7785 20.2901C39.0103 20.5134 39.195 20.7366 39.3495 20.9384C39.4225 21.0414 39.4912 21.1359 39.5556 21.2261C39.6157 21.3248 39.6758 21.415 39.723 21.4965C39.839 21.6769 39.8475 21.7456 39.8905 21.8271C39.9205 21.8958 39.9377 21.9345 39.9377 21.9345C40.2254 22.5742 39.8776 23.2998 39.1606 23.5574C38.5982 23.7592 37.967 23.6046 37.5849 23.2139Z" fill="#422B0D"/>
<defs>
<radialGradient id="paint0_radial_5510_43061" cx="0" cy="0" r="1" gradientUnits="userSpaceOnUse" gradientTransform="translate(25.179 24) scale(24.455 24.455)">
<stop offset="0.5" stop-color="#FDE030"/>
<stop offset="0.9188" stop-color="#F7C02B"/>
<stop offset="1" stop-color="#F4A223"/>
</radialGradient>
<radialGradient id="paint1_radial_5510_43061" cx="0" cy="0" r="1" gradientUnits="userSpaceOnUse" gradientTransform="translate(9.57225 26.9748) scale(8.17374 7.76468)">
<stop stop-color="#ED7770"/>
<stop offset="0.9" stop-color="#ED7770" stop-opacity="0"/>
</radialGradient>
<radialGradient id="paint2_radial_5510_43061" cx="0" cy="0" r="1" gradientUnits="userSpaceOnUse" gradientTransform="translate(41.1277 26.9748) scale(8.17374 7.76468)">
<stop stop-color="#ED7770"/>
<stop offset="0.9" stop-color="#ED7770" stop-opacity="0"/>
</radialGradient>
</defs>
</svg>
