<svg width="52" height="48" viewBox="0 0 52 48" fill="none" xmlns="http://www.w3.org/2000/svg">
<path d="M25.7805 48C13.802 48 0.878906 40.4866 0.878906 24C0.878906 7.51342 13.802 0 25.7805 0C32.4353 0 38.5748 2.18962 43.1258 6.18247C48.0632 10.5617 50.6821 16.7442 50.6821 24C50.6821 31.2558 48.0632 37.3954 43.1258 41.7746C38.5748 45.7674 32.3923 48 25.7805 48Z" fill="url(#paint0_radial_5510_43209)"/>
<path d="M46.3396 9.7334C48.6279 13.4257 49.8215 17.8221 49.8215 22.7123C49.8215 29.9681 47.2025 36.1076 42.2651 40.4869C37.7142 44.4797 31.5317 46.7123 24.9199 46.7123C17.166 46.7123 9.03438 43.5567 4.23438 36.8633C8.85405 44.4454 17.5439 48.0003 25.7786 48.0003C32.3904 48.0003 38.5728 45.7677 43.1238 41.7749C48.0612 37.3957 50.6802 31.2561 50.6802 24.0003C50.6802 18.5305 49.1904 13.6704 46.3396 9.7334Z" fill="#EB8F00"/>
<path d="M25.9513 37.2708C21.0096 37.2708 17.4805 34.6948 16.42 33.0891C16.0207 32.5696 15.9391 31.874 16.2053 31.2773C16.4071 30.8951 16.8064 30.659 17.24 30.6719C17.3989 30.6719 17.5577 30.6976 17.708 30.7449C20.3828 31.552 23.1606 31.9556 25.9513 31.9384C28.742 31.9556 31.5241 31.552 34.1946 30.7449C34.3449 30.6976 34.5037 30.6719 34.6626 30.6719C35.0962 30.659 35.4955 30.8951 35.6973 31.2773C35.9635 31.874 35.8819 32.5696 35.4826 33.0891C34.4221 34.7034 30.893 37.2708 25.9513 37.2708Z" fill="#422B0D"/>
<path d="M51.7096 16.4952C51.7096 16.4952 49.8806 16.5338 49.8806 17.9978C49.8806 21.6129 49.9236 29.371 40.4352 29.371C32.8531 29.371 29.2338 25.4554 28.6241 21.132C28.3751 19.3331 27.7654 17.3753 25.9322 17.3753C24.0989 17.3753 23.5064 19.3202 23.2574 21.132C22.6477 25.4554 19.0284 29.371 11.4463 29.371C1.97509 29.371 2.00086 21.6129 2.00086 17.9978C2.00086 16.5338 0.171875 16.4952 0.171875 16.4952V12.9145C3.11284 12.5281 6.07527 12.3477 9.03771 12.3735C14.3958 12.3735 16.5297 12.3735 20.793 12.8028C23.3132 13.0519 25.945 13.0819 25.945 13.0819C25.945 13.0819 28.564 13.0519 31.0971 12.8028C35.3604 12.3735 37.4942 12.3735 42.8524 12.3735C45.8148 12.3477 48.7729 12.5324 51.7096 12.9145V16.4952Z" fill="#422B0D"/>
<path d="M7.53729 19.3201C7.49435 20.007 7.21958 20.6425 6.54552 20.7713C6.46824 20.7841 6.39525 20.7927 6.31797 20.7927C5.7126 20.7884 5.1931 20.3505 5.09865 19.7494C4.83675 18.5645 5.12441 17.3237 5.88004 16.3748C6.57557 15.5333 7.61457 15.0482 8.70509 15.0525C9.35339 14.9924 9.9287 15.4689 9.98881 16.1172C9.98881 16.1301 9.9931 16.143 9.9931 16.1602C9.9931 16.9673 9.3491 17.3108 8.70509 17.5341C8.00097 17.8518 7.54588 18.5473 7.53729 19.3201Z" fill="#896024"/>
<path d="M34.8349 19.3201C34.7963 20.007 34.5172 20.6425 33.8475 20.7713C33.7702 20.7841 33.6929 20.7927 33.6156 20.7927C33.006 20.7927 32.4865 20.3505 32.3877 19.7494C32.1258 18.5645 32.4135 17.3237 33.1691 16.3748C33.8689 15.5333 34.9036 15.0482 35.9984 15.0525C36.6467 14.9924 37.2221 15.4689 37.2822 16.1172C37.2822 16.1301 37.2865 16.143 37.2865 16.1602C37.2865 16.9673 36.6425 17.3108 35.9984 17.5341C35.2986 17.8518 34.8435 18.5473 34.8349 19.3201Z" fill="#896024"/>
<defs>
<radialGradient id="paint0_radial_5510_43209" cx="0" cy="0" r="1" gradientUnits="userSpaceOnUse" gradientTransform="translate(25.7805 24) scale(24.455)">
<stop offset="0.5" stop-color="#FDE030"/>
<stop offset="0.92" stop-color="#F7C02B"/>
<stop offset="1" stop-color="#F4A223"/>
</radialGradient>
</defs>
</svg>
