<svg width="47" height="48" viewBox="0 0 47 48" fill="none" xmlns="http://www.w3.org/2000/svg">
<path d="M23.395 45.0958C12.1412 45.0958 0 38.037 0 22.5479C0 7.05882 12.1412 0 23.395 0C29.6471 0 35.4151 2.05714 39.6908 5.8084C44.3294 9.92269 46.7899 15.7311 46.7899 22.5479C46.7899 29.3647 44.3294 35.1328 39.6908 39.2471C35.4151 42.9983 29.6067 45.0958 23.395 45.0958Z" fill="url(#paint0_radial_5510_43037)"/>
<path d="M42.71 9.14404C44.8599 12.613 45.9813 16.7434 45.9813 21.3377C45.9813 28.1545 43.5207 33.9225 38.8821 38.0368C34.6065 41.7881 28.7981 43.8856 22.5863 43.8856C15.3016 43.8856 7.66192 40.9209 3.15234 34.6324C7.49251 41.7558 15.6565 45.0956 23.393 45.0956C29.6048 45.0956 35.4132 42.9982 39.6888 39.2469C44.3275 35.1326 46.788 29.3645 46.788 22.5477C46.788 17.4089 45.3883 12.8429 42.71 9.14404Z" fill="#EB8F00"/>
<mask id="mask0_5510_43037" style="mask-type:luminance" maskUnits="userSpaceOnUse" x="9" y="22" width="31" height="19">
<path d="M24.6881 28.0335C20.2955 29.5502 15.7738 30.6594 11.1755 31.3411C10.401 31.4419 9.8565 32.1559 9.95734 32.9303C9.98154 33.1078 10.038 33.2812 10.1267 33.4386C13.4343 39.1663 21.1788 42.1512 28.6007 39.6503C36.7486 36.9075 40.4595 29.889 39.5721 23.4755C39.4632 22.7091 38.7533 22.1767 37.9909 22.2856C37.8094 22.3098 37.636 22.3744 37.4746 22.4671C33.3846 24.6937 29.1049 26.5532 24.6881 28.0335Z" fill="white"/>
</mask>
<g mask="url(#mask0_5510_43037)">
<path d="M24.6881 28.0335C20.2955 29.5502 15.7738 30.6594 11.1755 31.3411C10.401 31.4419 9.8565 32.1559 9.95734 32.9303C9.98154 33.1078 10.038 33.2812 10.1267 33.4386C13.4343 39.1663 21.1788 42.1512 28.6007 39.6503C36.7486 36.9075 40.4595 29.889 39.5721 23.4755C39.4632 22.7091 38.7533 22.1767 37.9909 22.2856C37.8094 22.3098 37.636 22.3744 37.4746 22.4671C33.3846 24.6937 29.1049 26.5532 24.6881 28.0335Z" fill="url(#paint1_linear_5510_43037)"/>
</g>
<path d="M30.1728 6.41357C34.1822 6.44988 37.4051 9.72921 37.3688 13.7386C37.3446 16.6388 35.59 19.2485 32.9157 20.3699C32.0444 20.7248 31.1127 20.9023 30.1728 20.8942C26.1634 20.8579 22.9406 17.5786 22.9769 13.5692C23.0011 10.669 24.7557 8.05929 27.43 6.93794C28.3012 6.59105 29.233 6.41357 30.1728 6.41357Z" fill="white"/>
<path d="M30.1712 16.5377C31.7306 16.5377 32.9947 15.2735 32.9947 13.7142C32.9947 12.1548 31.7306 10.8906 30.1712 10.8906C28.6118 10.8906 27.3477 12.1548 27.3477 13.7142C27.3477 15.2735 28.6118 16.5377 30.1712 16.5377Z" fill="#422B0D"/>
<path d="M12.2209 15.2388C9.52242 15.2347 7.33216 17.421 7.32813 20.1154C7.3241 22.8139 9.51031 25.0042 12.2088 25.0082C14.9073 25.0122 17.0975 22.826 17.1016 20.1315C17.1016 19.5023 16.9806 18.8771 16.7466 18.2922C15.9964 16.4489 14.2095 15.2428 12.2209 15.2388Z" fill="white"/>
<path d="M12.261 22.9918C13.8204 22.9918 15.0846 21.7276 15.0846 20.1683C15.0846 18.6089 13.8204 17.3447 12.261 17.3447C10.7016 17.3447 9.4375 18.6089 9.4375 20.1683C9.4375 21.7276 10.7016 22.9918 12.261 22.9918Z" fill="#422B0D"/>
<path d="M15.7891 33.8218V41.0823C15.7931 44.9021 18.8949 47.9999 22.7148 47.9999H24.0338C27.8576 47.9999 30.9595 44.8981 30.9595 41.0742L30.8627 29.4453L15.7891 33.8218Z" fill="#FF4081"/>
<path d="M30.8506 27.7959L15.7891 32.3095V33.8221L30.8627 29.4255L30.8506 27.7959Z" fill="#FF4081"/>
<path opacity="0.3" d="M23.3731 40.0335C23.8168 40.0335 24.1799 39.6704 24.1799 39.2267V29.7881L22.5664 30.2479V39.2267C22.5664 39.6704 22.9294 40.0335 23.3731 40.0335Z" fill="#AB3F2E"/>
<path opacity="0.3" d="M30.8467 27.7954L15.7852 32.309V33.8216L30.8588 29.425L30.8467 27.7954Z" fill="#AB3F2E"/>
<defs>
<radialGradient id="paint0_radial_5510_43037" cx="0" cy="0" r="1" gradientUnits="userSpaceOnUse" gradientTransform="translate(23.395 22.5479) scale(22.9753)">
<stop offset="0.5" stop-color="#FDE030"/>
<stop offset="0.92" stop-color="#F7C02B"/>
<stop offset="1" stop-color="#F4A223"/>
</radialGradient>
<linearGradient id="paint1_linear_5510_43037" x1="9.94491" y1="31.4067" x2="39.7007" y2="31.4067" gradientUnits="userSpaceOnUse">
<stop stop-color="#404040"/>
<stop offset="0.12" stop-color="#3E3A35"/>
<stop offset="0.44" stop-color="#392D1E"/>
<stop offset="0.74" stop-color="#362510"/>
<stop offset="1" stop-color="#35220B"/>
</linearGradient>
</defs>
</svg>
