<svg width="51" height="48" viewBox="0 0 51 48" fill="none" xmlns="http://www.w3.org/2000/svg">
<path d="M25.3782 48C13.3996 48 0.476562 40.4866 0.476562 24C0.476562 7.51342 13.3996 0 25.3782 0C32.0329 0 38.1724 2.18962 42.7234 6.18247C47.6608 10.5617 50.2798 16.7442 50.2798 24C50.2798 31.2558 47.6608 37.3954 42.7234 41.7746C38.1639 45.7674 31.99 48 25.3782 48Z" fill="url(#paint0_radial_5510_43019)"/>
<path d="M17.1261 14.5718C15.3272 14.5718 13.6914 16.0916 13.6914 18.6161C13.6914 21.1407 15.3272 22.6562 17.1261 22.6562C18.9293 22.6562 20.5608 21.1364 20.5608 18.6161C20.5608 16.0959 18.9465 14.5718 17.1261 14.5718Z" fill="#422B0D"/>
<path d="M16.9746 16.259C16.3649 15.967 15.6307 16.2246 15.3345 16.8343C15.107 17.3109 15.21 17.8819 15.5921 18.2511C16.2018 18.5431 16.9359 18.2855 17.2322 17.6758C17.4597 17.1992 17.3567 16.6282 16.9746 16.259Z" fill="#896024"/>
<path d="M33.6105 14.5718C31.8116 14.5718 30.1758 16.0916 30.1758 18.6161C30.1758 21.1407 31.8116 22.6562 33.6105 22.6562C35.4094 22.6562 37.0452 21.1364 37.0452 18.6161C37.0452 16.0959 35.4094 14.5718 33.6105 14.5718Z" fill="#422B0D"/>
<path d="M33.4394 16.259C32.8298 15.967 32.0956 16.2246 31.7993 16.8343C31.5718 17.3109 31.6748 17.8819 32.0569 18.2511C32.6666 18.5431 33.4008 18.2855 33.697 17.6758C33.9246 17.1992 33.8215 16.6282 33.4394 16.259Z" fill="#896024"/>
<path d="M46.1013 9.7334C48.3896 13.4257 49.5832 17.8221 49.5832 22.7123C49.5832 29.9681 46.9642 36.1076 42.0269 40.4869C37.4759 44.4797 31.2934 46.7123 24.6816 46.7123C16.9278 46.7123 8.79609 43.5567 3.99609 36.8633C8.61577 44.4454 17.3056 48.0003 25.5403 48.0003C32.1521 48.0003 38.3346 45.7677 42.8855 41.7749C47.8229 37.3957 50.4419 31.2561 50.4419 24.0003C50.4419 18.5305 48.9521 13.6704 46.1013 9.7334Z" fill="#EB8F00"/>
<path d="M42.0556 27.7439C41.4546 26.6577 40.1494 26.1811 38.9902 26.619C34.5851 27.9027 30.017 28.5425 25.4274 28.521C20.8377 28.5425 16.2696 27.9027 11.8646 26.619C10.7097 26.1811 9.40447 26.6534 8.80339 27.7353C8.21949 28.8129 8.64024 30.0623 9.13398 31.14C11.8903 37.1936 17.9655 40.8172 25.393 40.8387H25.4617C32.8893 40.8387 38.9644 37.1936 41.725 31.14C42.2145 30.0537 42.6395 28.8215 42.0556 27.7439Z" fill="#422B0D"/>
<path d="M32.3013 39.1299C32.1424 38.984 31.9792 38.8509 31.8161 38.7006C30.0644 37.1593 27.7975 36.3307 25.4619 36.3779C23.0576 36.3392 20.7177 37.1378 18.8415 38.6405C18.6784 38.7736 18.5066 38.9024 18.3478 39.0698C18.1889 39.2373 18.103 39.3575 18 39.4992C20.3614 40.4223 22.8773 40.8945 25.4147 40.8816H25.4834C27.9134 40.8816 30.322 40.448 32.5975 39.5936C32.5116 39.4305 32.4129 39.2759 32.3013 39.1299Z" fill="#ED7770"/>
<path d="M38.9936 26.6189C34.5886 27.9026 30.0205 28.5423 25.4308 28.5209C20.8412 28.5423 16.2731 27.9026 11.8681 26.6189C10.7131 26.181 9.40794 26.6532 8.80687 27.7352C8.721 27.8983 8.65231 28.07 8.60938 28.2461C8.75106 28.3191 8.9142 28.392 9.10741 28.4693C14.2766 31.0582 19.9911 32.372 25.77 32.3033C31.3128 32.3677 36.7911 31.1613 41.7972 28.7827C41.999 28.6969 42.1664 28.6153 42.3167 28.538C42.2824 28.259 42.1922 27.9842 42.0591 27.7352C41.458 26.6532 40.1528 26.1767 38.9936 26.6189Z" fill="white"/>
<path d="M42.0728 27.7482C41.4631 26.662 40.1537 26.1811 38.9859 26.619C34.5809 27.9027 30.0127 28.5425 25.4274 28.521C20.8377 28.5425 16.2696 27.9027 11.8646 26.619C10.7097 26.1811 9.40447 26.6534 8.80339 27.7353C8.21949 28.8129 8.64024 30.0623 9.13398 31.14C9.35294 31.6251 9.59767 32.1017 9.86815 32.5611C9.86815 32.5611 8.96654 29.2208 9.74794 28.2505C10.0141 27.8383 10.4606 27.5807 10.9501 27.555C11.1519 27.555 11.3494 27.5893 11.5426 27.6494C16.0249 28.9675 20.6746 29.633 25.3501 29.6244H25.5003C30.1758 29.633 34.8256 28.9675 39.3079 27.6494C39.5011 27.5893 39.6986 27.555 39.9004 27.555C40.3898 27.5807 40.8406 27.8383 41.1068 28.2505C41.9011 29.2208 40.9866 32.5739 40.9866 32.5739C41.2528 32.1146 41.519 31.6423 41.7422 31.1528C42.2317 30.0752 42.6567 28.8301 42.0728 27.7482Z" fill="#EB8F00"/>
<defs>
<radialGradient id="paint0_radial_5510_43019" cx="0" cy="0" r="1" gradientUnits="userSpaceOnUse" gradientTransform="translate(25.3782 24) scale(24.455 24.455)">
<stop offset="0.5" stop-color="#FDE030"/>
<stop offset="0.92" stop-color="#F7C02B"/>
<stop offset="1" stop-color="#F4A223"/>
</radialGradient>
</defs>
</svg>
