<svg width="51" height="48" viewBox="0 0 51 48" fill="none" xmlns="http://www.w3.org/2000/svg">
<path d="M25.1516 48C13.1731 48 0.25 40.4866 0.25 24C0.25 7.51342 13.1731 0 25.1516 0C31.8064 0 37.9459 2.18962 42.4969 6.18247C47.4343 10.5617 50.0532 16.7442 50.0532 24C50.0532 31.2558 47.4343 37.3954 42.4969 41.7746C37.9459 45.7674 31.7634 48 25.1516 48Z" fill="url(#paint0_radial_5510_43188)"/>
<path d="M45.7107 9.7334C47.999 13.4257 49.1926 17.8221 49.1926 22.7123C49.1926 29.9681 46.5736 36.1076 41.6362 40.4869C37.0853 44.4797 30.9028 46.7123 24.291 46.7123C16.5371 46.7123 8.40547 43.5567 3.60547 36.8633C8.22515 44.4454 16.9149 48.0003 25.1497 48.0003C31.7615 48.0003 37.9439 45.7677 42.4949 41.7749C47.4323 37.3957 50.0513 31.2561 50.0513 24.0003C50.0513 18.5305 48.5615 13.6704 45.7107 9.7334Z" fill="#EB8F00"/>
<path d="M39.0276 4.34939L35.5671 8.94331C35.3954 9.16657 35.1292 9.29537 34.8458 9.28249L29.1013 9.03776C28.629 9.0163 28.2255 9.38553 28.204 9.8578C28.1954 10.0467 28.2512 10.2313 28.3585 10.3859L31.6602 15.1086C31.819 15.3362 31.8577 15.6238 31.7632 15.8857L29.7539 21.2782C29.5907 21.7247 29.8183 22.2184 30.2605 22.3816C30.4365 22.446 30.6255 22.4503 30.8058 22.3988L36.3056 20.7158C36.5761 20.6342 36.868 20.69 37.0913 20.866L41.595 24.4424C41.9686 24.7344 42.5052 24.6743 42.8015 24.3007C42.9174 24.1505 42.9818 23.9701 42.9861 23.7812L43.0848 18.0324C43.0891 17.749 43.2351 17.4871 43.4712 17.3326L48.2627 14.1684C48.6577 13.9065 48.7693 13.3741 48.5074 12.9791C48.4043 12.8202 48.2498 12.7 48.0695 12.6399L42.6297 10.768C42.355 10.6778 42.1446 10.4546 42.0673 10.1755L40.5389 4.63276C40.4101 4.17766 39.9335 3.91147 39.4784 4.04027C39.2981 4.09179 39.1392 4.19912 39.0276 4.34939Z" fill="url(#paint1_radial_5510_43188)"/>
<path d="M40.7011 4.24609L41.9892 10.2225C42.0879 10.6819 42.4271 11.0511 42.8779 11.1842L48.6224 12.9015C49.0518 13.0561 49.275 13.5284 49.1205 13.9577C49.0604 14.1295 48.9444 14.2711 48.7899 14.3699L43.6378 17.1692C43.2042 17.3881 42.9294 17.8346 42.9294 18.3198L42.9809 24.5838C42.968 25.0346 42.5902 25.391 42.1351 25.3781C41.9548 25.3738 41.7788 25.3094 41.6414 25.1935L37.1419 21.1534C36.7942 20.8357 36.3004 20.737 35.8539 20.8915L30.1437 22.8364C29.7058 22.9609 29.2507 22.7076 29.1219 22.2697C29.0704 22.098 29.079 21.9134 29.1477 21.7459L31.6636 16.0057C31.8525 15.5677 31.7881 15.0654 31.4918 14.6919L27.8382 10.0851C27.5849 9.70298 27.6879 9.19206 28.0657 8.93446C28.2117 8.83571 28.3877 8.78849 28.568 8.79707L34.5316 9.47543C34.9995 9.52695 35.4546 9.32087 35.7251 8.93876L39.2543 3.94985C39.5333 3.5892 40.0528 3.5248 40.4092 3.80817C40.5552 3.91979 40.6539 4.07006 40.7011 4.24609Z" fill="#F44336"/>
<path d="M39.3338 10.0209L39.7631 5.89924C39.7932 5.67169 39.8275 5.2767 40.1925 5.34969C40.4801 5.40979 40.5102 6.03233 40.5102 6.03233L41.0683 9.52715C41.2744 10.8538 40.9996 11.2445 40.5016 11.3991C39.922 11.5923 39.2136 11.2016 39.3338 10.0209Z" fill="#FF847A"/>
<path d="M43.2027 16.7437L47.2685 14.7301C47.4703 14.6185 47.831 14.451 47.6378 14.1376C47.4789 13.8929 46.8821 14.0775 46.8821 14.0775L43.5719 14.6485C42.593 14.7773 41.8889 15.1208 41.7129 15.7004C41.4853 16.4475 42.065 17.1988 43.2027 16.7437Z" fill="#C62828"/>
<path d="M11.7999 3.22003L15.2346 8.26046C15.5008 8.64686 15.9516 8.85724 16.4196 8.81431L22.3959 8.22611C22.851 8.21323 23.2332 8.56958 23.246 9.02468C23.2503 9.20071 23.2031 9.37245 23.1044 9.51413L19.3992 14.078C19.0986 14.4472 19.0256 14.9495 19.2103 15.3875L21.636 21.1621C21.7949 21.5871 21.5802 22.0637 21.1552 22.2225C20.9834 22.2869 20.7988 22.2912 20.6228 22.2397L14.9255 20.2089C14.4832 20.0501 13.9895 20.1402 13.6374 20.4494L9.09505 24.4207C8.74299 24.7041 8.22779 24.6483 7.94013 24.2962C7.82421 24.1546 7.75981 23.9742 7.75981 23.7939L7.90149 17.5299C7.91437 17.0533 7.66106 16.6154 7.2489 16.3792L2.13977 13.5027C1.75337 13.2708 1.62457 12.7642 1.8607 12.3778C1.95945 12.2104 2.11831 12.0816 2.30292 12.0215L8.07752 10.3814C8.52403 10.2569 8.8675 9.89624 8.97913 9.44543L10.3487 3.49051C10.4732 3.05259 10.9283 2.79928 11.3662 2.92379C11.538 2.97101 11.6925 3.07835 11.7999 3.22003Z" fill="#F44336"/>
<path d="M12.7256 9.08046L11.5492 5.10479C11.4934 4.88153 11.3732 4.50371 11.7338 4.43502C12.0215 4.37921 12.292 4.94593 12.292 4.94593L14.1295 7.9513C14.8294 9.10193 14.7177 9.56132 14.3184 9.8962C13.9192 10.2311 13.0605 10.2182 12.7256 9.08046Z" fill="#FF847A"/>
<path d="M18.8591 13.8073L21.8645 10.3984C22.0105 10.2224 22.2938 9.93042 21.9761 9.71576C21.74 9.54402 21.2591 9.9433 21.2591 9.9433L18.4126 11.7294C17.5539 12.2188 17.0344 12.8027 17.0946 13.4081C17.1675 14.2066 17.9833 14.6789 18.8591 13.8073Z" fill="#C62828"/>
<path d="M41.6689 27.7439C41.0678 26.6577 39.7626 26.1811 38.6034 26.619C34.1984 27.9027 29.6303 28.5425 25.0406 28.521C20.451 28.5425 15.8829 27.9027 11.4779 26.619C10.3229 26.1811 9.01775 26.6534 8.41667 27.7353C7.83277 28.8129 8.25352 30.0623 8.74726 31.14C11.5036 37.1936 17.5787 40.8172 25.0063 40.8387H25.075C32.5025 40.8387 38.5777 37.1936 41.3383 31.14C41.8278 30.0537 42.2528 28.8215 41.6689 27.7439Z" fill="#422B0D"/>
<path d="M31.9145 39.1299C31.7557 38.984 31.5925 38.8509 31.4294 38.7006C29.6777 37.1593 27.4108 36.3307 25.0752 36.3779C22.6709 36.3392 20.331 37.1378 18.4548 38.6405C18.2916 38.7736 18.1199 38.9024 17.961 39.0698C17.8022 39.2373 17.7163 39.3575 17.6133 39.4992C19.9746 40.4223 22.4906 40.8945 25.028 40.8816H25.0966C27.5267 40.8816 29.9353 40.448 32.2108 39.5936C32.1249 39.4305 32.0262 39.2759 31.9145 39.1299Z" fill="#ED7770"/>
<path d="M38.603 26.6189C34.198 27.9026 29.6298 28.5423 25.0402 28.5209C20.4506 28.5423 15.8824 27.9026 11.4774 26.6189C10.3225 26.181 9.01732 26.6532 8.41625 27.7352C8.33038 27.8983 8.26168 28.07 8.21875 28.2461C8.36043 28.3191 8.52358 28.392 8.71678 28.4693C13.886 31.0582 19.6005 32.372 25.3794 32.3033C30.9221 32.3677 36.4005 31.1613 41.4066 28.7827C41.6084 28.6969 41.7758 28.6153 41.9261 28.538C41.8917 28.259 41.8016 27.9842 41.6685 27.7352C41.0674 26.6532 39.7622 26.1767 38.603 26.6189Z" fill="white"/>
<path d="M41.6861 27.7482C41.0764 26.662 39.7669 26.1811 38.5991 26.619C34.1941 27.9027 29.626 28.5425 25.0406 28.521C20.451 28.5425 15.8829 27.9027 11.4779 26.619C10.3229 26.1811 9.01775 26.6534 8.41667 27.7353C7.83277 28.8129 8.25352 30.0623 8.74726 31.14C8.96623 31.6251 9.21095 32.1017 9.48143 32.5611C9.48143 32.5611 8.57982 29.2208 9.36122 28.2505C9.62741 27.8383 10.0739 27.5807 10.5634 27.555C10.7652 27.555 10.9626 27.5893 11.1559 27.6494C15.6381 28.9675 20.2879 29.633 24.9634 29.6244H25.1136C29.7891 29.633 34.4389 28.9675 38.9211 27.6494C39.1143 27.5893 39.3118 27.555 39.5136 27.555C40.0031 27.5807 40.4539 27.8383 40.7201 28.2505C41.5143 29.2208 40.5999 32.5739 40.5999 32.5739C40.866 32.1146 41.1322 31.6423 41.3555 31.1528C41.8449 30.0752 42.27 28.8301 41.6861 27.7482Z" fill="#EB8F00"/>
<defs>
<radialGradient id="paint0_radial_5510_43188" cx="0" cy="0" r="1" gradientUnits="userSpaceOnUse" gradientTransform="translate(25.1516 24) scale(24.455 24.455)">
<stop offset="0.5" stop-color="#FDE030"/>
<stop offset="0.92" stop-color="#F7C02B"/>
<stop offset="1" stop-color="#F4A223"/>
</radialGradient>
<radialGradient id="paint1_radial_5510_43188" cx="0" cy="0" r="1" gradientUnits="userSpaceOnUse" gradientTransform="translate(38.4266 14.3178) scale(10.2659)">
<stop offset="0.2" stop-color="#FF4081"/>
<stop offset="0.88" stop-color="#CC1775"/>
</radialGradient>
</defs>
</svg>
