<svg width="51" height="48" viewBox="0 0 51 48" fill="none" xmlns="http://www.w3.org/2000/svg">
<path d="M25.1516 48C13.1731 48 0.25 40.4866 0.25 24C0.25 7.51342 13.1731 0 25.1516 0C31.8064 0 37.9459 2.18962 42.4969 6.18247C47.4343 10.5617 50.0532 16.7442 50.0532 24C50.0532 31.2558 47.4343 37.3954 42.4969 41.7746C37.9459 45.7674 31.7634 48 25.1516 48Z" fill="url(#paint0_radial_5510_43143)"/>
<path d="M45.7107 9.7334C47.999 13.4257 49.1926 17.8221 49.1926 22.7123C49.1926 29.9681 46.5736 36.1076 41.6362 40.4869C37.0853 44.4797 30.9028 46.7123 24.291 46.7123C16.5371 46.7123 8.40547 43.5567 3.60547 36.8633C8.22515 44.4454 16.9149 48.0003 25.1497 48.0003C31.7615 48.0003 37.9439 45.7677 42.4949 41.7749C47.4323 37.3957 50.0513 31.2561 50.0513 24.0003C50.0513 18.5305 48.5615 13.6704 45.7107 9.7334Z" fill="#EB8F00"/>
<path d="M41.5079 27.9971C40.9068 26.9151 39.6017 26.4386 38.4424 26.8808C34.5784 28.0829 29.8557 28.5251 25.0986 28.5294C20.509 28.5466 15.9408 27.9069 11.5358 26.6189C10.3766 26.1767 9.07143 26.6532 8.47035 27.7352C7.88645 28.8128 8.3115 30.0622 8.80094 31.1398C11.5831 37.2021 17.6367 40.8257 25.0643 40.8471H25.133C32.5605 40.8471 38.4167 37.4554 41.1773 31.4017C41.6668 30.3241 42.0918 29.0747 41.5079 27.9971Z" fill="white"/>
<path d="M18.8827 21.4196L18.8183 21.3338L18.6337 21.0976L18.4061 20.8529C18.3116 20.7456 18.2 20.6425 18.0927 20.5309C17.9854 20.4193 17.8523 20.3119 17.732 20.2218C17.6204 20.1359 17.5002 20.0543 17.3714 19.9899C17.2855 19.9427 17.1911 19.9041 17.0923 19.8826C17.0623 19.8783 17.0322 19.8783 17.0022 19.8826C17.0022 19.8826 16.9764 19.8826 16.9635 19.8826H16.9292H17.0451H16.809C16.7446 19.8826 16.7875 19.8826 16.809 19.8826H16.8433H16.7961C16.6973 19.9041 16.6029 19.9384 16.5127 19.9899C16.3882 20.0586 16.2637 20.1359 16.1521 20.2218C16.0276 20.3162 15.9074 20.4193 15.7957 20.5309C15.5682 20.7499 15.3664 20.9602 15.2376 21.1277L15.0143 21.3853L14.9156 21.5012C14.2973 22.1924 13.254 22.3041 12.5027 21.7631C12.0218 21.4282 11.7771 20.8486 11.8716 20.269C11.8716 20.269 11.9016 20.0973 11.9832 19.7924C12.112 19.3588 12.2923 18.938 12.5199 18.5431C12.8848 17.8991 13.3786 17.3366 13.971 16.8901C14.3617 16.5896 14.7954 16.3491 15.2591 16.1817C15.3879 16.1302 15.521 16.0915 15.654 16.0572C15.7957 16.0143 15.9374 15.9842 16.0834 15.9584L16.3453 15.9198L16.5642 15.894H16.8004H17.1396H17.3585C17.5045 15.894 17.6462 15.9327 17.7879 15.9542C18.0626 16.0014 18.3374 16.0744 18.5993 16.1731C19.063 16.3406 19.4966 16.581 19.8873 16.8815C20.4798 17.328 20.9735 17.8905 21.3385 18.5345C21.4716 18.7577 21.5875 18.9939 21.682 19.2343C21.7635 19.4275 21.8322 19.6207 21.888 19.8225C21.9181 19.9255 21.9438 20.0286 21.9567 20.1316V20.2389C22.0855 21.1148 21.4759 21.9305 20.6 22.0593C20.5786 22.0636 20.5571 22.0636 20.5356 22.0679C19.9088 22.1581 19.282 21.9091 18.8827 21.4196Z" fill="#422B0D"/>
<path d="M35.8245 21.4196L35.7558 21.3338L35.5712 21.0976L35.3436 20.8529C35.2491 20.7456 35.1375 20.6425 35.0302 20.5309C34.9229 20.4193 34.7898 20.3119 34.6695 20.2218C34.5579 20.1359 34.4377 20.0543 34.3089 19.9899C34.223 19.9427 34.1286 19.9041 34.0298 19.8826C33.9998 19.8783 33.9697 19.8783 33.9397 19.8826C33.9397 19.8826 33.9139 19.8826 33.901 19.8826H33.8667H33.9826H33.7465C33.6821 19.8826 33.725 19.8826 33.7465 19.8826H33.7808H33.7336C33.6348 19.9041 33.5404 19.9384 33.4502 19.9899C33.3257 20.0543 33.2055 20.1359 33.0939 20.2218C32.9651 20.3162 32.8449 20.4193 32.7332 20.5309C32.5057 20.7499 32.3039 20.9602 32.1751 21.1277L31.9518 21.3853L31.8574 21.5012C31.2348 22.1924 30.1958 22.3041 29.4402 21.7631C28.9593 21.4282 28.7146 20.8486 28.8091 20.269C28.8091 20.269 28.8391 20.0973 28.925 19.7924C29.0538 19.3545 29.2298 18.9338 29.4617 18.5431C29.8266 17.8991 30.3161 17.3366 30.9085 16.8901C31.2992 16.5896 31.7329 16.3491 32.1966 16.1817C32.3254 16.1302 32.4585 16.0915 32.5915 16.0572C32.7332 16.0143 32.8749 15.9842 33.0209 15.9584L33.2871 15.9198L33.5017 15.894H33.7379H34.0771H34.296C34.442 15.894 34.5837 15.9327 34.7254 15.9542C35.0044 16.0014 35.2749 16.0744 35.5368 16.1731C36.0005 16.3406 36.4341 16.581 36.8248 16.8815C37.4173 17.328 37.911 17.8905 38.276 18.5345C38.4091 18.7577 38.525 18.9939 38.6195 19.2343C38.701 19.4232 38.7697 19.6164 38.8255 19.8139C38.8556 19.9169 38.8813 20.02 38.8942 20.123V20.2304C39.0316 21.1062 38.4305 21.9262 37.5547 22.0636C37.5418 22.0636 37.5289 22.0679 37.5161 22.0679C36.8763 22.1753 36.228 21.9262 35.8245 21.4196Z" fill="#422B0D"/>
<path d="M41.1619 29.5516C41.1233 29.5773 38.5 31.5394 33.5669 32.8103V27.9587C33.0045 28.0446 32.4292 28.1176 31.8496 28.182V33.1967C29.8531 33.5917 27.8224 33.8106 25.7873 33.8536V28.5212H25.1089C24.7612 28.5212 24.4177 28.5212 24.0699 28.5212V33.8536C24.2546 33.8578 24.2546 33.8621 24.0699 33.8621L24.0614 33.8536C22.0735 33.8192 20.0943 33.6303 18.1365 33.2825V28.0489C17.5526 27.9716 16.9816 27.8815 16.4191 27.7827V32.9219C11.3444 31.7155 8.7941 29.7877 8.75975 29.7577C8.61807 29.646 8.44204 29.5816 8.26172 29.5773C8.38193 30.1183 8.56226 30.6464 8.80268 31.1487C8.95295 31.4793 9.1161 31.797 9.28784 32.1147C11.5333 33.304 13.9333 34.1713 16.4191 34.6908V34.6994V38.924C16.9773 39.1945 17.5526 39.4392 18.1365 39.6496V35.0342C20.0943 35.3605 22.0778 35.5409 24.0614 35.5709L24.0699 35.5795C24.0657 35.5795 24.0657 35.5795 24.0614 35.5795V40.8217C24.392 40.8217 24.7268 40.8561 25.066 40.8561H25.1347H25.7787V35.5709C27.8138 35.5323 29.8445 35.3262 31.8496 34.957V39.7698C32.4335 39.5723 33.0088 39.3405 33.5669 39.0786V34.592C36.1859 33.9909 38.7061 33.0078 41.0417 31.6768C41.0846 31.5824 41.1361 31.4965 41.1791 31.402C41.4925 30.7666 41.6986 30.084 41.7801 29.3799C41.5612 29.3541 41.3379 29.4185 41.1619 29.5516Z" fill="#B3B3B3"/>
<path d="M41.6861 27.7482C41.0764 26.662 39.7669 26.1811 38.5991 26.619C34.1941 27.9027 29.626 28.5425 25.0406 28.521C20.451 28.5425 15.8829 27.9027 11.4779 26.619C10.3229 26.1811 9.01775 26.6534 8.41667 27.7353C7.83277 28.8129 8.25352 30.0623 8.74726 31.14C8.96623 31.6251 9.21095 32.1017 9.48143 32.5611C9.48143 32.5611 8.57982 29.2208 9.36122 28.2505C9.62741 27.8383 10.0739 27.5807 10.5634 27.555C10.7652 27.555 10.9626 27.5893 11.1559 27.6494C15.6381 28.9675 20.2879 29.633 24.9634 29.6244H25.1136C29.7891 29.633 34.4389 28.9675 38.9211 27.6494C39.1143 27.5893 39.3118 27.555 39.5136 27.555C40.0031 27.5807 40.4539 27.8383 40.7201 28.2505C41.5143 29.2208 40.5999 32.5739 40.5999 32.5739C40.866 32.1146 41.1322 31.6423 41.3555 31.1528C41.8449 30.0752 42.27 28.8301 41.6861 27.7482Z" fill="#EB8F00"/>
<defs>
<radialGradient id="paint0_radial_5510_43143" cx="0" cy="0" r="1" gradientUnits="userSpaceOnUse" gradientTransform="translate(25.1516 24) scale(24.455 24.455)">
<stop offset="0.5" stop-color="#FDE030"/>
<stop offset="0.92" stop-color="#F7C02B"/>
<stop offset="1" stop-color="#F4A223"/>
</radialGradient>
</defs>
</svg>
