<svg width="50" height="49" viewBox="0 0 50 49" fill="none" xmlns="http://www.w3.org/2000/svg">
<g id="&#240;&#159;&#166;&#134; emoji &#34;smiling face with smiling eyes&#34;">
<path id="Vector" d="M24.9016 48.9033C12.9231 48.9033 0 41.3899 0 24.9033C0 8.41674 12.9231 0.90332 24.9016 0.90332C31.5564 0.90332 37.6959 3.09294 42.2469 7.08579C47.1843 11.465 49.8032 17.6475 49.8032 24.9033C49.8032 32.1591 47.1843 38.2987 42.2469 42.6779C37.6959 46.6708 31.5134 48.9033 24.9016 48.9033Z" fill="url(#paint0_radial_5510_42960)"/>
<path id="Vector_2" d="M45.4607 10.6367C47.749 14.329 48.9426 18.7254 48.9426 23.6156C48.9426 30.8714 46.3236 37.011 41.3862 41.3902C36.8353 45.3831 30.6528 47.6156 24.041 47.6156C16.2871 47.6156 8.1383 44.46 3.35547 37.7666C7.97515 45.3487 16.6607 48.9036 24.8997 48.9036C31.5115 48.9036 37.6939 46.6711 42.2449 42.6782C47.1823 38.299 49.8013 32.1594 49.8013 24.9036C49.8013 19.4339 48.3115 14.5737 45.4607 10.6367Z" fill="#EB8F00"/>
<path id="Vector_3" opacity="0.8" d="M9.29467 36.251C13.4442 36.251 16.8081 32.8871 16.8081 28.7375C16.8081 24.588 13.4442 21.2241 9.29467 21.2241C5.14512 21.2241 1.78125 24.588 1.78125 28.7375C1.78125 32.8871 5.14512 36.251 9.29467 36.251Z" fill="url(#paint1_radial_5510_42960)"/>
<path id="Vector_4" opacity="0.8" d="M40.8494 36.251C44.9989 36.251 48.3628 32.8871 48.3628 28.7375C48.3628 24.588 44.9989 21.2241 40.8494 21.2241C36.6998 21.2241 33.3359 24.588 33.3359 28.7375C33.3359 32.8871 36.6998 36.251 40.8494 36.251Z" fill="url(#paint2_radial_5510_42960)"/>
<g id="Group">
<path id="Vector_5" d="M18.6169 22.3231C18.6169 22.3231 18.5954 22.2931 18.5482 22.2373C18.5053 22.1814 18.4451 22.1042 18.3679 22.0054C18.3035 21.9367 18.2262 21.8552 18.136 21.7607C18.0459 21.6577 17.9342 21.5503 17.8226 21.4387C17.7067 21.3314 17.5865 21.2197 17.462 21.1296C17.3417 21.0308 17.2087 20.9578 17.1013 20.8977C16.9897 20.829 16.8867 20.8119 16.8222 20.7904C16.7879 20.7775 16.7578 20.7775 16.7321 20.7732C16.7192 20.7775 16.7063 20.7689 16.6934 20.7732L16.6763 20.7775H16.6677H16.6634C16.7149 20.7775 16.5475 20.7818 16.7793 20.7732L16.5432 20.7818C16.4831 20.7818 16.5217 20.7861 16.526 20.7861C16.5389 20.7861 16.5475 20.7861 16.5561 20.7818C16.5904 20.7689 16.5561 20.7818 16.5475 20.7818C16.5346 20.7818 16.5174 20.7861 16.5002 20.7947C16.4316 20.8162 16.3285 20.8333 16.2212 20.902C16.1138 20.9621 15.9807 21.0351 15.8605 21.1339C15.7403 21.2283 15.6158 21.3357 15.4999 21.443C15.2766 21.6619 15.0791 21.8809 14.9418 22.0398C14.8001 22.2029 14.7228 22.2974 14.7228 22.2974L14.624 22.4133C14.0358 23.1002 12.9539 23.2162 12.2112 22.6752C11.7045 22.306 11.4856 21.7306 11.58 21.1811C11.58 21.1811 11.6101 21.0051 11.696 20.7002C11.7861 20.3954 11.9364 19.9618 12.2326 19.4509C12.5289 18.9442 12.9582 18.3475 13.6838 17.8022C14.0401 17.536 14.4738 17.2698 14.989 17.0895C15.1135 17.0423 15.2466 16.9993 15.384 16.965C15.5256 16.9306 15.6373 16.892 15.8305 16.8662L16.0967 16.8276C16.1782 16.819 16.2985 16.8061 16.3156 16.8061L16.5518 16.789L16.6849 16.7847H16.6977H16.7235L16.7793 16.789H16.8824L17.1013 16.8018C17.2473 16.8147 17.389 16.8405 17.5307 16.8619C17.8097 16.9135 18.0888 16.9865 18.3421 17.0809C18.8573 17.2612 19.2909 17.5231 19.6473 17.7936C20.3729 18.3389 20.8022 18.9357 21.0985 19.4423C21.2487 19.6956 21.3604 19.936 21.4419 20.1464C21.5321 20.3482 21.5965 20.5628 21.648 20.7217C21.6952 20.8763 21.6952 20.9578 21.7167 21.0308C21.7296 21.0995 21.7339 21.1382 21.7339 21.1382C21.8927 22.0054 21.253 22.8255 20.3128 22.9671C19.6387 23.0745 18.9904 22.804 18.6169 22.3231Z" fill="#422B0D"/>
<path id="Vector_6" d="M35.5743 22.3231C35.5743 22.3231 35.5528 22.2931 35.5056 22.2373C35.4627 22.1814 35.4026 22.1042 35.3253 22.0054C35.2609 21.9367 35.1836 21.8552 35.0934 21.7607C35.0033 21.6577 34.8917 21.5503 34.78 21.4387C34.6641 21.3314 34.5439 21.2197 34.4194 21.1296C34.2992 21.0308 34.1661 20.9578 34.0587 20.8977C33.9471 20.829 33.8441 20.8119 33.7797 20.7904C33.7453 20.7775 33.7153 20.7775 33.6895 20.7732C33.6766 20.7775 33.6637 20.7689 33.6509 20.7732L33.6337 20.7775H33.6251H33.6208H33.6165C33.668 20.7775 33.5006 20.7818 33.7324 20.7732L33.4963 20.7818C33.4362 20.7818 33.4748 20.7861 33.4791 20.7861C33.492 20.7861 33.5006 20.7861 33.5092 20.7818C33.5435 20.7689 33.5092 20.7818 33.5006 20.7818C33.4877 20.7818 33.4705 20.7861 33.4534 20.7947C33.3847 20.8162 33.2816 20.8333 33.1743 20.902C33.067 20.9621 32.9339 21.0351 32.8137 21.1339C32.6934 21.2283 32.5689 21.3357 32.453 21.443C32.2298 21.6619 32.0323 21.8809 31.8949 22.0398C31.7532 22.2029 31.6759 22.2974 31.6759 22.2974L31.5772 22.4133C30.989 23.1002 29.907 23.2162 29.1643 22.6752C28.6577 22.306 28.4387 21.7306 28.5332 21.1811C28.5332 21.1811 28.5632 21.0051 28.6491 20.7002C28.7392 20.3954 28.8895 19.9618 29.1858 19.4509C29.482 18.9442 29.9113 18.3475 30.6369 17.8022C30.9933 17.536 31.4269 17.2698 31.9421 17.0895C32.0666 17.0423 32.1997 16.9993 32.3371 16.965C32.4788 16.9306 32.5904 16.892 32.7836 16.8662L33.0498 16.8276C33.1314 16.819 33.2516 16.8061 33.2688 16.8061L33.5049 16.789L33.638 16.7847H33.6509H33.6766L33.7324 16.789H33.8355L34.0544 16.8018C34.2004 16.8147 34.3421 16.8405 34.4838 16.8619C34.7629 16.9135 35.0419 16.9865 35.2952 17.0809C35.8104 17.2612 36.2441 17.5231 36.6004 17.7936C37.326 18.3389 37.7553 18.9357 38.0516 19.4423C38.2019 19.6956 38.3135 19.936 38.3951 20.1464C38.4852 20.3482 38.5496 20.5628 38.6011 20.7217C38.6484 20.8763 38.6484 20.9578 38.6698 21.0308C38.6827 21.0995 38.687 21.1382 38.687 21.1382C38.8459 22.0054 38.2061 22.8255 37.2659 22.9671C36.5918 23.0745 35.9435 22.804 35.5743 22.3231Z" fill="#422B0D"/>
<path id="Vector_7" d="M25.0822 38.2512C19.6854 38.2512 15.4178 35.6966 13.065 32.9617C12.8289 32.687 12.773 32.3177 12.9233 31.9957C13.0736 31.6651 13.3999 31.4505 13.7519 31.4505C13.9108 31.4505 14.0739 31.4934 14.2156 31.575C16.6414 32.9746 20.7158 34.7048 25.0693 34.7048H25.138C29.4958 34.7048 33.5659 32.9703 35.9917 31.575C36.1376 31.4934 36.2965 31.4462 36.4553 31.4505C36.8074 31.4505 37.1337 31.6651 37.284 31.9957C37.4299 32.3177 37.3784 32.6913 37.1423 32.9617C34.7895 35.6923 30.5176 38.2512 25.1251 38.2512" fill="#422B0D"/>
</g>
</g>
<defs>
<radialGradient id="paint0_radial_5510_42960" cx="0" cy="0" r="1" gradientUnits="userSpaceOnUse" gradientTransform="translate(24.9016 24.9033) scale(24.455 24.455)">
<stop offset="0.5" stop-color="#FDE030"/>
<stop offset="0.9188" stop-color="#F7C02B"/>
<stop offset="1" stop-color="#F4A223"/>
</radialGradient>
<radialGradient id="paint1_radial_5510_42960" cx="0" cy="0" r="1" gradientUnits="userSpaceOnUse" gradientTransform="translate(9.29491 28.737) scale(8.17374 7.76468)">
<stop stop-color="#ED7770"/>
<stop offset="0.9" stop-color="#ED7770" stop-opacity="0"/>
</radialGradient>
<radialGradient id="paint2_radial_5510_42960" cx="0" cy="0" r="1" gradientUnits="userSpaceOnUse" gradientTransform="translate(40.8504 28.737) scale(8.17374 7.76468)">
<stop stop-color="#ED7770"/>
<stop offset="0.9" stop-color="#ED7770" stop-opacity="0"/>
</radialGradient>
</defs>
</svg>
