<svg width="50" height="48" viewBox="0 0 50 48" fill="none" xmlns="http://www.w3.org/2000/svg">
<path d="M24.4368 45.9951C13.5894 45.9951 1.88672 39.1912 1.88672 24.2615C1.88672 9.33174 13.5894 2.52783 24.4368 2.52783C30.4631 2.52783 36.0229 4.51069 40.1441 8.12648C44.6153 12.0922 46.9869 17.6908 46.9869 24.2615C46.9869 30.8321 44.6153 36.3919 40.1441 40.3576C36.0229 43.9734 30.4243 45.9951 24.4368 45.9951Z" fill="url(#paint0_radial_5510_43115)"/>
<path d="M43.0549 11.3413C45.1272 14.6849 46.208 18.6662 46.208 23.0946C46.208 29.6652 43.8364 35.225 39.3652 39.1907C35.244 42.8065 29.6454 44.8282 23.6579 44.8282C16.6363 44.8282 9.25696 41.9706 4.92578 35.9093C9.10921 42.7754 16.9745 45.9946 24.4355 45.9946C30.4229 45.9946 36.0216 43.9729 40.1428 40.3571C44.614 36.3914 46.9856 30.8316 46.9856 24.261C46.9856 19.3077 45.6365 14.9066 43.0549 11.3413Z" fill="#EB8F00"/>
<path opacity="0.8" d="M10.3039 31.038C14.0616 31.038 17.1078 27.9918 17.1078 24.2341C17.1078 20.4764 14.0616 17.4302 10.3039 17.4302C6.54621 17.4302 3.5 20.4764 3.5 24.2341C3.5 27.9918 6.54621 31.038 10.3039 31.038Z" fill="url(#paint1_radial_5510_43115)"/>
<path opacity="0.8" d="M38.8781 31.038C42.6358 31.038 45.682 27.9918 45.682 24.2341C45.682 20.4764 42.6358 17.4302 38.8781 17.4302C35.1204 17.4302 32.0742 20.4764 32.0742 24.2341C32.0742 27.9918 35.1204 31.038 38.8781 31.038Z" fill="url(#paint2_radial_5510_43115)"/>
<path d="M38.8594 25.0935C34.8665 27.4107 29.9365 28.7832 24.5945 28.7832C19.2525 28.7832 14.3225 27.4107 10.3296 25.0935C9.5948 24.6697 8.82499 25.5873 9.37319 26.2288C12.989 30.455 18.4632 33.1493 24.5945 33.1493C30.7258 33.1493 36.2 30.455 39.8158 26.2288C40.3679 25.5834 39.5942 24.6658 38.8594 25.0935Z" fill="#422B0D"/>
<path d="M18.9777 16.9598C18.9777 16.9598 18.9583 16.9326 18.9155 16.882C18.8766 16.8315 18.8222 16.7615 18.7522 16.6721C18.6939 16.6099 18.6239 16.536 18.5422 16.4505C18.4606 16.3572 18.3595 16.26 18.2584 16.1589C18.1535 16.0617 18.0446 15.9606 17.9318 15.8789C17.823 15.7895 17.7025 15.7234 17.6053 15.669C17.5042 15.6068 17.4109 15.5912 17.3525 15.5718C17.3214 15.5601 17.2942 15.5601 17.2709 15.5562C17.2592 15.5601 17.2476 15.5524 17.2359 15.5562L17.2203 15.5601H17.2126H17.2087C17.2553 15.5601 17.1037 15.564 17.3137 15.5562L17.0998 15.564C17.0454 15.564 17.0804 15.5679 17.0843 15.5679C17.0959 15.5679 17.1037 15.5679 17.1115 15.564C17.1426 15.5524 17.1115 15.564 17.1037 15.564C17.092 15.564 17.0765 15.5679 17.0609 15.5757C16.9987 15.5951 16.9054 15.6107 16.8082 15.6729C16.711 15.7273 16.5905 15.7934 16.4816 15.8828C16.3728 15.9684 16.26 16.0656 16.155 16.1628C15.9529 16.361 15.774 16.5593 15.6496 16.7032C15.5213 16.8509 15.4513 16.9365 15.4513 16.9365L15.3619 17.0414C14.8293 17.6635 13.8495 17.7685 13.1769 17.2786C12.7181 16.9442 12.5198 16.4233 12.6054 15.9256C12.6054 15.9256 12.6326 15.7662 12.7103 15.4901C12.792 15.2141 12.9281 14.8214 13.1963 14.3588C13.4646 13.9 13.8534 13.3595 14.5104 12.8658C14.8331 12.6247 15.2258 12.3837 15.6924 12.2204C15.8051 12.1776 15.9257 12.1387 16.0501 12.1076C16.1784 12.0765 16.2795 12.0415 16.4544 12.0182L16.6955 11.9832C16.7693 11.9754 16.8782 11.9638 16.8938 11.9638L17.1076 11.9482L17.2281 11.9443H17.2398H17.2631L17.3137 11.9482L17.4147 11.9521L17.613 11.9638C17.7452 11.9754 17.8735 11.9988 18.0018 12.0182C18.2545 12.0649 18.5073 12.131 18.7366 12.2165C19.2032 12.3798 19.5959 12.617 19.9186 12.8619C20.5756 13.3557 20.9644 13.8961 21.2327 14.3549C21.3688 14.5843 21.4699 14.802 21.5437 14.9925C21.6254 15.1752 21.6837 15.3696 21.7304 15.5135C21.7731 15.6534 21.7731 15.7273 21.7926 15.7934C21.8042 15.8556 21.8081 15.8906 21.8081 15.8906C21.952 16.676 21.3727 17.4186 20.5212 17.5469C19.903 17.6441 19.316 17.3952 18.9777 16.9598Z" fill="#422B0D"/>
<path d="M33.5597 16.9598C33.5597 16.9598 33.5403 16.9326 33.4975 16.882C33.4586 16.8315 33.4042 16.7615 33.3342 16.6721C33.2759 16.6099 33.2059 16.536 33.1243 16.4505C33.0426 16.3572 32.9415 16.26 32.8404 16.1589C32.7355 16.0617 32.6266 15.9606 32.5139 15.8789C32.405 15.7895 32.2845 15.7234 32.1873 15.669C32.0862 15.6068 31.9929 15.5912 31.9345 15.5718C31.9034 15.5601 31.8762 15.5601 31.8529 15.5562C31.8412 15.5601 31.8296 15.5524 31.8179 15.5562L31.8024 15.5601H31.7946H31.7907H31.7868C31.8335 15.5601 31.6818 15.564 31.8918 15.5562L31.6779 15.564C31.6235 15.564 31.6585 15.5679 31.6624 15.5679C31.6741 15.5679 31.6818 15.5679 31.6896 15.564C31.7207 15.5524 31.6896 15.564 31.6818 15.564C31.6702 15.564 31.6546 15.5679 31.6391 15.5757C31.5769 15.5951 31.4835 15.6107 31.3863 15.6729C31.2891 15.7273 31.1686 15.7934 31.0598 15.8828C30.9509 15.9684 30.8381 16.0656 30.7332 16.1628C30.531 16.361 30.3522 16.5593 30.2277 16.7032C30.0994 16.8509 30.0295 16.9365 30.0295 16.9365L29.94 17.0414C29.4074 17.6635 28.4276 17.7685 27.755 17.2786C27.2962 16.9442 27.0979 16.4233 27.1835 15.9256C27.1835 15.9256 27.2107 15.7662 27.2884 15.4901C27.3701 15.2141 27.5062 14.8214 27.7744 14.3588C28.0427 13.9 28.4315 13.3595 29.0886 12.8658C29.4113 12.6247 29.804 12.3837 30.2705 12.2204C30.3833 12.1776 30.5038 12.1387 30.6282 12.1076C30.7565 12.0765 30.8576 12.0415 31.0325 12.0182L31.2736 11.9832C31.3475 11.9754 31.4563 11.9638 31.4719 11.9638L31.6857 11.9482L31.8062 11.9443H31.8179H31.8412L31.8918 11.9482L31.9929 11.9521L32.1912 11.9638C32.3233 11.9754 32.4516 11.9988 32.5799 12.0182C32.8327 12.0649 33.0854 12.131 33.3148 12.2165C33.7813 12.3798 34.174 12.617 34.4967 12.8619C35.1538 13.3557 35.5426 13.8961 35.8108 14.3549C35.9469 14.5843 36.048 14.802 36.1219 14.9925C36.2035 15.1752 36.2618 15.3696 36.3085 15.5135C36.3513 15.6534 36.3513 15.7273 36.3707 15.7934C36.3824 15.8556 36.3862 15.8906 36.3862 15.8906C36.5301 16.676 35.9508 17.4186 35.0993 17.5469C34.4812 17.6441 33.8941 17.3952 33.5597 16.9598Z" fill="#422B0D"/>
<path d="M42.7808 0.280314C40.0359 1.3806 39.7949 4.50262 39.7949 4.50262C39.7949 4.50262 37.9947 2.55476 35.557 3.37512C32.6294 4.36266 31.1558 7.50412 33.5275 10.8944C36.2413 14.7707 44.9503 15.8749 44.9503 15.8749C44.9503 15.8749 49.8219 9.5103 49.1454 4.46375C48.5972 0.36196 44.857 -0.551707 42.7808 0.280314Z" fill="#F44336"/>
<path d="M42.7807 0.280314C42.7807 0.280314 42.1081 0.556358 41.8438 0.81685C41.8438 0.81685 43.6944 0.626341 45.3701 1.58278C46.4743 2.21262 47.5007 3.34013 47.874 5.3502C48.6788 9.7047 45.2418 15.42 44.9774 15.8399C45.3312 15.3694 49.7985 9.31202 49.1492 4.46375C48.5971 0.36196 44.8569 -0.551707 42.7807 0.280314Z" fill="#C62828"/>
<path d="M40.0516 4.84493C39.7833 4.52223 39.4645 4.24229 39.2701 4.08678C38.2903 3.3053 37.4739 3.10313 36.4164 3.20032C35.3588 3.29363 34.4141 3.8846 34.4141 3.8846C34.4141 3.8846 35.4405 3.49581 36.8985 4.19175C37.6644 4.55722 38.337 5.10153 38.9008 5.73915C39.1029 5.96854 39.3051 6.21737 39.5773 6.35345C39.8494 6.48953 40.2304 6.47009 40.4171 6.22515C40.7087 5.82858 40.4287 5.29593 40.0516 4.84493Z" fill="#C62828"/>
<path d="M33.7002 7.63235C33.7235 6.60205 34.1007 5.34235 35.3409 5.28403C36.0019 5.25293 36.659 6.1005 36.4296 6.88587C36.0408 8.21555 36.3285 8.67432 36.5034 9.10589C36.7095 9.62687 37.0244 10.1945 36.8028 10.7077C36.5812 11.2209 36.0641 11.2559 35.3993 10.8127C35.2515 10.7194 33.6536 9.73962 33.7002 7.63235Z" fill="#FF847A"/>
<path d="M44.9307 37.2315C42.4502 35.6219 39.7598 37.2237 39.7598 37.2237C39.7598 37.2237 40.3157 34.6305 38.2396 33.1103C35.7474 31.2829 32.3299 31.8933 30.9263 35.7852C29.3206 40.2369 33.4379 47.9895 33.4379 47.9895C33.4379 47.9895 41.4471 48.3044 45.1796 44.8441C48.216 42.0331 46.8047 38.4484 44.9307 37.2315Z" fill="#F44336"/>
<path d="M44.9305 37.2312C44.9305 37.2312 44.3162 36.8424 43.9507 36.7725C43.9507 36.7725 45.1715 38.176 45.3582 40.0967C45.4787 41.3641 45.1482 42.8532 43.7213 44.3151C40.6265 47.4838 33.9742 47.9698 33.4805 47.9931C34.0675 48.0125 41.5946 48.1719 45.1832 44.8477C48.2158 42.0329 46.8045 38.4482 44.9305 37.2312Z" fill="#C62828"/>
<path d="M39.6251 37.6359C39.734 37.2315 39.7807 36.8116 39.7962 36.5628C39.8701 35.3109 39.5629 34.5255 38.8786 33.7168C38.1905 32.9081 37.1641 32.4727 37.1641 32.4727C37.1641 32.4727 38.07 33.087 38.3421 34.681C38.486 35.5169 38.4276 36.38 38.2294 37.2082C38.1594 37.5075 38.07 37.8108 38.1205 38.1141C38.171 38.4173 38.4004 38.7167 38.7076 38.7245C39.2013 38.74 39.4735 38.2035 39.6251 37.6359Z" fill="#C62828"/>
<path d="M33.687 34.0473C34.5424 33.4719 35.7865 33.052 36.5524 34.0318C36.9568 34.5527 36.6458 35.5753 35.8721 35.8435C34.5618 36.2907 34.3519 36.7922 34.0992 37.181C33.7959 37.6514 33.5082 38.2346 32.96 38.3474C32.4118 38.4601 32.0891 38.0597 32.0658 37.2588C32.0619 37.0955 31.9375 35.2254 33.687 34.0473Z" fill="#FF847A"/>
<path d="M10.5912 23.0443C7.823 24.0824 7.51197 27.1966 7.51197 27.1966C7.51197 27.1966 5.75462 25.2099 3.30132 25.9758C0.350368 26.8972 -1.18926 30.0076 1.10852 33.4484C3.73677 37.383 12.4186 38.6777 12.4186 38.6777C12.4186 38.6777 17.4301 32.422 16.8664 27.3638C16.4076 23.2503 12.6868 22.2589 10.5912 23.0443Z" fill="#F44336"/>
<path d="M10.5893 23.0442C10.5893 23.0442 9.91278 23.3086 9.64062 23.5613C9.64062 23.5613 11.4952 23.4136 13.1514 24.405C14.2401 25.0582 15.2432 26.209 15.5697 28.2269C16.2774 32.6008 12.716 38.2383 12.4438 38.6505C12.8054 38.1878 17.4087 32.2276 16.8644 27.3676C16.4057 23.2503 12.6849 22.2589 10.5893 23.0442Z" fill="#C62828"/>
<path d="M7.77043 27.5505C7.50994 27.2239 7.1989 26.9362 7.0045 26.7768C6.04029 25.972 5.22771 25.7543 4.17019 25.8243C3.10878 25.8943 2.15234 26.4658 2.15234 26.4658C2.15234 26.4658 3.18654 26.1003 4.62897 26.8274C5.38712 27.2084 6.04807 27.7683 6.59627 28.4175C6.79455 28.6508 6.98895 28.9035 7.26111 29.0435C7.53326 29.1835 7.91428 29.1757 8.1009 28.9346C8.40416 28.5458 8.1359 28.0054 7.77043 27.5505Z" fill="#C62828"/>
<path d="M1.34742 30.1944C1.39407 29.1641 1.79453 27.9122 3.03867 27.8811C3.69963 27.8655 4.33725 28.7248 4.08842 29.5062C3.67241 30.8281 3.94845 31.2908 4.11175 31.7262C4.31003 32.2511 4.60941 32.8265 4.37613 33.3359C4.14285 33.8452 3.62575 33.8685 2.96869 33.4097C2.83261 33.3125 1.25799 32.3017 1.34742 30.1944Z" fill="#FF847A"/>
<defs>
<radialGradient id="paint0_radial_5510_43115" cx="0" cy="0" r="1" gradientUnits="userSpaceOnUse" gradientTransform="translate(24.4368 24.2614) scale(22.1456)">
<stop offset="0.5" stop-color="#FDE030"/>
<stop offset="0.9188" stop-color="#F7C02B"/>
<stop offset="1" stop-color="#F4A223"/>
</radialGradient>
<radialGradient id="paint1_radial_5510_43115" cx="0" cy="0" r="1" gradientUnits="userSpaceOnUse" gradientTransform="translate(10.3041 24.2336) scale(7.40188 7.03145)">
<stop stop-color="#ED7770"/>
<stop offset="0.9" stop-color="#ED7770" stop-opacity="0"/>
</radialGradient>
<radialGradient id="paint2_radial_5510_43115" cx="0" cy="0" r="1" gradientUnits="userSpaceOnUse" gradientTransform="translate(38.8791 24.2336) scale(7.40188 7.03145)">
<stop stop-color="#ED7770"/>
<stop offset="0.9" stop-color="#ED7770" stop-opacity="0"/>
</radialGradient>
</defs>
</svg>
