<svg width="54" height="48" viewBox="0 0 54 48" fill="none" xmlns="http://www.w3.org/2000/svg">
<path d="M26.7984 47.515C14.9409 47.515 2.14844 40.0775 2.14844 23.7575C2.14844 7.4375 14.9409 0 26.7984 0C33.3859 0 39.4634 2.1675 43.9684 6.12C48.8559 10.455 51.4484 16.575 51.4484 23.7575C51.4484 30.94 48.8559 37.0175 43.9684 41.3525C39.4634 45.305 33.3434 47.515 26.7984 47.515Z" fill="url(#paint0_radial_5510_43152)"/>
<path d="M26.7984 47.515C14.9409 47.515 2.14844 40.0775 2.14844 23.7575C2.14844 7.4375 14.9409 0 26.7984 0C33.3859 0 39.4634 2.1675 43.9684 6.12C48.8559 10.455 51.4484 16.575 51.4484 23.7575C51.4484 30.94 48.8559 37.0175 43.9684 41.3525C39.4634 45.305 33.3434 47.515 26.7984 47.515Z" fill="url(#paint1_linear_5510_43152)"/>
<path d="M47.1485 9.63477C49.4137 13.2898 50.5952 17.6418 50.5952 22.4825C50.5952 29.665 48.0027 35.7425 43.1152 40.0775C38.6102 44.03 32.4902 46.24 25.9452 46.24C18.2697 46.24 10.2032 43.1163 5.46875 36.4905C10.0417 43.996 18.6395 47.515 26.7952 47.515C33.3402 47.515 39.4602 45.305 43.9652 41.3525C48.8527 37.0175 51.4452 30.94 51.4452 23.7575C51.4452 18.343 49.9705 13.532 47.1485 9.63477Z" fill="#EB8F00"/>
<path opacity="0.8" d="M12.3884 31.1948C16.2144 31.1948 19.3159 28.0933 19.3159 24.2673C19.3159 20.4414 16.2144 17.3398 12.3884 17.3398C8.56248 17.3398 5.46094 20.4414 5.46094 24.2673C5.46094 28.0933 8.56248 31.1948 12.3884 31.1948Z" fill="url(#paint2_radial_5510_43152)"/>
<path opacity="0.8" d="M40.947 25.8399C44.773 25.8399 47.8745 22.7383 47.8745 18.9124C47.8745 15.0864 44.773 11.9849 40.947 11.9849C37.1211 11.9849 34.0195 15.0864 34.0195 18.9124C34.0195 22.7383 37.1211 25.8399 40.947 25.8399Z" fill="url(#paint3_radial_5510_43152)"/>
<path d="M40.9501 18.0198C37.6776 21.0373 33.3426 23.4173 28.3276 24.5648C23.3126 25.7123 18.3826 25.4998 14.1326 24.1823C13.3676 23.9273 12.8151 24.9473 13.4951 25.4573C17.7876 28.6448 23.5251 30.0048 29.2626 28.6448C35.0001 27.3273 39.5901 23.6298 42.0551 18.8698C42.4801 18.1473 41.5451 17.4673 40.9501 18.0198Z" fill="#422B0D"/>
<path d="M20.3809 17.0847C20.3809 17.0847 20.3384 17.0422 20.2959 16.9997C20.2534 16.9572 20.1684 16.9147 20.0834 16.8297C19.9984 16.7872 19.9134 16.7022 19.8284 16.6597C19.7434 16.5747 19.6159 16.4897 19.4884 16.4047C19.3609 16.3197 19.2334 16.2347 19.1059 16.1922C18.9784 16.1072 18.8509 16.0647 18.7234 16.0647C18.5959 16.0222 18.5109 16.0222 18.4684 16.0222C18.4259 16.0222 18.4259 16.0222 18.3834 16.0222C18.3834 16.0222 18.3834 16.0222 18.3409 16.0222H18.4259L18.2134 16.0647C18.2134 16.0647 18.2134 16.0647 18.2559 16.0647H18.2134C18.1709 16.1072 18.0859 16.1497 18.0009 16.1922C17.9159 16.2772 17.7884 16.3622 17.7034 16.4472C17.6184 16.5322 17.5334 16.6597 17.4484 16.7872C17.2784 17.0422 17.1509 17.2547 17.0659 17.4247C16.9809 17.5947 16.8959 17.6797 16.8959 17.6797L16.8109 17.8497C16.3859 18.5722 15.4509 18.8697 14.6859 18.4872C14.1759 18.2322 13.8784 17.7647 13.8359 17.2547C13.8359 17.2547 13.8359 17.0847 13.8359 16.7872C13.8784 16.4897 13.9209 16.0647 14.0909 15.5547C14.2609 15.0447 14.5584 14.4072 15.1109 13.8122C15.4084 13.5147 15.7484 13.1747 16.1734 12.9622C16.2584 12.8772 16.3859 12.8347 16.5134 12.7922C16.6409 12.7497 16.7259 12.6647 16.8959 12.6222L17.1084 12.5372C17.1934 12.4947 17.2784 12.4947 17.3209 12.4947L17.5334 12.4522L17.6609 12.4097H17.7459H17.8309L18.0434 12.3672H18.4259C18.6809 12.3672 18.9359 12.3672 19.1909 12.4097C19.7009 12.4947 20.1259 12.6647 20.5084 12.8347C21.2734 13.2172 21.7409 13.6847 22.1234 14.0672C22.2934 14.2797 22.4634 14.4497 22.5484 14.6197C22.6759 14.7897 22.7609 14.9597 22.8459 15.0872C22.9309 15.2147 22.9309 15.2997 22.9734 15.3422C22.9734 15.3847 23.0159 15.4272 23.0159 15.4272C23.3134 16.1922 22.8884 17.0422 22.0384 17.3397C21.4434 17.5522 20.8059 17.4247 20.3809 17.0847Z" fill="#422B0D"/>
<path d="M34.9591 14.2375C34.9591 14.2375 34.9166 14.195 34.8741 14.1525C34.8316 14.11 34.7466 14.0675 34.6616 13.9825C34.5766 13.94 34.4916 13.855 34.4066 13.8125C34.3216 13.7275 34.1941 13.6425 34.0666 13.5575C33.9391 13.4725 33.8116 13.3875 33.6841 13.345C33.5566 13.26 33.4291 13.2175 33.3016 13.2175C33.2166 13.175 33.1316 13.175 33.0891 13.175C33.0466 13.175 33.0466 13.175 33.0041 13.175H32.9616H33.0466L32.8341 13.2175C32.7916 13.26 32.7066 13.3025 32.5791 13.345C32.4941 13.43 32.4091 13.515 32.2816 13.6C32.1966 13.685 32.1116 13.8125 32.0266 13.94C31.8566 14.195 31.7291 14.4075 31.6441 14.5775C31.5591 14.7475 31.4741 14.8325 31.4741 14.8325L31.3891 14.96C30.9641 15.6825 30.0291 15.98 29.2641 15.5975C28.7541 15.3425 28.4566 14.875 28.4141 14.365C28.4141 14.365 28.4141 14.195 28.4566 13.8975C28.4991 13.6 28.5416 13.175 28.7116 12.665C28.8816 12.155 29.1791 11.5175 29.7316 10.9225C30.0291 10.625 30.3691 10.285 30.7941 10.0725C30.8791 10.03 31.0066 9.94504 31.1341 9.90254C31.2616 9.86004 31.3466 9.77504 31.5166 9.73254L31.7716 9.64754C31.8566 9.60504 31.9416 9.60504 31.9841 9.60504L32.1966 9.56254L32.3241 9.52004H32.4091H32.4941L32.7066 9.47754H33.0891C33.3441 9.47754 33.5991 9.47754 33.8541 9.52004C34.3641 9.60504 34.7891 9.77504 35.1716 9.94504C35.9366 10.3275 36.4041 10.795 36.7866 11.1775C36.9566 11.39 37.1266 11.56 37.2116 11.73C37.3391 11.9 37.4241 12.07 37.5091 12.1975C37.5941 12.325 37.5941 12.41 37.6366 12.4525C37.6791 12.495 37.6791 12.5375 37.6791 12.5375C37.9766 13.3025 37.5516 14.1525 36.7016 14.45C36.0216 14.7475 35.3841 14.62 34.9591 14.2375Z" fill="#422B0D"/>
<path opacity="0.66" d="M16.2869 32.9206C15.8237 31.6116 15.4922 45.1691 15.4922 45.1691C16.7332 45.6918 17.9869 46.1508 19.2874 46.4993C19.8017 45.3391 20.4732 43.2013 20.1204 40.7788C19.5509 36.9071 17.2389 35.6193 16.2869 32.9206Z" fill="url(#paint4_linear_5510_43152)"/>
<path d="M16.5558 31.5476C16.3475 30.9824 16.084 30.5616 15.4168 30.5616C15.1108 30.5616 14.5923 30.6381 14.316 31.0589C13.772 31.8749 13.9845 33.4049 14.401 34.7351C14.6348 35.4874 14.571 35.7636 14.571 35.7636C13.415 35.6914 12.072 34.1146 10.7333 32.5421C9.91304 31.5774 9.43704 30.6891 8.63804 29.7031C8.15354 29.1039 7.44379 28.5004 6.61079 28.8064C4.32855 29.6521 7.15054 32.9374 7.85604 33.8384C8.65929 34.8626 9.45404 35.8443 9.45404 35.8443C8.70604 35.6701 8.23429 35.4704 6.91679 34.1189C5.79054 32.9629 4.95329 31.4711 4.34129 30.9144C2.95155 29.6521 2.10155 30.0644 1.7318 30.9059C1.38755 31.6879 1.95705 33.0691 2.3438 33.7151C4.26054 36.8941 6.70854 38.1393 6.70854 38.1393C4.69404 38.0501 3.10455 35.8911 2.4628 35.2366C0.601297 33.3454 -0.248703 35.6871 0.767047 37.3828C1.23455 38.1606 1.70205 38.7088 2.5563 39.5886C3.93754 41.0038 5.23804 41.6456 5.23804 41.6456C5.23804 41.6456 4.68129 41.7306 4.12029 41.4373C3.3638 41.0421 2.51805 40.4471 2.0803 40.1071C0.826547 39.1424 -0.367703 39.9711 0.112547 41.2546C0.669297 42.7378 2.7008 43.9958 3.92904 44.9096C6.31754 46.6776 9.29679 48.0928 12.3143 47.9951C15.6718 47.8888 17.9838 45.5811 18.8933 42.3383C19.4203 40.4513 18.1623 37.4508 17.8435 36.6943C16.7938 34.2463 16.764 32.1129 16.5558 31.5476Z" fill="url(#paint5_radial_5510_43152)"/>
<path d="M9.80593 39.1339C9.86543 42.6954 12.1009 44.1829 13.8349 44.5101C13.1379 43.4944 12.7767 42.2534 12.8192 41.0251C12.8617 39.7926 13.3377 38.2584 14.0432 37.4254C14.7487 36.5924 14.5702 35.7721 14.5702 35.7721C14.5702 35.7721 14.0942 35.7339 13.9157 35.6276C13.3462 35.2791 12.6917 34.9986 12.1987 34.5439C11.8374 34.2081 9.74643 35.5724 9.80593 39.1339Z" fill="url(#paint6_radial_5510_43152)"/>
<path d="M2.48605 30.4043C2.13755 30.6295 1.9463 31.0163 1.94205 31.403C1.93355 31.7898 2.0483 32.1765 2.18855 32.542C2.48605 33.2773 2.95355 33.936 3.43379 34.5693C3.92679 35.1983 4.45804 35.806 5.01054 36.3925C5.56304 36.9833 6.12829 37.5655 6.70204 38.1478C5.99229 37.7313 5.33354 37.2298 4.72579 36.6773C4.12229 36.1205 3.54854 35.517 3.06405 34.8455C2.5668 34.1783 2.17155 33.4345 1.9123 32.6355C1.7933 32.236 1.7083 31.8068 1.78055 31.3818C1.83155 30.961 2.10355 30.5573 2.48605 30.4043Z" fill="url(#paint7_linear_5510_43152)"/>
<path d="M0 40.6599C0.01275 40.5409 0.02975 40.4389 0.051 40.3496C0.02125 40.4474 0.00425 40.5494 0 40.6599Z" fill="url(#paint8_radial_5510_43152)"/>
<path d="M1.59839 42.4064C1.29239 42.1132 1.08414 41.8667 0.926894 41.6074C0.748394 41.3099 0.646394 40.9954 0.637894 40.7022C0.629394 40.3749 0.659144 40.1327 0.969394 39.8947C1.12239 39.7757 1.55164 39.8182 1.54314 39.814C1.53889 39.8097 1.53039 39.8097 1.52614 39.8055C1.26689 39.7035 1.02464 39.678 0.807894 39.712C0.807894 39.712 0.807894 39.712 0.812144 39.7077L0.807894 39.712C0.442394 39.7715 0.161894 40.0052 0.0513944 40.3495C0.0301444 40.4387 0.0131444 40.5407 0.000394381 40.6597C-0.00385562 40.8424 0.0258944 41.0464 0.106644 41.2632C0.229894 41.5904 0.429644 41.9092 0.671894 42.2152C0.816394 42.4362 0.986394 42.6444 1.14364 42.8442C1.39439 43.1417 1.64939 43.4349 1.93414 43.6984C2.49089 44.2424 3.10714 44.7184 3.76164 45.1349C4.08039 45.3304 7.23389 47.2642 9.99639 47.7954C10.0049 47.7869 4.73064 45.6109 1.59839 42.4064Z" fill="url(#paint9_linear_5510_43152)"/>
<path d="M5.39939 41.8754C5.36965 41.8754 5.33564 41.8712 5.31014 41.8584C4.63865 41.5779 3.9714 41.1784 3.2659 40.6344C2.6199 40.1202 2.04615 39.5592 1.56165 38.9727C1.28965 38.6582 1.0474 38.3139 0.851898 38.0207L0.792398 37.9272C0.592648 37.6169 0.388648 37.2982 0.261148 36.9242C0.095398 36.4822 0.052898 36.0274 0.146398 35.6067C0.252648 35.1009 0.541648 34.7567 0.945397 34.5824C1.5234 34.3317 2.1694 34.9692 2.13115 34.9522C1.6849 34.7524 1.2939 34.8629 1.1919 34.9309C0.958148 35.0924 0.809398 35.3729 0.779648 35.7002C0.758398 35.9934 0.826398 36.3164 0.975147 36.6309C1.10265 36.9072 1.28115 37.1749 1.5574 37.4979C1.7954 37.8039 2.0419 38.0844 2.28415 38.3607C2.79415 38.9344 3.32115 39.4699 3.84815 39.9629C4.3029 40.3837 4.90639 40.9319 5.55664 41.4504C5.65014 41.5227 5.67564 41.6544 5.61189 41.7564C5.56089 41.8329 5.4844 41.8754 5.39939 41.8754Z" fill="url(#paint10_linear_5510_43152)"/>
<path d="M6.89924 38.2118C6.97999 38.1226 6.96299 38.0673 6.87799 37.9823C6.24474 37.3406 5.69224 36.7668 5.19074 36.2313C4.60849 35.6151 4.09849 35.0243 3.63099 34.4293C3.16774 33.8216 2.70024 33.1671 2.41124 32.4573C2.30074 32.1683 2.17324 31.7858 2.18174 31.4076C2.18174 31.2376 2.22849 31.0803 2.30499 30.9401C2.37724 30.8083 2.48349 30.6936 2.61524 30.6086C2.61949 30.6086 2.61949 30.6043 2.61949 30.6043C2.83624 30.4726 3.18899 30.3748 3.75424 30.4726C2.76399 29.8053 2.02024 30.1836 1.70574 30.9018C1.36149 31.6838 1.94799 33.0821 2.33899 33.7281C4.25574 36.9071 6.59749 38.1778 6.59749 38.1778C6.71224 38.2501 6.83974 38.2713 6.89924 38.2118Z" fill="url(#paint11_linear_5510_43152)"/>
<path d="M9.77125 35.959C9.053 35.007 6.1715 31.9853 6.24375 30.009C6.265 29.3758 7.2765 28.7255 8.288 29.3163C8.30075 29.3248 7.5485 28.4663 6.605 28.802C5.78475 29.091 5.66575 29.8475 5.65725 29.9835C5.61475 30.4128 5.73375 30.825 5.8485 31.1395C6.0865 31.7345 6.38825 32.3125 6.82175 33.0053C7.14475 33.5323 7.523 34.0678 8.0075 34.701C8.27525 35.0453 8.54725 35.3598 8.8235 35.6573C9.0105 35.8613 9.20175 36.0568 9.39725 36.248C9.444 36.2905 9.5035 36.316 9.563 36.316C9.614 36.316 9.665 36.299 9.7075 36.2693C9.79675 36.1928 9.83925 36.0525 9.77125 35.959Z" fill="url(#paint12_linear_5510_43152)"/>
<path d="M15.4163 30.5659C15.1103 30.5659 14.5918 30.6424 14.3156 31.0632C13.7716 31.8792 13.9841 33.4092 14.4006 34.7394C14.4686 34.9562 14.5111 35.1304 14.5366 35.2749C14.5876 35.5384 14.3326 35.7509 14.0861 35.6574C13.0448 35.2664 11.8888 33.9022 10.7328 32.5464C10.6733 32.4742 10.6181 32.4062 10.5586 32.3339C10.5713 32.5294 11.2343 33.5919 12.1396 34.7352C12.3818 35.0454 13.9926 36.8007 14.8511 36.2992C15.3823 35.9932 14.5153 33.6132 14.5068 32.9969C14.5026 32.6612 14.4558 32.2277 14.5621 31.8282C14.5833 31.7262 14.6471 31.6199 14.7278 31.5137C15.1911 30.8932 16.1516 30.8677 16.5468 31.5349L16.5596 31.5519C16.3471 30.9824 16.0836 30.5659 15.4163 30.5659Z" fill="url(#paint13_linear_5510_43152)"/>
<path opacity="0.66" d="M37.2951 32.9206C37.7583 31.6116 38.0898 45.1691 38.0898 45.1691C36.8488 45.6918 35.5951 46.1508 34.2946 46.4993C33.7803 45.3391 33.1088 43.2013 33.4616 40.7788C34.0311 36.9071 36.3388 35.6193 37.2951 32.9206Z" fill="url(#paint14_linear_5510_43152)"/>
<path d="M37.0313 31.5476C37.2396 30.9824 37.5031 30.5616 38.1703 30.5616C38.4763 30.5616 38.9948 30.6381 39.271 31.0589C39.815 31.8749 39.6025 33.4049 39.186 34.7351C38.9523 35.4874 39.016 35.7636 39.016 35.7636C40.172 35.6914 41.515 34.1146 42.8538 32.5421C43.674 31.5774 44.15 30.6891 44.949 29.7031C45.4335 29.1039 46.1433 28.5004 46.9763 28.8064C49.2585 29.6521 46.4365 32.9374 45.731 33.8384C44.9278 34.8626 44.133 35.8443 44.133 35.8443C44.881 35.6701 45.3528 35.4704 46.6703 34.1189C47.7965 32.9629 48.6338 31.4711 49.2458 30.9144C50.6355 29.6521 51.4855 30.0644 51.8553 30.9059C52.1995 31.6879 51.63 33.0691 51.2433 33.7151C49.3265 36.8941 46.8785 38.1393 46.8785 38.1393C48.893 38.0501 50.4825 35.8911 51.1243 35.2366C52.9858 33.3454 53.8358 35.6871 52.82 37.3828C52.3525 38.1606 51.885 38.7088 51.0308 39.5886C49.6495 41.0038 48.349 41.6456 48.349 41.6456C48.349 41.6456 48.9058 41.7306 49.4668 41.4373C50.2233 41.0421 51.069 40.4471 51.5068 40.1071C52.7605 39.1424 53.9548 39.9711 53.4745 41.2546C52.9178 42.7378 50.8863 43.9958 49.658 44.9096C47.2695 46.6776 44.2903 48.0928 41.2728 47.9951C37.9153 47.8888 35.6033 45.5811 34.6938 42.3383C34.1668 40.4513 35.4248 37.4508 35.7436 36.6943C36.7891 34.2463 36.8231 32.1129 37.0313 31.5476Z" fill="url(#paint15_radial_5510_43152)"/>
<path d="M43.7805 39.1339C43.721 42.6954 41.4855 44.1829 39.7515 44.5101C40.4485 43.4944 40.8097 42.2534 40.7672 41.0251C40.7247 39.7926 40.2487 38.2584 39.5432 37.4254C38.8377 36.5924 39.0162 35.7721 39.0162 35.7721C39.0162 35.7721 39.4922 35.7339 39.6707 35.6276C40.2402 35.2791 40.8947 34.9986 41.3877 34.5439C41.7447 34.2081 43.84 35.5724 43.7805 39.1339Z" fill="url(#paint16_radial_5510_43152)"/>
<path d="M51.0946 30.4043C51.4431 30.6295 51.6343 31.0163 51.6386 31.403C51.6513 31.794 51.5366 32.1765 51.3963 32.542C51.0988 33.2773 50.6313 33.936 50.1511 34.5693C49.6581 35.1983 49.1268 35.806 48.5743 36.3925C48.0218 36.9833 47.4566 37.5655 46.8828 38.1478C47.5926 37.7313 48.2513 37.2298 48.8591 36.6773C49.4626 36.1205 50.0363 35.517 50.5208 34.8455C51.0181 34.1783 51.4133 33.4345 51.6726 32.6355C51.7916 32.236 51.8766 31.8068 51.8043 31.3818C51.7491 30.961 51.4813 30.5573 51.0946 30.4043Z" fill="url(#paint17_linear_5510_43152)"/>
<path d="M53.5822 40.6599C53.5695 40.5409 53.5525 40.4389 53.5312 40.3496C53.5567 40.4474 53.578 40.5494 53.5822 40.6599Z" fill="url(#paint18_radial_5510_43152)"/>
<path d="M51.98 42.4064C52.286 42.1132 52.4943 41.8667 52.6515 41.6074C52.83 41.3099 52.932 40.9954 52.9405 40.7022C52.949 40.3749 52.9193 40.1327 52.609 39.8947C52.456 39.7757 52.0268 39.8182 52.0353 39.814C52.0395 39.8097 52.048 39.8097 52.0523 39.8055C52.3115 39.7035 52.5538 39.678 52.7705 39.712C52.7705 39.712 52.7705 39.712 52.7663 39.7077L52.7705 39.712C53.136 39.7715 53.4165 40.0052 53.527 40.3495C53.5483 40.4387 53.5653 40.5407 53.578 40.6597C53.5823 40.8424 53.5525 41.0464 53.4718 41.2632C53.3485 41.5904 53.1488 41.9092 52.9065 42.2152C52.762 42.4362 52.592 42.6444 52.4348 42.8442C52.184 43.1417 51.929 43.4349 51.6443 43.6984C51.0875 44.2424 50.4713 44.7184 49.8168 45.1349C49.498 45.3304 46.3445 47.2642 43.582 47.7954C43.5778 47.7869 48.852 45.6109 51.98 42.4064Z" fill="url(#paint19_linear_5510_43152)"/>
<path d="M48.1809 41.8754C48.2107 41.8754 48.2447 41.8712 48.2702 41.8584C48.9417 41.5779 49.6089 41.1784 50.3144 40.6344C50.9604 40.1202 51.5342 39.5592 52.0187 38.9727C52.2907 38.6582 52.5329 38.3139 52.7284 38.0207L52.7879 37.9272C52.9877 37.6169 53.1917 37.2982 53.3192 36.9242C53.4849 36.4822 53.5274 36.0274 53.4339 35.6067C53.3277 35.1009 53.0387 34.7567 52.6349 34.5824C52.0569 34.3317 51.4109 34.9692 51.4492 34.9522C51.8954 34.7524 52.2864 34.8629 52.3884 34.9309C52.6222 35.0924 52.7752 35.3729 52.8049 35.7002C52.8262 35.9934 52.7582 36.3164 52.6094 36.6309C52.4819 36.9072 52.3034 37.1749 52.0272 37.4979C51.7892 37.8039 51.5427 38.0844 51.3004 38.3607C50.7904 38.9344 50.2634 39.4699 49.7364 39.9629C49.2817 40.3837 48.6782 40.9319 48.0279 41.4504C47.9344 41.5227 47.9089 41.6544 47.9727 41.7564C48.0194 41.8329 48.1002 41.8754 48.1809 41.8754Z" fill="url(#paint20_linear_5510_43152)"/>
<path d="M46.6852 38.212C46.6044 38.1227 46.6214 38.0675 46.7064 37.9825C47.3397 37.3407 47.8922 36.767 48.3937 36.2315C48.9759 35.6152 49.4859 35.0245 49.9534 34.4295C50.4124 33.826 50.8799 33.1715 51.1689 32.4617C51.2794 32.1727 51.4069 31.7902 51.3984 31.412C51.3984 31.242 51.3517 31.0847 51.2752 30.9445C51.2029 30.8127 51.0967 30.698 50.9649 30.613C50.9607 30.613 50.9607 30.6087 50.9607 30.6087C50.7439 30.477 50.3912 30.3792 49.8259 30.477C50.8162 29.8097 51.5599 30.188 51.8744 30.9062C52.2187 31.6882 51.6322 33.0865 51.2412 33.7325C49.3244 36.9115 46.9827 38.1822 46.9827 38.1822C46.8722 38.2502 46.7404 38.2715 46.6852 38.212Z" fill="url(#paint21_linear_5510_43152)"/>
<path d="M43.8138 35.959C44.532 35.007 47.4135 31.9853 47.3413 30.009C47.32 29.3758 46.3085 28.7255 45.297 29.3163C45.2843 29.3248 46.0365 28.4663 46.98 28.802C47.8003 29.091 47.9193 29.8475 47.9278 29.9835C47.9703 30.4128 47.8513 30.825 47.7365 31.1395C47.4985 31.7345 47.1968 32.3125 46.7633 33.0053C46.4403 33.5323 46.062 34.0678 45.5775 34.701C45.3098 35.0453 45.0378 35.3598 44.7615 35.6573C44.5745 35.8613 44.3833 36.0568 44.1878 36.248C44.141 36.2905 44.0815 36.316 44.022 36.316C43.971 36.316 43.92 36.299 43.8775 36.2693C43.784 36.1928 43.7415 36.0525 43.8138 35.959Z" fill="url(#paint22_linear_5510_43152)"/>
<path d="M38.1706 30.5659C38.4766 30.5659 38.9951 30.6424 39.2713 31.0632C39.8153 31.8792 39.6028 33.4092 39.1863 34.7394C39.1183 34.9562 39.0758 35.1304 39.0503 35.2749C38.9993 35.5384 39.2543 35.7509 39.5008 35.6574C40.5421 35.2664 41.6981 33.9022 42.8541 32.5464C42.9136 32.4742 42.9688 32.4062 43.0283 32.3339C43.0156 32.5294 42.3526 33.5919 41.4473 34.7352C41.2051 35.0454 39.5943 36.8007 38.7358 36.2992C38.2046 35.9932 39.0716 33.6132 39.0801 32.9969C39.0843 32.6612 39.1311 32.2277 39.0248 31.8282C39.0036 31.7262 38.9398 31.6199 38.8591 31.5137C38.3958 30.8932 37.4353 30.8677 37.0401 31.5349L37.0273 31.5519C37.2398 30.9824 37.4991 30.5659 38.1706 30.5659Z" fill="url(#paint23_linear_5510_43152)"/>
<defs>
<radialGradient id="paint0_radial_5510_43152" cx="0" cy="0" r="1" gradientUnits="userSpaceOnUse" gradientTransform="translate(26.7984 23.7574) scale(24.2079 24.2079)">
<stop offset="0.5" stop-color="#FDE030"/>
<stop offset="0.9188" stop-color="#F7C02B"/>
<stop offset="1" stop-color="#F4A223"/>
</radialGradient>
<linearGradient id="paint1_linear_5510_43152" x1="26.7984" y1="47.515" x2="26.7984" y2="0" gradientUnits="userSpaceOnUse">
<stop offset="0.1579" stop-color="#F4A223"/>
<stop offset="0.333" stop-color="#F7C02B"/>
<stop offset="0.8071" stop-color="#FDE030" stop-opacity="0"/>
</linearGradient>
<radialGradient id="paint2_radial_5510_43152" cx="0" cy="0" r="1" gradientUnits="userSpaceOnUse" gradientTransform="translate(12.3738 24.2701) rotate(-10.6121) scale(7.53825 7.16147)">
<stop stop-color="#ED7770"/>
<stop offset="0.9" stop-color="#ED7770" stop-opacity="0"/>
</radialGradient>
<radialGradient id="paint3_radial_5510_43152" cx="0" cy="0" r="1" gradientUnits="userSpaceOnUse" gradientTransform="translate(40.9498 18.927) rotate(-10.6121) scale(7.53746 7.16072)">
<stop stop-color="#ED7770"/>
<stop offset="0.9" stop-color="#ED7770" stop-opacity="0"/>
</radialGradient>
<linearGradient id="paint4_linear_5510_43152" x1="17.8534" y1="51.5053" x2="17.8534" y2="38.376" gradientUnits="userSpaceOnUse">
<stop stop-color="#BF360C"/>
<stop offset="1" stop-color="#BF360C" stop-opacity="0.2"/>
</linearGradient>
<radialGradient id="paint5_radial_5510_43152" cx="0" cy="0" r="1" gradientUnits="userSpaceOnUse" gradientTransform="translate(12.1721 36.9179) scale(16.5341)">
<stop offset="0.3302" stop-color="#FFF176"/>
<stop offset="1" stop-color="#FFC400"/>
</radialGradient>
<radialGradient id="paint6_radial_5510_43152" cx="0" cy="0" r="1" gradientUnits="userSpaceOnUse" gradientTransform="translate(15.4052 40.5659) rotate(-42.2887) scale(4.98439 4.99109)">
<stop stop-color="#FFC709"/>
<stop offset="1" stop-color="#FFC709" stop-opacity="0"/>
</radialGradient>
<linearGradient id="paint7_linear_5510_43152" x1="7.63577" y1="37.5083" x2="2.24231" y2="32.2043" gradientUnits="userSpaceOnUse">
<stop offset="0.1273" stop-color="#B7537A"/>
<stop offset="1" stop-color="#FFC400"/>
</linearGradient>
<radialGradient id="paint8_radial_5510_43152" cx="0" cy="0" r="1" gradientUnits="userSpaceOnUse" gradientTransform="translate(12.1701 36.9181) scale(16.5341 16.534)">
<stop offset="0.3302" stop-color="#FFF176"/>
<stop offset="1" stop-color="#FFC400"/>
</radialGradient>
<linearGradient id="paint9_linear_5510_43152" x1="0.000181881" y1="43.7472" x2="9.99796" y2="43.7472" gradientUnits="userSpaceOnUse">
<stop offset="0.1273" stop-color="#DA6727"/>
<stop offset="1" stop-color="#FFC400"/>
</linearGradient>
<linearGradient id="paint10_linear_5510_43152" x1="0.0990955" y1="38.1977" x2="5.63982" y2="38.1977" gradientUnits="userSpaceOnUse">
<stop offset="0.1273" stop-color="#DA6727"/>
<stop offset="1" stop-color="#FFC400"/>
</linearGradient>
<linearGradient id="paint11_linear_5510_43152" x1="1.49936" y1="34.1841" x2="6.95083" y2="34.1841" gradientUnits="userSpaceOnUse">
<stop offset="0.1273" stop-color="#DA6727"/>
<stop offset="1" stop-color="#FFC400"/>
</linearGradient>
<linearGradient id="paint12_linear_5510_43152" x1="5.54076" y1="32.5177" x2="9.80512" y2="32.5177" gradientUnits="userSpaceOnUse">
<stop offset="0.1273" stop-color="#DA6727"/>
<stop offset="1" stop-color="#FFC400"/>
</linearGradient>
<linearGradient id="paint13_linear_5510_43152" x1="10.5603" y1="33.4742" x2="17.0225" y2="33.4742" gradientUnits="userSpaceOnUse">
<stop stop-color="#FFC400"/>
<stop offset="0.8727" stop-color="#DA6727"/>
</linearGradient>
<linearGradient id="paint14_linear_5510_43152" x1="35.7274" y1="51.5053" x2="35.7274" y2="38.376" gradientUnits="userSpaceOnUse">
<stop stop-color="#BF360C"/>
<stop offset="1" stop-color="#BF360C" stop-opacity="0.2"/>
</linearGradient>
<radialGradient id="paint15_radial_5510_43152" cx="0" cy="0" r="1" gradientUnits="userSpaceOnUse" gradientTransform="translate(41.4137 36.9179) rotate(180) scale(16.5341)">
<stop offset="0.3302" stop-color="#FFF176"/>
<stop offset="1" stop-color="#FFC400"/>
</radialGradient>
<radialGradient id="paint16_radial_5510_43152" cx="0" cy="0" r="1" gradientUnits="userSpaceOnUse" gradientTransform="translate(38.1952 40.5884) rotate(-137.711) scale(4.98439 4.99109)">
<stop stop-color="#FFC709"/>
<stop offset="1" stop-color="#FFC709" stop-opacity="0"/>
</radialGradient>
<linearGradient id="paint17_linear_5510_43152" x1="45.9479" y1="37.5083" x2="51.3413" y2="32.2043" gradientUnits="userSpaceOnUse">
<stop offset="0.1273" stop-color="#B7537A"/>
<stop offset="1" stop-color="#FFC400"/>
</linearGradient>
<radialGradient id="paint18_radial_5510_43152" cx="0" cy="0" r="1" gradientUnits="userSpaceOnUse" gradientTransform="translate(41.4114 36.9181) rotate(180) scale(16.5334 16.534)">
<stop offset="0.3302" stop-color="#FFF176"/>
<stop offset="1" stop-color="#FFC400"/>
</radialGradient>
<linearGradient id="paint19_linear_5510_43152" x1="53.5812" y1="43.7472" x2="43.5835" y2="43.7472" gradientUnits="userSpaceOnUse">
<stop offset="0.1273" stop-color="#DA6727"/>
<stop offset="1" stop-color="#FFC400"/>
</linearGradient>
<linearGradient id="paint20_linear_5510_43152" x1="53.4843" y1="38.1977" x2="47.9435" y2="38.1977" gradientUnits="userSpaceOnUse">
<stop offset="0.1273" stop-color="#DA6727"/>
<stop offset="1" stop-color="#FFC400"/>
</linearGradient>
<linearGradient id="paint21_linear_5510_43152" x1="52.0839" y1="34.1843" x2="46.6323" y2="34.1843" gradientUnits="userSpaceOnUse">
<stop offset="0.1273" stop-color="#DA6727"/>
<stop offset="1" stop-color="#FFC400"/>
</linearGradient>
<linearGradient id="paint22_linear_5510_43152" x1="48.043" y1="32.5177" x2="43.7787" y2="32.5177" gradientUnits="userSpaceOnUse">
<stop offset="0.1273" stop-color="#DA6727"/>
<stop offset="1" stop-color="#FFC400"/>
</linearGradient>
<linearGradient id="paint23_linear_5510_43152" x1="43.0255" y1="33.4742" x2="36.5632" y2="33.4742" gradientUnits="userSpaceOnUse">
<stop stop-color="#FFC400"/>
<stop offset="0.8727" stop-color="#DA6727"/>
</linearGradient>
</defs>
</svg>
