<svg width="50" height="49" viewBox="0 0 50 49" fill="none" xmlns="http://www.w3.org/2000/svg">
<path d="M24.925 48.9033C12.9465 48.9033 0.0234375 41.3899 0.0234375 24.9033C0.0234375 8.41674 12.9465 0.90332 24.925 0.90332C31.5798 0.90332 37.7193 3.09294 42.2703 7.08579C47.2077 11.465 49.8267 17.6475 49.8267 24.9033C49.8267 32.1591 47.2077 38.2987 42.2703 42.6779C37.7193 46.6708 31.5369 48.9033 24.925 48.9033Z" fill="url(#paint0_radial_5510_42991)"/>
<path d="M45.4841 10.6367C47.7725 14.329 48.966 18.7254 48.966 23.6156C48.966 30.8714 46.3471 37.011 41.4097 41.3902C36.8587 45.3831 30.6762 47.6156 24.0644 47.6156C16.3106 47.6156 8.17891 44.46 3.37891 37.7666C7.99858 45.3487 16.6884 48.9036 24.9231 48.9036C31.5349 48.9036 37.7174 46.6711 42.2683 42.6782C47.2057 38.299 49.8247 32.1594 49.8247 24.9036C49.8247 19.4339 48.3349 14.5737 45.4841 10.6367Z" fill="#EB8F00"/>
<path d="M25.2696 33.6623C23.7325 33.6623 22.2084 33.4046 20.7615 32.8894C18.9797 32.2755 17.0434 33.2243 16.4295 35.0018C16.0817 36.0064 16.2234 37.1141 16.8116 37.9986C18.6577 40.8322 21.5772 42.3778 25.2696 42.3778C28.9619 42.3778 31.8814 40.8322 33.7275 37.9986C34.7708 36.4315 34.3415 34.3148 32.7744 33.2716C31.8899 32.6834 30.7823 32.5417 29.7776 32.8894C28.3307 33.4046 26.8066 33.6623 25.2696 33.6623Z" fill="#422B0D"/>
<path opacity="0.8" d="M12.3025 36.195C16.452 36.195 19.8159 33.0234 19.8159 29.1109C19.8159 25.1985 16.452 22.0269 12.3025 22.0269C8.15293 22.0269 4.78906 25.1985 4.78906 29.1109C4.78906 33.0234 8.15293 36.195 12.3025 36.195Z" fill="url(#paint1_radial_5510_42991)"/>
<path opacity="0.8" d="M38.2361 36.195C42.3856 36.195 45.7495 33.0234 45.7495 29.1109C45.7495 25.1985 42.3856 22.0269 38.2361 22.0269C34.0865 22.0269 30.7227 25.1985 30.7227 29.1109C30.7227 33.0234 34.0865 36.195 38.2361 36.195Z" fill="url(#paint2_radial_5510_42991)"/>
<path d="M43.8088 12.6545C40.2839 11.6627 37.695 14.5436 37.695 14.5436C37.695 14.5436 37.3945 11.2763 34.3805 10.2502C30.7655 9.0094 26.9487 10.9844 26.7212 16.1064C26.4635 21.9411 34.183 29.6005 34.183 29.6005C34.183 29.6005 43.7659 27.0244 46.9043 21.5632C49.4589 17.1196 46.475 13.4015 43.8088 12.6545Z" fill="#F44336"/>
<path d="M43.8114 12.6544C43.3777 12.5385 42.9312 12.487 42.4847 12.4955C43.747 13.3413 44.7473 14.522 45.3699 15.9045C45.9752 17.3599 46.1341 19.2404 44.9835 21.4859C42.489 26.3675 34.8081 29.39 34.25 29.6004C34.9498 29.4029 43.9058 26.8269 46.9241 21.576C49.4614 17.1195 46.4775 13.4015 43.8114 12.6544Z" fill="#C62828"/>
<path d="M37.6933 15.0715C37.6676 14.625 37.5989 14.1785 37.4958 13.7405C37.2468 12.4783 36.4654 11.3835 35.3491 10.7352C34.5849 10.2886 33.7391 10.0053 32.8633 9.89795C32.8633 9.89795 34.1513 10.2886 35.0701 12.0704C35.5381 13.0064 35.8171 14.0282 35.8858 15.0715C35.8815 15.4536 35.9502 15.8271 36.0876 16.1835C36.2422 16.5398 36.62 16.7502 37.0064 16.6901C37.5946 16.5398 37.7234 15.8056 37.6933 15.0715Z" fill="#C62828"/>
<path d="M29.3462 13.0235C30.1491 12.0275 31.4672 11.0786 32.7294 11.9545C33.3992 12.4225 33.4078 13.7491 32.5877 14.3459C31.2053 15.3591 31.1409 16.0246 30.9863 16.5827C30.7974 17.2482 30.6772 18.0425 30.0718 18.3774C29.4664 18.7123 28.9341 18.3774 28.6164 17.42C28.0754 15.9259 28.3502 14.26 29.3462 13.0235Z" fill="#FF847A"/>
<path d="M15.1016 10.1641C11.6196 11.2933 11.0615 15.1272 11.0615 15.1272C11.0615 15.1272 9.00068 12.5512 5.90945 13.3841C2.22143 14.3544 0.139145 18.1154 2.77099 22.499C5.81929 27.5222 16.484 29.6045 16.484 29.6045C16.484 29.6045 23.0315 22.1512 22.6193 15.8657C22.2801 10.748 17.7334 9.30972 15.1016 10.1641Z" fill="#F44336"/>
<path d="M15.101 10.1641C14.6759 10.3015 14.2681 10.499 13.8945 10.748C15.4144 10.7523 16.8999 11.1817 18.1879 11.9888C19.5017 12.8475 20.6738 14.3416 20.9657 16.8532C21.5969 22.3015 16.8741 29.0722 16.5092 29.5659C16.9858 29.0164 23.0094 21.9065 22.6144 15.8614C22.2795 10.748 17.7328 9.30974 15.101 10.1641Z" fill="#C62828"/>
<path d="M11.3577 15.5782C11.0915 15.2133 10.791 14.8784 10.4561 14.5778C9.55447 13.6591 8.3051 13.1696 7.02138 13.2383C6.14123 13.2898 5.27826 13.5174 4.48828 13.9167C4.48828 13.9167 5.7763 13.526 7.52799 14.5049C8.44249 15.0329 9.23676 15.7413 9.87218 16.5828C10.0783 16.9049 10.3445 17.1796 10.6579 17.3986C10.9842 17.609 11.4135 17.5703 11.7012 17.3084C12.0833 16.8447 11.787 16.1664 11.3577 15.5782Z" fill="#C62828"/>
<path d="M3.28709 18.5064C3.30427 18.1458 3.36867 17.7895 3.476 17.446C3.65203 16.7247 4.16294 16.1279 4.84559 15.8403C5.50248 15.6342 6.41267 15.7802 6.76473 16.437C7.07815 17.0209 6.8506 17.7251 6.67886 18.3691C6.5243 19.1075 6.43843 19.8632 6.42126 20.6188C6.42555 21.237 5.93182 21.7394 5.31357 21.748C4.72967 21.748 4.27457 21.2413 3.94827 20.7562C3.49317 20.095 3.26133 19.3093 3.28709 18.5064Z" fill="#FF847A"/>
<defs>
<radialGradient id="paint0_radial_5510_42991" cx="0" cy="0" r="1" gradientUnits="userSpaceOnUse" gradientTransform="translate(24.925 24.9033) scale(24.455 24.455)">
<stop offset="0.5" stop-color="#FDE030"/>
<stop offset="0.92" stop-color="#F7C02B"/>
<stop offset="1" stop-color="#F4A223"/>
</radialGradient>
<radialGradient id="paint1_radial_5510_42991" cx="0" cy="0" r="1" gradientUnits="userSpaceOnUse" gradientTransform="translate(12.3025 25.8525) scale(8.18828 7.35274)">
<stop stop-color="#ED7770"/>
<stop offset="0.9" stop-color="#ED7770" stop-opacity="0"/>
</radialGradient>
<radialGradient id="paint2_radial_5510_42991" cx="0" cy="0" r="1" gradientUnits="userSpaceOnUse" gradientTransform="translate(50.4808 1083.09) scale(8.35492)">
<stop stop-color="#ED7770"/>
<stop offset="0.9" stop-color="#ED7770" stop-opacity="0"/>
</radialGradient>
</defs>
</svg>
