<svg width="51" height="48" viewBox="0 0 51 48" fill="none" xmlns="http://www.w3.org/2000/svg">
<path d="M25.5461 48C13.5676 48 0.644531 40.4866 0.644531 24C0.644531 7.51342 13.5676 0 25.5461 0C32.2009 0 38.3404 2.18962 42.8914 6.18247C47.8288 10.5617 50.4478 16.7442 50.4478 24C50.4478 31.2558 47.8288 37.3954 42.8914 41.7746C38.3404 45.7674 32.1579 48 25.5461 48Z" fill="url(#paint0_radial_5510_43224)"/>
<path d="M46.1052 9.73291C48.3936 13.4252 49.5871 17.8216 49.5871 22.7118C49.5871 29.9676 46.9682 36.1072 42.0308 40.4864C37.4798 44.4792 31.2973 46.7118 24.6855 46.7118C16.9317 46.7118 8.8 43.5562 4 36.8628C8.61968 44.4449 17.3095 47.9998 25.5442 47.9998C32.156 47.9998 38.3385 45.7673 42.8894 41.7744C47.8268 37.3952 50.4458 31.2556 50.4458 23.9998C50.4458 18.53 48.956 13.6699 46.1052 9.73291Z" fill="#EB8F00"/>
<path d="M19.2772 21.4196L19.2128 21.3338L19.0282 21.0976L18.8006 20.8529C18.7062 20.7456 18.5946 20.6425 18.4872 20.5309C18.3799 20.4193 18.2468 20.3119 18.1266 20.2218C18.0149 20.1359 17.8947 20.0543 17.7659 19.9899C17.6801 19.9427 17.5856 19.9041 17.4869 19.8826C17.4568 19.8783 17.4268 19.8783 17.3967 19.8826C17.3967 19.8826 17.3709 19.8826 17.3581 19.8826H17.3237H17.4396H17.2035C17.1391 19.8826 17.182 19.8826 17.2035 19.8826H17.2378H17.1906C17.0919 19.9041 16.9974 19.9384 16.9073 19.9899C16.7827 20.0586 16.6582 20.1359 16.5466 20.2218C16.4221 20.3162 16.3019 20.4193 16.1903 20.5309C15.9627 20.7499 15.7609 20.9602 15.6321 21.1277L15.4089 21.3853L15.3101 21.5012C14.6919 22.1924 13.6486 22.3041 12.8972 21.7631C12.4164 21.4282 12.1717 20.8486 12.2661 20.269C12.2661 20.269 12.2962 20.0973 12.3777 19.7924C12.5065 19.3588 12.6869 18.938 12.9144 18.5431C13.2793 17.8991 13.7731 17.3366 14.3656 16.8901C14.7563 16.5896 15.1899 16.3491 15.6536 16.1817C15.7824 16.1302 15.9155 16.0915 16.0486 16.0572C16.1903 16.0143 16.3319 15.9842 16.4779 15.9584L16.7398 15.9198L16.9588 15.894H17.1949H17.5341H17.7531C17.899 15.894 18.0407 15.9327 18.1824 15.9542C18.4572 16.0014 18.7319 16.0744 18.9938 16.1731C19.4575 16.3406 19.8912 16.581 20.2819 16.8815C20.8743 17.328 21.3681 17.8905 21.733 18.5345C21.8661 18.7577 21.982 18.9939 22.0765 19.2343C22.1581 19.4275 22.2268 19.6207 22.2826 19.8225C22.3126 19.9255 22.3384 20.0286 22.3513 20.1316V20.2389C22.4801 21.1148 21.8704 21.9305 20.9946 22.0593C20.9731 22.0636 20.9516 22.0636 20.9302 22.0679C20.3033 22.1581 19.6765 21.9091 19.2772 21.4196Z" fill="#422B0D"/>
<path d="M36.219 21.4196L36.1503 21.3338L35.9657 21.0976L35.7381 20.8529C35.6437 20.7456 35.5321 20.6425 35.4247 20.5309C35.3174 20.4193 35.1843 20.3119 35.0641 20.2218C34.9524 20.1359 34.8322 20.0543 34.7034 19.9899C34.6176 19.9427 34.5231 19.9041 34.4244 19.8826C34.3943 19.8783 34.3643 19.8783 34.3342 19.8826C34.3342 19.8826 34.3084 19.8826 34.2956 19.8826H34.2612H34.3771H34.141C34.0766 19.8826 34.1195 19.8826 34.141 19.8826H34.1753H34.1281C34.0294 19.9041 33.9349 19.9384 33.8448 19.9899C33.7202 20.0543 33.6 20.1359 33.4884 20.2218C33.3596 20.3162 33.2394 20.4193 33.1278 20.5309C32.9002 20.7499 32.6984 20.9602 32.5696 21.1277L32.3464 21.3853L32.2519 21.5012C31.6294 22.1924 30.5904 22.3041 29.8347 21.7631C29.3539 21.4282 29.1092 20.8486 29.2036 20.269C29.2036 20.269 29.2337 20.0973 29.3195 19.7924C29.4483 19.3545 29.6244 18.9338 29.8562 18.5431C30.2211 17.8991 30.7106 17.3366 31.3031 16.8901C31.6938 16.5896 32.1274 16.3491 32.5911 16.1817C32.7199 16.1302 32.853 16.0915 32.9861 16.0572C33.1278 16.0143 33.2694 15.9842 33.4154 15.9584L33.6816 15.9198L33.8963 15.894H34.1324H34.4716H34.6905C34.8365 15.894 34.9782 15.9327 35.1199 15.9542C35.399 16.0014 35.6694 16.0744 35.9313 16.1731C36.395 16.3406 36.8287 16.581 37.2194 16.8815C37.8118 17.328 38.3056 17.8905 38.6705 18.5345C38.8036 18.7577 38.9195 18.9939 39.014 19.2343C39.0956 19.4232 39.1643 19.6164 39.2201 19.8139C39.2501 19.9169 39.2759 20.02 39.2888 20.123V20.2304C39.4261 21.1062 38.8251 21.9262 37.9492 22.0636C37.9363 22.0636 37.9235 22.0679 37.9106 22.0679C37.2709 22.1753 36.6226 21.9262 36.219 21.4196Z" fill="#422B0D"/>
<path d="M42.0634 27.7439C41.4624 26.6577 40.1572 26.1811 38.998 26.619C34.593 27.9027 30.0248 28.5425 25.4352 28.521C20.8456 28.5425 16.2774 27.9027 11.8724 26.619C10.7175 26.1811 9.41228 26.6534 8.8112 27.7353C8.2273 28.8129 8.64806 30.0623 9.14179 31.14C11.8981 37.1936 17.9733 40.8172 25.4008 40.8387H25.4695C32.8971 40.8387 38.9722 37.1936 41.7329 31.14C42.2223 30.0537 42.6473 28.8215 42.0634 27.7439Z" fill="#422B0D"/>
<path d="M32.3091 39.1299C32.1502 38.984 31.9871 38.8509 31.8239 38.7006C30.0722 37.1593 27.8053 36.3307 25.4697 36.3779C23.0654 36.3392 20.7255 37.1378 18.8493 38.6405C18.6862 38.7736 18.5144 38.9024 18.3556 39.0698C18.1967 39.2373 18.1109 39.3575 18.0078 39.4992C20.3692 40.4223 22.8851 40.8945 25.4225 40.8816H25.4912C27.9212 40.8816 30.3298 40.448 32.6053 39.5936C32.5194 39.4305 32.4207 39.2759 32.3091 39.1299Z" fill="#ED7770"/>
<path d="M38.9975 26.6189C34.5925 27.9026 30.0244 28.5423 25.4347 28.5209C20.8451 28.5423 16.277 27.9026 11.872 26.6189C10.717 26.181 9.41185 26.6532 8.81078 27.7352C8.72491 27.8983 8.65622 28.07 8.61328 28.2461C8.75496 28.3191 8.91811 28.392 9.11131 28.4693C14.2805 31.0582 19.995 32.372 25.7739 32.3033C31.3167 32.3677 36.795 31.1613 41.8011 28.7827C42.0029 28.6969 42.1703 28.6153 42.3206 28.538C42.2863 28.259 42.1961 27.9842 42.063 27.7352C41.4619 26.6532 40.1568 26.1767 38.9975 26.6189Z" fill="white"/>
<path d="M42.0806 27.7482C41.471 26.662 40.1615 26.1811 38.9937 26.619C34.5887 27.9027 30.0205 28.5425 25.4352 28.521C20.8456 28.5425 16.2774 27.9027 11.8724 26.619C10.7175 26.1811 9.41228 26.6534 8.8112 27.7353C8.2273 28.8129 8.64806 30.0623 9.14179 31.14C9.36076 31.6251 9.60548 32.1017 9.87596 32.5611C9.87596 32.5611 8.97435 29.2208 9.75575 28.2505C10.0219 27.8383 10.4684 27.5807 10.9579 27.555C11.1597 27.555 11.3572 27.5893 11.5504 27.6494C16.0327 28.9675 20.6824 29.633 25.3579 29.6244H25.5082C30.1837 29.633 34.8334 28.9675 39.3157 27.6494C39.5089 27.5893 39.7064 27.555 39.9082 27.555C40.3976 27.5807 40.8484 27.8383 41.1146 28.2505C41.9089 29.2208 40.9944 32.5739 40.9944 32.5739C41.2606 32.1146 41.5268 31.6423 41.75 31.1528C42.2395 30.0752 42.6645 28.8301 42.0806 27.7482Z" fill="#EB8F00"/>
<defs>
<radialGradient id="paint0_radial_5510_43224" cx="0" cy="0" r="1" gradientUnits="userSpaceOnUse" gradientTransform="translate(25.5461 24) scale(24.455 24.455)">
<stop offset="0.5" stop-color="#FDE030"/>
<stop offset="0.92" stop-color="#F7C02B"/>
<stop offset="1" stop-color="#F4A223"/>
</radialGradient>
</defs>
</svg>
