<svg width="51" height="48" viewBox="0 0 51 48" fill="none" xmlns="http://www.w3.org/2000/svg">
<path d="M25.7883 48C13.8098 48 0.886719 40.4866 0.886719 24C0.886719 7.51342 13.8098 0 25.7883 0C32.4431 0 38.5826 2.18962 43.1336 6.18247C48.071 10.5617 50.6899 16.7442 50.6899 24C50.6899 31.2558 48.071 37.3954 43.1336 41.7746C38.5826 45.7674 32.4001 48 25.7883 48Z" fill="url(#paint0_radial_5510_43079)"/>
<path d="M46.3513 9.7334C48.6396 13.4257 49.8332 17.8221 49.8332 22.7123C49.8332 29.9681 47.2142 36.1076 42.2769 40.4869C37.7259 44.4797 31.5434 46.7123 24.9316 46.7123C17.1778 46.7123 9.04609 43.5567 4.24609 36.8633C8.86577 44.4454 17.5556 48.0003 25.7903 48.0003C32.4021 48.0003 38.5846 45.7677 43.1355 41.7749C48.0729 37.3957 50.6919 31.2561 50.6919 24.0003C50.6919 18.5305 49.2021 13.6704 46.3513 9.7334Z" fill="#EB8F00"/>
<path d="M25.958 31.084C30.5949 31.084 33.8578 33.4883 34.8453 34.991C35.2231 35.4675 35.3047 36.1115 35.06 36.6654C34.8711 37.0131 34.5104 37.2278 34.1154 37.2235C33.9695 37.2149 33.8235 37.1849 33.6861 37.1377C31.1745 36.4207 28.5727 36.06 25.958 36.0643C23.3562 36.0471 20.763 36.4249 18.2729 37.1806C18.1355 37.2278 17.9895 37.2579 17.8435 37.2665C17.4485 37.2793 17.0793 37.0647 16.899 36.7083C16.65 36.1545 16.7358 35.5062 17.1136 35.0339C18.0582 33.4883 21.3641 31.084 25.958 31.084Z" fill="#422B0D"/>
<path d="M14.3671 41.8604C11.5764 41.8604 9.42969 39.1556 9.42969 36.8371C9.42969 35.2057 10.1596 33.3166 11.19 30.6976C11.3188 30.3112 11.4905 29.9248 11.6622 29.4955C12.2633 27.9413 12.9503 26.4214 13.7231 24.9445C13.8776 24.6482 14.2297 24.5194 14.5388 24.6439C14.6676 24.7083 14.7749 24.8157 14.8393 24.9445C15.4834 26.2754 16.2132 27.9069 16.9431 29.5813C18.7463 33.6171 19.2615 35.2486 19.2615 36.8801C19.3045 39.1556 17.1148 41.8604 14.3671 41.8604Z" fill="url(#paint1_radial_5510_43079)"/>
<path d="M17.3733 38.765C16.7422 39.7396 15.3125 39.555 15.3125 37.9363C15.3125 36.9016 15.5229 31.5864 16.4116 32.3292C17.8714 33.5399 18.2835 37.3868 17.3733 38.765Z" fill="#81D4FA"/>
<path d="M11.3612 17.045C10.8245 17.8393 9.5494 17.3283 9.92292 16.3666C10.8031 14.2757 12.4474 12.6013 14.5254 11.6911C15.2854 11.3305 16.1054 11.1029 16.9426 11.0128C17.3676 10.9269 17.7841 11.2017 17.87 11.6267C17.9558 12.0518 17.6811 12.4682 17.2517 12.5541H17.1959C14.8002 13.3484 12.7437 14.9326 11.3612 17.045Z" fill="#422B0D"/>
<path d="M40.2518 17.045C40.7885 17.8393 42.0636 17.3283 41.6901 16.3666C40.8057 14.2715 39.1527 12.597 37.0661 11.6911C36.3062 11.3305 35.4947 11.1029 34.6575 11.0128C34.2325 10.9269 33.816 11.2017 33.7345 11.6267C33.6486 12.0518 33.9234 12.4682 34.3484 12.5541H34.4042C36.8042 13.3441 38.8693 14.9283 40.2518 17.045Z" fill="#422B0D"/>
<path d="M17.6574 17.1479C15.8584 17.1479 14.2227 18.6678 14.2227 21.1923C14.2227 23.7168 15.8584 25.2324 17.6574 25.2324C19.4563 25.2324 21.0921 23.7125 21.0921 21.1923C21.0921 18.6721 19.4563 17.1479 17.6574 17.1479Z" fill="#422B0D"/>
<path d="M17.4941 18.8352C16.8844 18.5432 16.1503 18.8008 15.854 19.4105C15.6265 19.887 15.7295 20.4581 16.1116 20.8273C16.7213 21.1192 17.4555 20.8616 17.7517 20.252C17.9793 19.7754 17.8762 19.2044 17.4941 18.8352Z" fill="#896024"/>
<path d="M34.1183 17.1475C32.3194 17.1475 30.6836 18.6673 30.6836 21.1918C30.6836 23.7163 32.3194 25.2319 34.1183 25.2319C35.9172 25.2319 37.553 23.712 37.553 21.1918C37.553 18.6716 35.9258 17.1475 34.1183 17.1475Z" fill="#422B0D"/>
<path d="M33.9589 18.8352C33.3493 18.5432 32.6151 18.8008 32.3189 19.4105C32.0913 19.887 32.1944 20.4581 32.5765 20.8273C33.1861 21.1192 33.9203 20.8616 34.2166 20.252C34.4441 19.7754 34.3411 19.2044 33.9589 18.8352Z" fill="#896024"/>
<defs>
<radialGradient id="paint0_radial_5510_43079" cx="0" cy="0" r="1" gradientUnits="userSpaceOnUse" gradientTransform="translate(25.7883 24) scale(24.455 24.455)">
<stop offset="0.5" stop-color="#FDE030"/>
<stop offset="0.92" stop-color="#F7C02B"/>
<stop offset="1" stop-color="#F4A223"/>
</radialGradient>
<radialGradient id="paint1_radial_5510_43079" cx="0" cy="0" r="1" gradientUnits="userSpaceOnUse" gradientTransform="translate(14.7191 26.7876) scale(11.3431 17.4684)">
<stop offset="0.46" stop-color="#29B6F6"/>
<stop offset="1" stop-color="#1E88E5"/>
</radialGradient>
</defs>
</svg>
