<svg width="51" height="48" viewBox="0 0 51 48" fill="none" xmlns="http://www.w3.org/2000/svg">
<path d="M25.1438 48C13.1653 48 0.242188 40.4866 0.242188 24C0.242188 7.51342 13.1653 0 25.1438 0C31.7985 0 37.9381 2.18962 42.4891 6.18247C47.4264 10.5617 50.0454 16.7442 50.0454 24C50.0454 31.2558 47.4264 37.3954 42.4891 41.7746C37.9381 45.7674 31.7556 48 25.1438 48Z" fill="url(#paint0_radial_5510_43099)"/>
<path d="M45.7067 9.7334C47.9951 13.4257 49.1887 17.8221 49.1887 22.7123C49.1887 29.9681 46.5697 36.1076 41.6323 40.4869C37.0813 44.4797 30.8989 46.7123 24.2871 46.7123C16.5332 46.7123 8.40156 43.5567 3.60156 36.8633C8.22124 44.4454 16.911 48.0003 25.1457 48.0003C31.7576 48.0003 37.94 45.7677 42.491 41.7749C47.4284 37.3957 50.0474 31.2561 50.0474 24.0003C50.0474 18.5305 48.5576 13.6704 45.7067 9.7334Z" fill="#EB8F00"/>
<path d="M25.3109 40.3576C21.6443 40.3576 19.0297 37.657 18.2397 36.1586C17.9392 35.652 17.8833 35.0338 18.0808 34.4799C18.2011 34.1493 18.5188 33.9261 18.8708 33.9175C18.991 33.9218 19.107 33.9432 19.2186 33.9862C21.0647 34.7118 22.6833 35.7636 25.3324 35.7636C27.9814 35.7636 29.6257 34.7118 31.4461 33.9862C31.5578 33.9432 31.6737 33.9175 31.7939 33.9175C32.1417 33.9347 32.4422 34.1536 32.5624 34.4799C32.7599 35.0338 32.7041 35.652 32.4036 36.1586C31.5921 37.657 28.9774 40.3576 25.3109 40.3576Z" fill="#422B0D"/>
<path d="M19.0954 20.338L19.0096 20.4239C18.9409 20.5012 18.8679 20.5742 18.7906 20.6386L18.4944 20.8833C18.3698 20.9778 18.2282 21.0808 18.065 21.1838C17.9019 21.2869 17.7344 21.3856 17.5498 21.4801C17.3609 21.5745 17.1634 21.6561 16.9616 21.7248C16.7512 21.7892 16.5366 21.8407 16.3176 21.8837C16.0944 21.918 15.8711 21.9352 15.6435 21.9352H15.4418C15.3301 21.9352 15.3087 21.9352 15.2657 21.9352L14.9652 21.8965C14.7462 21.8536 14.5316 21.8021 14.3212 21.7377C14.1151 21.6604 13.9176 21.5702 13.7244 21.4672C13.5398 21.3727 13.3681 21.2697 13.2092 21.171C12.9559 21.0035 12.7198 20.8146 12.4965 20.6085L12.226 20.3595L12.1187 20.2522C11.5691 19.7499 10.7405 19.7198 10.1566 20.1792C9.73156 20.5055 9.58988 21.0894 9.82172 21.5745L9.88612 21.7033C9.94194 21.8278 10.0063 21.9481 10.075 22.064C10.5173 22.8024 11.1183 23.4336 11.831 23.9187C12.1702 24.1549 12.5308 24.3566 12.9087 24.5198C13.3251 24.7044 13.7545 24.8461 14.1967 24.9491C14.4328 24.9921 14.6518 25.035 14.9394 25.0608C15.0725 25.0608 15.2271 25.0865 15.2958 25.0865H15.6307C16.1115 25.0779 16.5881 25.0307 17.0604 24.9363C17.5026 24.8332 17.9319 24.6915 18.3484 24.5069C18.7262 24.3438 19.0868 24.142 19.426 23.9058C19.9584 23.5452 20.4307 23.0987 20.8214 22.5878L21.0274 22.3001L21.1992 22.0296C21.2636 21.9266 21.3194 21.815 21.3666 21.699L21.4139 21.5917C21.6715 20.9778 21.3795 20.2694 20.7656 20.0117C20.7226 19.9946 20.6797 19.9774 20.6367 19.9688C20.0958 19.7971 19.499 19.9388 19.0954 20.338Z" fill="#422B0D"/>
<path d="M38.4157 20.338L38.3299 20.4239C38.2612 20.5012 38.1882 20.5742 38.1109 20.6386L37.8147 20.8833C37.6902 20.9778 37.5485 21.0808 37.3853 21.1838C37.2222 21.2869 37.0547 21.3856 36.8701 21.4801C36.6812 21.5745 36.4837 21.6561 36.2819 21.7248C36.0716 21.7892 35.8569 21.8407 35.6379 21.8837C35.4147 21.918 35.1914 21.9352 34.9639 21.9352H34.7621C34.6504 21.9352 34.629 21.9352 34.586 21.9352L34.2855 21.8965C34.0665 21.8536 33.8519 21.8021 33.6415 21.7377C33.4354 21.6604 33.2379 21.5702 33.0447 21.4672C32.8601 21.3727 32.6884 21.2697 32.5295 21.171C32.2762 21.0035 32.0401 20.8146 31.8168 20.6085L31.5463 20.3595L31.439 20.2522C30.8894 19.7499 30.0608 19.7198 29.4769 20.1792C29.0519 20.5055 28.9102 21.0894 29.142 21.5745L29.2064 21.7033C29.2622 21.8278 29.3266 21.9481 29.3953 22.064C29.8376 22.8024 30.4386 23.4336 31.1513 23.9187C31.4905 24.1549 31.8512 24.3566 32.229 24.5198C32.6497 24.7044 33.0877 24.8504 33.5385 24.9491C33.7746 24.9921 33.9936 25.035 34.2812 25.0608C34.4143 25.0608 34.5689 25.0865 34.6376 25.0865H34.9724C35.4533 25.0779 35.9299 25.0307 36.4021 24.9363C36.8529 24.8375 37.2909 24.6915 37.7116 24.5069C38.0894 24.3438 38.4501 24.142 38.7893 23.9058C39.3216 23.5452 39.7939 23.0987 40.1846 22.5878L40.3907 22.3001L40.5624 22.0296C40.6268 21.9266 40.6826 21.815 40.7299 21.699L40.7771 21.5917C41.0347 20.9778 40.7427 20.2694 40.1288 20.0117C40.0859 19.9946 40.0429 19.9774 40 19.9688C39.4461 19.7756 38.8279 19.9216 38.4157 20.338Z" fill="#422B0D"/>
<path d="M10.038 15.5764C9.73749 15.8898 9.23517 15.9027 8.92175 15.5978C8.63839 15.3273 8.59975 14.8851 8.8273 14.5674C9.30816 13.8805 9.89635 13.2751 10.5747 12.7771C12.3736 11.3903 14.6277 10.7334 16.8903 10.9438C17.955 11.0769 17.7489 12.4379 16.8001 12.5281C14.2584 12.7298 11.8713 13.8075 10.038 15.5764Z" fill="#422B0D"/>
<path d="M40.121 15.5764C40.4215 15.8898 40.9239 15.9027 41.2373 15.5978C41.5206 15.3273 41.5593 14.8851 41.3317 14.5674C40.8509 13.8805 40.2627 13.2751 39.5843 12.7771C37.7854 11.3903 35.5314 10.7334 33.2688 10.9438C32.204 11.0769 32.4101 12.4379 33.3589 12.5281C35.9006 12.7298 38.2877 13.8075 40.121 15.5764Z" fill="#422B0D"/>
<defs>
<radialGradient id="paint0_radial_5510_43099" cx="0" cy="0" r="1" gradientUnits="userSpaceOnUse" gradientTransform="translate(25.1438 24) scale(24.455 24.455)">
<stop offset="0.5" stop-color="#FDE030"/>
<stop offset="0.92" stop-color="#F7C02B"/>
<stop offset="1" stop-color="#F4A223"/>
</radialGradient>
</defs>
</svg>
