<svg width="40" height="40" viewBox="0 0 40 40" fill="none" xmlns="http://www.w3.org/2000/svg">
<g id="&#240;&#159;&#166;&#134; emoji &#34;slightly smiling face&#34;">
<path id="Vector" d="M20 40C31.0457 40 40 31.0457 40 20C40 8.95431 31.0457 0 20 0C8.95431 0 0 8.95431 0 20C0 31.0457 8.95431 40 20 40Z" fill="#FFDD67"/>
<g id="Group">
<path id="Vector_2" d="M12.3372 19.7331C14.1782 19.7331 15.6706 18.2407 15.6706 16.3997C15.6706 14.5588 14.1782 13.0664 12.3372 13.0664C10.4963 13.0664 9.00391 14.5588 9.00391 16.3997C9.00391 18.2407 10.4963 19.7331 12.3372 19.7331Z" fill="#664E27"/>
<path id="Vector_3" d="M27.6732 19.7331C29.5141 19.7331 31.0065 18.2407 31.0065 16.3997C31.0065 14.5588 29.5141 13.0664 27.6732 13.0664C25.8322 13.0664 24.3398 14.5588 24.3398 16.3997C24.3398 18.2407 25.8322 19.7331 27.6732 19.7331Z" fill="#664E27"/>
<path id="Vector_4" d="M28.4018 25.5328C23.0018 29.3328 17.0018 29.2662 11.6018 25.5328C10.9352 25.0662 10.4018 25.8662 10.8018 26.5995C12.4685 29.2662 15.7352 31.7328 20.0018 31.7328C24.2685 31.7328 27.5352 29.3328 29.2018 26.5995C29.6018 25.8662 29.0685 25.0662 28.4018 25.5328Z" fill="#664E27"/>
</g>
</g>
</svg>
