<svg width="855" height="323" viewBox="0 0 855 323" fill="none" xmlns="http://www.w3.org/2000/svg">
<g clip-path="url(#clip0_5943_343)">
<path opacity="0.06" d="M0 261.289H149.646V316.093H212.671V261.289H251.338V208.464H212.671V4.3186H130.16L0 209.377V261.289ZM150.864 208.464H66.3739V206.028L148.428 76.173H150.864V208.464Z" fill="black"/>
<path opacity="0.06" d="M426.075 322.944C504.475 322.944 551.82 263.268 551.972 160.51C552.124 58.5138 504.171 0.0560303 426.075 0.0560303C347.827 0.0560303 300.33 58.3615 300.178 160.51C299.873 262.964 347.522 322.792 426.075 322.944ZM426.075 268.292C390.3 268.292 367.16 232.365 367.313 160.51C367.465 89.7217 390.452 54.099 426.075 54.099C461.545 54.099 484.685 89.7217 484.685 160.51C484.837 232.365 461.698 268.292 426.075 268.292Z" fill="black"/>
<path opacity="0.06" d="M602.829 261.289H752.475V316.093H815.5V261.289H854.167V208.464H815.5V4.3186H732.989L602.829 209.377V261.289ZM753.693 208.464H669.203V206.028L751.257 76.173H753.693V208.464Z" fill="black"/>
</g>
<defs>
<clipPath id="clip0_5943_343">
<rect width="854.167" height="322.888" fill="white" transform="translate(0 0.0560303)"/>
</clipPath>
</defs>
</svg>
