<svg width="1508" height="585" viewBox="0 0 1508 585" fill="none" xmlns="http://www.w3.org/2000/svg">
<path d="M656.382 404.83L653.912 419.947L651.28 436.192L627.115 584.328H587.617L611.756 436.192L614.414 419.947L616.884 404.83H656.382Z" fill="#EBEBEB"/>
<path d="M650.663 404.83C648.568 419.84 646.34 434.822 644.084 449.778L637.103 494.7L629.799 539.541L626.04 561.935L622.12 584.328L625.342 561.827L628.699 539.353L635.76 494.458L643.064 449.617C645.454 434.661 647.978 419.732 650.663 404.83Z" fill="#C7C7C7"/>
<path d="M653.912 419.947L651.28 436.192H611.756L614.414 419.947H653.912Z" fill="#C7C7C7"/>
<path d="M851.427 404.83L853.897 419.947L856.529 436.192L880.694 584.328H920.192L896.053 436.192L893.395 419.947L890.925 404.83H851.427Z" fill="#EBEBEB"/>
<path d="M857.281 404.83C859.348 419.84 861.604 434.822 863.859 449.778L870.813 494.7L878.117 539.541L881.903 561.935L885.823 584.328L882.601 561.827L879.245 539.353L872.263 494.458L864.96 449.617C862.463 434.661 859.939 419.732 857.281 404.83Z" fill="#C7C7C7"/>
<path d="M853.897 419.947H893.395L896.053 436.192H856.529L853.897 419.947Z" fill="#C7C7C7"/>
<path d="M654.932 363.157H623.624L627.517 333.944H651.039L654.932 363.157Z" fill="#C7C7C7"/>
<path d="M668.041 318.201C670.842 302.327 660.245 287.187 644.371 284.385C628.497 281.584 613.357 292.181 610.555 308.055C607.753 323.929 618.35 339.069 634.225 341.871C650.099 344.673 665.239 334.075 668.041 318.201Z" fill="#DBDBDB"/>
<path d="M660.886 318.207C663.714 306.274 656.332 294.307 644.398 291.48C632.465 288.652 620.499 296.034 617.671 307.968C614.844 319.901 622.225 331.867 634.159 334.695C646.092 337.522 658.059 330.141 660.886 318.207Z" fill="white"/>
<path d="M657.832 311.792C657.626 309.146 656.875 306.571 655.628 304.228C654.38 301.886 652.663 299.826 650.582 298.178C648.488 296.552 646.084 295.368 643.518 294.699C640.951 294.029 638.276 293.889 635.653 294.285C633.05 294.695 630.562 295.648 628.351 297.082C626.14 298.516 624.255 300.399 622.819 302.609C621.303 304.972 620.31 307.632 619.907 310.411C619.504 313.19 619.7 316.023 620.483 318.719C621.816 323.378 624.932 327.324 629.155 329.701C633.275 332.04 638.109 332.786 642.742 331.796C647.223 330.837 651.241 328.374 654.127 324.814C656.977 321.297 658.624 316.959 658.826 312.436C658.826 312.248 658.826 312.06 658.638 312.06C658.45 312.06 658.45 312.221 658.45 312.436C658.348 314.266 657.995 316.072 657.402 317.806C656.784 319.509 655.964 321.132 654.959 322.639C653.9 324.101 652.675 325.435 651.307 326.613C649.902 327.787 648.36 328.788 646.716 329.594C644.352 330.708 641.782 331.316 639.17 331.381C636.558 331.446 633.961 330.965 631.545 329.97C629.122 328.943 626.95 327.403 625.179 325.456C623.409 323.509 622.081 321.202 621.288 318.692C620.473 316.114 620.224 313.391 620.558 310.708C620.891 308.025 621.8 305.446 623.221 303.146C624.595 300.964 626.42 299.101 628.573 297.684C630.727 296.267 633.16 295.327 635.707 294.929C639.149 294.383 642.674 294.775 645.911 296.065C649.149 297.355 651.978 299.495 654.1 302.26C655.121 303.685 655.952 305.237 656.57 306.878C657.168 308.543 657.565 310.274 657.752 312.033C657.752 312.033 657.752 312.033 657.752 312.033C657.752 312.033 657.832 311.872 657.832 311.792Z" fill="#EBEBEB"/>
<path d="M655.227 311.818C655.036 309.553 654.379 307.351 653.298 305.35C652.217 303.35 650.735 301.594 648.944 300.192C647.148 298.811 645.096 297.802 642.907 297.221C640.717 296.64 638.434 296.5 636.19 296.809C633.947 297.143 631.8 297.947 629.889 299.169C627.978 300.39 626.346 302.002 625.101 303.897C623.776 305.92 622.899 308.203 622.529 310.593C622.159 312.982 622.303 315.423 622.953 317.752C623.507 319.769 624.458 321.655 625.748 323.301C627.039 324.947 628.644 326.319 630.471 327.338C634.057 329.389 638.282 330.022 642.312 329.11C646.2 328.272 649.68 326.12 652.166 323.015C654.629 319.959 656.05 316.196 656.221 312.275C656.221 312.114 656.221 311.953 656.06 311.953C655.899 311.953 655.845 312.087 655.845 312.275C655.626 315.422 654.569 318.453 652.784 321.054C651 323.655 648.552 325.732 645.695 327.07C643.663 328.059 641.444 328.604 639.184 328.669C636.925 328.733 634.678 328.316 632.592 327.446C630.494 326.558 628.614 325.224 627.084 323.536C625.554 321.848 624.41 319.847 623.731 317.672C623.035 315.44 622.832 313.082 623.138 310.764C623.444 308.445 624.251 306.221 625.504 304.246C626.686 302.383 628.259 300.799 630.113 299.603C631.967 298.407 634.059 297.628 636.244 297.319C639.167 296.884 642.153 297.232 644.898 298.326C647.643 299.42 650.049 301.222 651.871 303.548C652.748 304.76 653.469 306.077 654.019 307.468C654.522 308.895 654.873 310.371 655.066 311.872L655.227 311.818Z" fill="#EBEBEB"/>
<path d="M652.623 311.845C652.43 309.958 651.854 308.13 650.93 306.473C650.007 304.815 648.756 303.363 647.253 302.206C644.234 299.91 640.436 298.888 636.673 299.36C634.79 299.608 632.981 300.254 631.365 301.254C629.75 302.253 628.365 303.585 627.303 305.159C626.153 306.86 625.384 308.788 625.045 310.813C624.707 312.838 624.809 314.911 625.342 316.893C625.794 318.621 626.591 320.24 627.684 321.652C628.778 323.064 630.146 324.24 631.706 325.11C634.784 326.83 638.391 327.347 641.829 326.56C645.142 325.79 648.085 323.891 650.153 321.189C652.199 318.597 653.398 315.438 653.59 312.141C653.59 311.98 653.59 311.845 653.402 311.845C653.37 311.849 653.339 311.858 653.311 311.874C653.283 311.889 653.258 311.91 653.238 311.935C653.218 311.96 653.203 311.988 653.194 312.019C653.186 312.05 653.183 312.082 653.187 312.114C652.978 314.756 652.08 317.297 650.582 319.484C649.083 321.67 647.037 323.425 644.648 324.573C642.937 325.418 641.065 325.889 639.157 325.954C637.25 326.019 635.35 325.676 633.586 324.949C631.802 324.211 630.205 323.087 628.909 321.656C627.614 320.226 626.652 318.526 626.094 316.678C625.538 314.798 625.394 312.819 625.672 310.877C625.95 308.936 626.644 307.077 627.705 305.428C628.719 303.892 630.052 302.593 631.614 301.62C633.175 300.647 634.929 300.022 636.754 299.789C639.167 299.505 641.613 299.79 643.896 300.622C646.195 301.493 648.211 302.979 649.723 304.918C650.471 305.907 651.085 306.99 651.549 308.14C652 309.317 652.315 310.543 652.489 311.792V311.792C652.489 311.792 652.65 311.872 652.623 311.845Z" fill="#EBEBEB"/>
<path d="M650.045 311.872C649.65 308.845 648.078 306.095 645.669 304.22C643.259 302.417 640.257 301.592 637.264 301.91C635.742 302.088 634.274 302.584 632.955 303.365C631.637 304.147 630.498 305.197 629.612 306.448C628.65 307.827 627.994 309.396 627.688 311.049C627.383 312.703 627.434 314.402 627.84 316.034C628.196 317.47 628.844 318.817 629.745 319.991C630.646 321.164 631.78 322.139 633.076 322.854C635.627 324.267 638.614 324.678 641.453 324.009C644.152 323.356 646.548 321.802 648.246 319.605C649.863 317.459 650.798 314.878 650.931 312.194C650.935 312.166 650.933 312.137 650.926 312.11C650.918 312.082 650.906 312.057 650.888 312.034C650.871 312.012 650.849 311.993 650.824 311.979C650.799 311.965 650.772 311.956 650.743 311.953C650.743 311.953 650.555 311.953 650.529 312.167C650.368 314.295 649.667 316.346 648.492 318.126C647.318 319.907 645.708 321.359 643.816 322.344C642.433 323.066 640.91 323.479 639.352 323.553C637.794 323.627 636.239 323.361 634.794 322.774C633.329 322.17 632.02 321.243 630.965 320.062C629.909 318.881 629.134 317.476 628.699 315.953C628.269 314.426 628.176 312.823 628.426 311.256C628.676 309.689 629.264 308.195 630.149 306.878C630.979 305.665 632.062 304.647 633.322 303.891C634.583 303.136 635.992 302.662 637.452 302.501C639.362 302.328 641.287 302.576 643.091 303.226C644.904 303.897 646.507 305.036 647.736 306.529C648.326 307.319 648.822 308.175 649.213 309.08C649.594 310.023 649.873 311.004 650.045 312.006V312.006V311.872Z" fill="#EBEBEB"/>
<path d="M883.514 363.157H852.179L856.072 333.944H879.62L883.514 363.157Z" fill="#C7C7C7"/>
<path d="M897.186 315.651C899.604 299.693 888.627 284.796 872.669 282.378C856.71 279.96 841.814 290.937 839.396 306.895C836.978 322.853 847.954 337.75 863.913 340.168C879.871 342.586 894.768 331.609 897.186 315.651Z" fill="#DBDBDB"/>
<path d="M889.778 316.422C891.627 304.299 883.297 292.972 871.173 291.123C859.05 289.274 847.723 297.604 845.874 309.728C844.026 321.851 852.355 333.178 864.479 335.027C876.602 336.875 887.929 328.546 889.778 316.422Z" fill="white"/>
<path d="M886.414 311.792C886.203 309.147 885.451 306.574 884.203 304.232C882.956 301.89 881.241 299.829 879.164 298.178C877.069 296.553 874.665 295.37 872.099 294.701C869.533 294.032 866.858 293.89 864.235 294.285C861.632 294.695 859.144 295.648 856.933 297.082C854.722 298.516 852.837 300.399 851.4 302.609C849.873 304.967 848.874 307.628 848.47 310.408C848.067 313.189 848.27 316.024 849.064 318.719C850.388 323.384 853.507 327.333 857.737 329.701C861.856 332.043 866.691 332.788 871.324 331.796C875.805 330.837 879.823 328.374 882.709 324.814C885.559 321.297 887.206 316.959 887.408 312.436C887.408 312.248 887.408 312.06 887.22 312.06C887.032 312.06 887.032 312.221 887.005 312.436C886.899 314.263 886.556 316.068 885.984 317.806C885.369 319.515 884.539 321.139 883.514 322.639C881.414 325.631 878.574 328.028 875.271 329.594C872.914 330.715 870.348 331.328 867.739 331.393C865.13 331.457 862.536 330.973 860.127 329.97C857.7 328.945 855.524 327.406 853.748 325.459C851.973 323.512 850.641 321.204 849.843 318.692C849.032 316.113 848.788 313.388 849.126 310.705C849.464 308.022 850.377 305.443 851.803 303.146C853.177 300.964 855.002 299.101 857.155 297.684C859.309 296.267 861.742 295.327 864.289 294.929C867.731 294.383 871.256 294.775 874.493 296.065C877.731 297.355 880.56 299.495 882.682 302.26C883.693 303.691 884.523 305.242 885.152 306.878C885.742 308.544 886.129 310.275 886.307 312.033C886.307 312.033 886.307 312.033 886.307 312.033C886.307 312.033 886.414 311.872 886.414 311.792Z" fill="#EBEBEB"/>
<path d="M883.809 311.818C883.605 309.556 882.942 307.358 881.862 305.359C880.782 303.361 879.307 301.603 877.526 300.192C875.73 298.811 873.678 297.802 871.488 297.221C869.299 296.64 867.016 296.5 864.772 296.809C862.524 297.139 860.371 297.942 858.455 299.164C856.539 300.386 854.904 301.999 853.655 303.897C852.331 305.92 851.454 308.203 851.084 310.593C850.713 312.982 850.858 315.423 851.507 317.752C852.062 319.769 853.012 321.655 854.303 323.301C855.594 324.947 857.199 326.319 859.026 327.338C862.614 329.384 866.837 330.016 870.867 329.11C874.765 328.278 878.255 326.125 880.748 323.015C883.199 319.953 884.619 316.193 884.803 312.275C884.803 312.114 884.803 311.953 884.615 311.953C884.427 311.953 884.427 312.087 884.4 312.275C884.186 315.42 883.134 318.45 881.354 321.051C879.574 323.653 877.131 325.731 874.277 327.07C872.245 328.059 870.025 328.604 867.766 328.669C865.507 328.733 863.259 328.316 861.174 327.446C859.07 326.563 857.184 325.23 855.648 323.542C854.113 321.854 852.966 319.85 852.286 317.672C851.598 315.438 851.401 313.083 851.707 310.766C852.012 308.449 852.814 306.225 854.058 304.246C855.246 302.388 856.82 300.808 858.674 299.612C860.527 298.417 862.616 297.635 864.799 297.319C867.73 296.872 870.728 297.213 873.484 298.308C876.239 299.402 878.654 301.211 880.48 303.548C881.366 304.754 882.088 306.072 882.628 307.468C883.156 308.888 883.507 310.367 883.675 311.872C883.7 311.872 883.724 311.868 883.747 311.859C883.77 311.849 883.791 311.836 883.809 311.818V311.818Z" fill="#EBEBEB"/>
<path d="M881.204 311.845C880.999 309.961 880.418 308.137 879.496 306.482C878.573 304.826 877.328 303.372 875.834 302.206C872.813 299.915 869.018 298.894 865.255 299.36C863.381 299.616 861.582 300.265 859.977 301.264C858.371 302.264 856.995 303.591 855.938 305.159C854.791 306.861 854.02 308.788 853.677 310.812C853.335 312.835 853.428 314.909 853.951 316.893C854.415 318.619 855.22 320.235 856.317 321.646C857.415 323.057 858.783 324.234 860.341 325.11C863.41 326.829 867.009 327.346 870.437 326.56C873.758 325.789 876.709 323.891 878.788 321.189C880.84 318.602 882.032 315.439 882.198 312.141C882.198 311.98 882.198 311.845 882.037 311.845C882.005 311.849 881.974 311.858 881.946 311.874C881.918 311.889 881.893 311.91 881.873 311.935C881.853 311.96 881.839 311.988 881.83 312.019C881.821 312.05 881.818 312.082 881.822 312.114C881.608 314.755 880.708 317.294 879.21 319.479C877.712 321.665 875.669 323.42 873.283 324.573C871.572 325.418 869.7 325.889 867.793 325.954C865.885 326.019 863.986 325.676 862.221 324.949C860.437 324.211 858.84 323.087 857.545 321.657C856.249 320.226 855.287 318.526 854.729 316.679C854.173 314.798 854.029 312.819 854.307 310.877C854.585 308.936 855.279 307.077 856.341 305.428C857.346 303.89 858.673 302.59 860.231 301.616C861.789 300.642 863.54 300.019 865.362 299.789C867.784 299.503 870.24 299.788 872.532 300.622C874.831 301.493 876.846 302.979 878.358 304.918C879.106 305.907 879.72 306.99 880.184 308.14C880.61 309.325 880.925 310.548 881.124 311.792V311.792C881.145 311.817 881.173 311.836 881.204 311.845V311.845Z" fill="#EBEBEB"/>
<path d="M878.6 311.872C878.415 310.373 877.935 308.925 877.189 307.612C876.442 306.299 875.444 305.146 874.25 304.22C871.839 302.419 868.838 301.595 865.846 301.911C864.32 302.076 862.848 302.567 861.528 303.35C860.208 304.133 859.071 305.189 858.193 306.448C857.231 307.827 856.576 309.396 856.27 311.049C855.964 312.703 856.016 314.402 856.421 316.034C856.777 317.47 857.426 318.817 858.327 319.991C859.228 321.165 860.362 322.139 861.657 322.854C864.2 324.265 867.177 324.677 870.008 324.009C872.711 323.349 875.114 321.798 876.828 319.605C878.444 317.459 879.38 314.878 879.513 312.194C879.521 312.168 879.523 312.14 879.519 312.112C879.515 312.085 879.505 312.059 879.49 312.036C879.474 312.012 879.454 311.993 879.43 311.979C879.406 311.964 879.379 311.956 879.352 311.953C879.295 311.953 879.24 311.975 879.2 312.016C879.16 312.056 879.137 312.111 879.137 312.168C878.941 314.306 878.199 316.357 876.981 318.126C875.763 319.894 874.111 321.319 872.183 322.263C870.804 322.982 869.285 323.392 867.732 323.467C866.179 323.541 864.629 323.277 863.188 322.693C861.723 322.09 860.414 321.163 859.358 319.982C858.303 318.801 857.528 317.396 857.092 315.873C856.662 314.345 856.569 312.743 856.82 311.176C857.07 309.609 857.658 308.115 858.542 306.797C859.371 305.584 860.454 304.564 861.714 303.809C862.975 303.053 864.385 302.579 865.846 302.421C867.747 302.248 869.663 302.496 871.458 303.146C873.275 303.808 874.88 304.949 876.103 306.448C876.711 307.231 877.216 308.088 877.607 308.999C877.988 309.942 878.267 310.923 878.439 311.926V311.926C878.439 311.926 878.627 311.899 878.6 311.872Z" fill="#EBEBEB"/>
<path d="M950.721 348.282H557.061V423.572H950.721V348.282Z" fill="#DBDBDB"/>
<path d="M637.989 348.282L609.42 423.572H558.564L587.134 348.282H637.989Z" fill="#EBEBEB"/>
<path d="M742.198 348.282L713.628 423.572H662.773L691.342 348.282H742.198Z" fill="#EBEBEB"/>
<path d="M846.379 348.282L817.837 423.572H766.981L795.55 348.282H846.379Z" fill="#EBEBEB"/>
<path d="M950.614 348.282L922.045 423.572H871.189L899.759 348.282H950.614Z" fill="#EBEBEB"/>
<path d="M942.774 493.196H565.035V540.857H942.774V493.196Z" fill="#DBDBDB"/>
<path d="M642.661 493.196L615.273 540.83H566.485L593.9 493.196H642.661Z" fill="#EBEBEB"/>
<path d="M742.681 493.196L715.266 540.83H666.451L693.866 493.196H742.681Z" fill="#EBEBEB"/>
<path d="M842.647 493.196L815.232 540.83H766.444L793.859 493.196H842.647Z" fill="#EBEBEB"/>
<path d="M942.639 493.196L915.225 540.83H866.437L893.851 493.196H942.639Z" fill="#EBEBEB"/>
<path d="M1507.25 229.557H1182.99C1182.99 229.557 1215.13 163.698 1264.61 163.698C1314.09 163.698 1329.59 209.144 1329.59 209.144C1329.59 209.144 1362.97 184.454 1390.41 184.454C1417.86 184.454 1441.67 217.094 1441.67 217.094C1441.67 217.094 1480.43 199.539 1507.25 229.557Z" fill="#EBEBEB"/>
<path d="M503.218 36.7865H351.688C351.688 36.7865 385.524 0 412.225 0C438.927 0 446.777 24.5172 446.777 24.5172C446.777 24.5172 465.6 13.0859 483.048 15.1272C500.496 17.1685 503.218 36.7865 503.218 36.7865Z" fill="#EBEBEB"/>
<path d="M1320.63 301.705H1169.1C1169.1 301.705 1202.96 264.919 1229.64 264.919C1256.31 264.919 1264.19 289.436 1264.19 289.436C1264.19 289.436 1283.01 277.983 1300.46 280.046C1317.91 282.109 1320.63 301.705 1320.63 301.705Z" fill="#EBEBEB"/>
<path d="M295.18 128.989H0C0 128.989 40.4251 61.3038 83.6578 57.0708C126.891 52.8378 147.576 107.351 147.576 107.351C147.576 107.351 175.481 88.0127 197.398 88.0127C219.315 88.0127 236.247 113.389 236.247 113.389C236.247 113.389 280.196 96.0705 295.18 128.989Z" fill="#EBEBEB"/>
</svg>
