<svg width="1920" height="208" viewBox="0 0 1920 208" fill="none" xmlns="http://www.w3.org/2000/svg">
<rect y="100" width="743" height="10" fill="#FF6B00"/>
<rect x="1165" y="100" width="755" height="10" fill="#FF6B00"/>
<path opacity="0.2" d="M1145 100V110H1191.14L1194 100H1145Z" fill="black"/>
<path d="M1067.7 48.003H1051.1V163.95H1067.7V48.003Z" fill="#FF6B00"/>
<path d="M1051.12 56.5694H988.029V154.193H1051.12V56.5694Z" fill="#FF6B00"/>
<path opacity="0.2" d="M1051.1 56.5853V154.209H1035.43L1028.4 56.5853H1051.1Z" fill="black"/>
<path d="M939.613 74.0985H988.013V88.693H939.613C937.956 88.693 936.366 88.0345 935.194 86.8623C934.022 85.6902 933.363 84.1004 933.363 82.4427V80.3646C933.361 79.5425 933.521 78.728 933.834 77.9679C934.147 77.2077 934.607 76.5169 935.188 75.9348C935.769 75.3527 936.458 74.8909 937.218 74.5758C937.977 74.2607 938.791 74.0985 939.613 74.0985Z" fill="#DBDBDB"/>
<path d="M988.013 74.0985H971.023V88.6771H988.013V74.0985Z" fill="#A6A6A6"/>
<path d="M939.613 122.086H988.013V136.68H939.613C937.956 136.68 936.366 136.022 935.194 134.849C934.022 133.677 933.363 132.088 933.363 130.43V128.352C933.361 127.53 933.521 126.715 933.834 125.955C934.147 125.195 934.607 124.504 935.188 123.922C935.769 123.34 936.458 122.878 937.218 122.563C937.977 122.248 938.791 122.086 939.613 122.086Z" fill="#DBDBDB"/>
<path d="M988.013 122.086H971.023V136.664H988.013V122.086Z" fill="#A6A6A6"/>
<path d="M1165.75 96.0694H1116.46V115.534H1165.75V96.0694Z" fill="#1A3592"/>
<path d="M1165.75 96.0854H1116.46V115.55H1165.75V96.0854Z" fill="#FF6B00"/>
<path opacity="0.2" d="M1133.77 96.0854L1132.15 115.55H1116.46V96.0854H1133.77Z" fill="black"/>
<path d="M1067.7 60.2496H1106.7C1109.29 60.2496 1111.77 61.2775 1113.6 63.1071C1115.43 64.9367 1116.46 67.4182 1116.46 70.0057V140.773C1116.46 143.36 1115.43 145.842 1113.6 147.671C1111.77 149.501 1109.29 150.529 1106.7 150.529H1067.7V60.2496Z" fill="#FF6B00"/>
<path opacity="0.2" d="M1088.44 60.2496L1081.42 150.529H1067.71V60.2496H1088.44Z" fill="black"/>
<g opacity="0.2">
<path d="M1084.81 78.4926H1081.7V132.27H1084.81V78.4926Z" fill="black"/>
<path d="M1093.63 78.4926H1090.52V132.27H1093.63V78.4926Z" fill="black"/>
<path d="M1102.45 78.4926H1099.34V132.27H1102.45V78.4926Z" fill="black"/>
</g>
<path d="M871.099 103.954C875.144 103.843 893.657 101.717 898.685 99.9718C903.714 98.2268 917.722 92.167 916.833 88.1852C915.945 84.2035 911.63 85.6471 911.63 85.6471C911.63 85.6471 917.166 82.1412 915.85 78.2229C914.533 74.3046 907.918 76.7793 907.918 76.7793C907.918 76.7793 913.343 72.7659 911.741 68.9428C910.139 65.1197 903.968 68.7207 903.968 68.7207C903.968 68.7207 909.108 65.2783 906.474 62.6767C903.302 59.504 894.545 66.9757 888.866 68.4827C887.565 68.8317 862.183 73.5749 862.183 73.5749L871.099 103.954Z" fill="#AD6359"/>
<path d="M904.618 68.4194C898.162 73.8447 894.402 75.1138 886.185 76.2401C886.157 76.2499 886.133 76.2681 886.115 76.2923C886.098 76.3164 886.089 76.3453 886.089 76.375C886.089 76.4046 886.098 76.4335 886.115 76.4577C886.133 76.4819 886.157 76.5001 886.185 76.5098C894.323 76.1291 899.272 75.2249 904.888 68.7208C905.126 68.4036 904.872 68.1656 904.618 68.4194Z" fill="#263238"/>
<path d="M908.473 76.3352C901.287 81.475 897.226 82.7916 888.755 84.6477C888.644 84.6477 888.675 84.8856 888.755 84.8698C897.258 83.7752 902.175 82.7599 908.695 76.7635C908.965 76.4621 908.806 76.0972 908.473 76.3352Z" fill="#263238"/>
<path d="M911.186 85.7266C903.873 90.1208 899.478 91.8499 890.976 92.5638C890.934 92.5638 890.893 92.5805 890.863 92.6102C890.834 92.64 890.817 92.6803 890.817 92.7224C890.817 92.7645 890.834 92.8048 890.863 92.8346C890.893 92.8643 890.934 92.881 890.976 92.881C898.389 93.3277 905.681 90.8437 911.281 85.9645C911.709 85.6314 911.646 85.4569 911.186 85.7266Z" fill="#263238"/>
<path d="M856.314 70.2437C860.587 67.4824 865.056 65.0382 869.687 62.9306C874.16 61.3442 893.038 61.3442 893.244 65.437C893.53 70.7037 882.631 72.8135 877.159 73.1625C877.159 73.1625 877.841 85.3299 870.337 88.5502C862.834 91.7705 856.314 70.2437 856.314 70.2437Z" fill="#AD6359"/>
<path d="M892.863 66.9123C889.691 71.8934 882.441 71.8775 877.159 72.6073C877.079 72.6113 877.001 72.6354 876.933 72.6774C876.865 72.7194 876.808 72.7779 876.769 72.8475C876.729 72.917 876.708 72.9955 876.707 73.0755C876.705 73.1555 876.724 73.2345 876.762 73.3053C876.762 78.4292 875.176 85.6312 870.654 88.6611C870.512 88.7563 870.654 88.9625 870.766 88.8832C876.016 86.2816 878.142 79.3651 877.841 73.7018C883.266 73.0514 890.531 72.75 892.911 66.9281C892.927 66.8964 892.879 66.8805 892.863 66.9123Z" fill="#263238"/>
<path d="M833.232 62.8354C832.19 65.897 831.326 69.0169 830.647 72.179C829.869 75.3517 829.06 78.5244 828.41 81.6972C826.997 87.9195 825.938 94.2168 825.237 100.559C825.237 100.597 825.252 100.633 825.279 100.66C825.306 100.687 825.342 100.702 825.38 100.702C825.418 100.702 825.454 100.687 825.481 100.66C825.508 100.633 825.523 100.597 825.523 100.559C827.236 94.3404 828.505 87.9791 829.806 81.6654C830.456 78.4927 831.043 75.4152 831.694 72.3059C832.344 69.1967 833.121 65.9605 833.47 62.883C833.477 62.8515 833.47 62.8187 833.452 62.7919C833.434 62.7651 833.407 62.7466 833.375 62.7402C833.344 62.7339 833.311 62.7404 833.284 62.7583C833.257 62.7761 833.239 62.8039 833.232 62.8354Z" fill="#263238"/>
<path opacity="0.2" d="M768 100V110H721.861L719 100H768Z" fill="black"/>
<path d="M910.456 166.456H927.938V44.3386H910.456V166.456Z" fill="#FF6B00"/>
<path d="M910.456 50.1288H844.02V159.397H910.456V50.1288Z" fill="#FF6B00"/>
<path opacity="0.2" d="M910.456 50.1288V159.397H893.958L886.55 50.1288H910.456Z" fill="black"/>
<path d="M743.381 114.693H792.669V95.2287H743.381V114.693Z" fill="#1A3592"/>
<path d="M792.669 95.2444H743.381V114.709H792.669V95.2444Z" fill="#FF6B00"/>
<path opacity="0.2" d="M775.362 114.693L776.98 95.2444H792.669V114.693H775.362Z" fill="black"/>
<path d="M844.02 152.924H802.425C799.838 152.924 797.356 151.896 795.527 150.067C793.697 148.237 792.669 145.756 792.669 143.168V67.5945C792.669 65.007 793.697 62.5255 795.527 60.6959C797.356 58.8662 799.838 57.8384 802.425 57.8384H844.02V152.924Z" fill="#FF6B00"/>
<path opacity="0.2" d="M822.16 152.924L829.568 57.8542H844.02V152.924H822.16Z" fill="black"/>
<g opacity="0.2">
<path d="M825.983 133.698H829.267V77.0651H825.983V133.698Z" fill="black"/>
<path d="M816.703 133.698H819.986V77.0651H816.703V133.698Z" fill="black"/>
<path d="M807.407 133.698H810.69V77.0651H807.407V133.698Z" fill="black"/>
</g>
<path d="M957.222 23.9063C957.011 23.9063 956.81 23.8228 956.661 23.674C956.512 23.5253 956.429 23.3235 956.429 23.1132V0.793176C956.429 0.582813 956.512 0.381077 956.661 0.232327C956.81 0.0835781 957.011 0 957.222 0C957.432 0 957.634 0.0835781 957.783 0.232327C957.931 0.381077 958.015 0.582813 958.015 0.793176V23.1132C958.015 23.3235 957.931 23.5253 957.783 23.674C957.634 23.8228 957.432 23.9063 957.222 23.9063Z" fill="#263238"/>
<path d="M916.833 34.5983C916.692 34.5987 916.554 34.5623 916.432 34.4927C916.309 34.4232 916.207 34.3229 916.135 34.2017L905.031 14.8641C904.965 14.7743 904.92 14.6719 904.897 14.5634C904.873 14.4548 904.873 14.3426 904.896 14.234C904.919 14.1254 904.964 14.0228 905.029 13.9329C905.094 13.8429 905.178 13.7676 905.274 13.7119C905.37 13.6561 905.476 13.6211 905.586 13.6091C905.697 13.5971 905.808 13.6083 905.914 13.6422C906.02 13.676 906.117 13.7317 906.2 13.8055C906.283 13.8794 906.349 13.9698 906.395 14.0709L917.499 33.4086C917.553 33.4977 917.588 33.5968 917.603 33.6998C917.618 33.8028 917.612 33.9077 917.585 34.0083C917.558 34.1089 917.512 34.2032 917.448 34.2854C917.384 34.3677 917.305 34.4364 917.214 34.4873C917.099 34.558 916.968 34.5964 916.833 34.5983Z" fill="#263238"/>
<path d="M905.221 193.741C905.081 193.742 904.944 193.704 904.825 193.63C904.736 193.573 904.66 193.498 904.601 193.41C904.542 193.322 904.502 193.223 904.482 193.12C904.463 193.016 904.465 192.909 904.488 192.806C904.512 192.703 904.556 192.605 904.618 192.52L915.723 173.198C915.775 173.108 915.844 173.028 915.927 172.964C916.01 172.9 916.104 172.854 916.205 172.826C916.306 172.799 916.411 172.792 916.515 172.805C916.619 172.819 916.719 172.853 916.809 172.905C916.9 172.957 916.979 173.026 917.043 173.109C917.107 173.192 917.154 173.286 917.181 173.387C917.208 173.488 917.216 173.593 917.202 173.697C917.189 173.801 917.155 173.901 917.103 173.991L905.998 193.313C905.926 193.454 905.814 193.57 905.675 193.646C905.537 193.722 905.379 193.756 905.221 193.741Z" fill="#263238"/>
<path d="M956.714 207.669C956.504 207.669 956.302 207.586 956.153 207.437C956.005 207.288 955.921 207.087 955.921 206.876V184.588C955.921 184.378 956.005 184.176 956.153 184.027C956.302 183.878 956.504 183.795 956.714 183.795C956.923 183.799 957.123 183.884 957.27 184.032C957.418 184.18 957.503 184.379 957.507 184.588V206.908C957.499 207.113 957.412 207.306 957.264 207.448C957.116 207.59 956.919 207.67 956.714 207.669Z" fill="#263238"/>
<path d="M1008.27 193.995C1008.13 193.994 1008 193.957 1007.88 193.888C1007.76 193.818 1007.66 193.718 1007.59 193.598L996.484 174.277C996.432 174.186 996.398 174.086 996.385 173.982C996.371 173.879 996.378 173.774 996.406 173.673C996.433 173.572 996.48 173.477 996.544 173.394C996.607 173.312 996.687 173.242 996.777 173.19C996.868 173.138 996.968 173.104 997.072 173.091C997.175 173.077 997.281 173.084 997.382 173.112C997.482 173.139 997.577 173.186 997.66 173.25C997.743 173.313 997.812 173.393 997.864 173.484L1008.97 192.805C1009.02 192.894 1009.06 192.994 1009.07 193.097C1009.09 193.2 1009.08 193.304 1009.05 193.405C1009.03 193.506 1008.98 193.6 1008.92 193.682C1008.85 193.764 1008.77 193.833 1008.68 193.884C1008.56 193.96 1008.42 193.999 1008.27 193.995Z" fill="#263238"/>
<path d="M997.547 34.8523C997.407 34.8532 997.269 34.8147 997.15 34.7412C997.059 34.6903 996.98 34.6217 996.916 34.5394C996.852 34.4571 996.806 34.3629 996.779 34.2623C996.753 34.1617 996.746 34.0568 996.761 33.9537C996.776 33.8507 996.811 33.7517 996.865 33.6625L1007.97 14.3249C1008.08 14.1661 1008.25 14.0557 1008.45 14.0153C1008.64 13.9748 1008.84 14.007 1009.01 14.1057C1009.18 14.2044 1009.31 14.3625 1009.37 14.5495C1009.43 14.7366 1009.41 14.9391 1009.33 15.118L998.229 34.4557C998.157 34.5735 998.058 34.6716 997.938 34.7408C997.819 34.8101 997.685 34.8484 997.547 34.8523Z" fill="#263238"/>
</svg>
