<svg width="188" height="16" viewBox="0 0 188 16" fill="none" xmlns="http://www.w3.org/2000/svg">
<path d="M0 0H25.6V8.63728L24.3329 9.87471L25.6 10.976V16H0V7.85769L0.791957 7.28848L0 6.74401V0Z" fill="#016FD0"/>
<path d="M4.95703 13.0387V9.01953H9.20203L9.65747 9.61473L10.128 9.01953H25.5363V12.7615C25.5363 12.7615 25.1333 13.0347 24.6673 13.0387H16.1354L15.6219 12.4051V13.0387H13.9392V11.9572C13.9392 11.9572 13.7094 12.1082 13.2124 12.1082H12.6397V13.0387H10.092L9.63718 12.4307L9.1754 13.0387H4.95703Z" fill="white"/>
<path d="M0 5.98923L0.957264 3.75195H2.61275L3.15601 5.00518V3.75195H5.21393L5.53734 4.65775L5.85086 3.75195H15.0888V4.20733C15.0888 4.20733 15.5744 3.75195 16.3725 3.75195L19.3699 3.76245L19.9038 4.99928V3.75195H21.626L22.1 4.46241V3.75195H23.838V7.77113H22.1L21.6457 7.05837V7.77113H19.1155L18.861 7.13756H18.1808L17.9305 7.77113H16.2145C15.5278 7.77113 15.0888 7.32505 15.0888 7.32505V7.77113H12.5016L11.9881 7.13756V7.77113H2.3675L2.11322 7.13756H1.43517L1.18269 7.77113H0V5.98923Z" fill="white"/>
<path d="M1.29602 4.24805L0.00488281 7.25748H0.845482L1.08371 6.65485H2.46866L2.70566 7.25748H3.56478L2.27487 4.24805H1.29602ZM1.77372 4.94843L2.19587 6.00149H1.35033L1.77372 4.94843Z" fill="#016FD0"/>
<path d="M3.65332 7.25748V4.24805L4.84786 4.2525L5.54264 6.19279L6.22079 4.24805H7.40577V7.25748H6.65528V5.04L5.85975 7.25748H5.20157L4.40381 5.04V7.25748H3.65332Z" fill="#016FD0"/>
<path d="M7.91992 7.25748V4.24805H10.3689V4.92121H8.67831V5.43598H10.3294V6.06955H8.67831V6.60412H10.3689V7.25748H7.91992Z" fill="#016FD0"/>
<path d="M10.8027 4.24805V7.25748H11.5532V6.18834H11.8692L12.7691 7.25748H13.6862L12.6987 6.14874C13.104 6.11446 13.522 5.76576 13.522 5.22438C13.522 4.59109 13.0262 4.24805 12.4728 4.24805H10.8027ZM11.5532 4.92121H12.4111C12.6169 4.92121 12.7666 5.08259 12.7666 5.23799C12.7666 5.43793 12.5726 5.55478 12.4222 5.55478H11.5532V4.92121Z" fill="#016FD0"/>
<path d="M14.5954 7.25748H13.8291V4.24805H14.5954V7.25748Z" fill="#016FD0"/>
<path d="M16.4116 7.25748H16.2462C15.4459 7.25748 14.96 6.6254 14.96 5.76514C14.96 4.88362 15.4404 4.24805 16.4511 4.24805H17.2806V4.96081H16.4207C16.0105 4.96081 15.7203 5.28178 15.7203 5.77256C15.7203 6.35538 16.0521 6.60016 16.5301 6.60016H16.7276L16.4116 7.25748Z" fill="#016FD0"/>
<path d="M18.045 4.24805L16.7539 7.25748H17.5945L17.8327 6.65485H19.2177L19.4547 7.25748H20.3138L19.0239 4.24805H18.045ZM18.5227 4.94843L18.9449 6.00149H18.0994L18.5227 4.94843Z" fill="#016FD0"/>
<path d="M20.4014 7.25748V4.24805H21.3555L22.5738 6.13884V4.24805H23.3243V7.25748H22.401L21.1519 5.31719V7.25748H20.4014Z" fill="#016FD0"/>
<path d="M5.4707 12.5231V9.51367H7.91967V10.1868H6.22909V10.7016H7.88017V11.3352H6.22909V11.8697H7.91967V12.5231H5.4707Z" fill="#016FD0"/>
<path d="M17.4707 12.5231V9.51367H19.9197V10.1868H18.2291V10.7016H19.8723V11.3352H18.2291V11.8697H19.9197V12.5231H17.4707Z" fill="#016FD0"/>
<path d="M8.01472 12.5231L9.20711 11.037L7.98633 9.51367H8.93185L9.65889 10.4554L10.3884 9.51367H11.2969L10.0921 11.0184L11.2867 12.5231H10.3414L9.63543 11.5963L8.94666 12.5231H8.01472Z" fill="#016FD0"/>
<path d="M11.376 9.51562V12.5251H12.1462V11.5747H12.9362C13.6046 11.5747 14.1113 11.2192 14.1113 10.5278C14.1113 9.95512 13.7139 9.51562 13.0337 9.51562H11.376ZM12.1462 10.1962H12.9782C13.1941 10.1962 13.3485 10.3289 13.3485 10.5427C13.3485 10.7435 13.1949 10.8892 12.9757 10.8892H12.1462V10.1962Z" fill="#016FD0"/>
<path d="M14.4375 9.51367V12.5231H15.188V11.454H15.504L16.4038 12.5231H17.321L16.3335 11.4144C16.7387 11.3801 17.1568 11.0314 17.1568 10.49C17.1568 9.85672 16.661 9.51367 16.1076 9.51367H14.4375ZM15.188 10.1868H16.0459C16.2517 10.1868 16.4014 10.3482 16.4014 10.5036C16.4014 10.7036 16.2074 10.8204 16.057 10.8204H15.188V10.1868Z" fill="#016FD0"/>
<path d="M20.2672 12.5231V11.8697H21.7691C21.9914 11.8697 22.0876 11.7494 22.0876 11.6173C22.0876 11.4908 21.9917 11.3629 21.7691 11.3629H21.0904C20.5004 11.3629 20.1719 11.0026 20.1719 10.4615C20.1719 9.97901 20.4728 9.51367 21.3495 9.51367H22.8109L22.4949 10.1908H21.231C20.9893 10.1908 20.915 10.3179 20.915 10.4393C20.915 10.564 21.0069 10.7016 21.1915 10.7016H21.9024C22.5601 10.7016 22.8455 11.0756 22.8455 11.5653C22.8455 12.0919 22.5275 12.5231 21.8666 12.5231H20.2672Z" fill="#016FD0"/>
<path d="M23.0221 12.5231V11.8697H24.524C24.7463 11.8697 24.8425 11.7494 24.8425 11.6173C24.8425 11.4908 24.7466 11.3629 24.524 11.3629H23.8453C23.2553 11.3629 22.9268 11.0026 22.9268 10.4615C22.9268 9.97901 23.2276 9.51367 24.1043 9.51367H25.5658L25.2498 10.1908H23.9858C23.7442 10.1908 23.6698 10.3179 23.6698 10.4393C23.6698 10.564 23.7618 10.7016 23.9463 10.7016H24.6573C25.315 10.7016 25.6004 11.0756 25.6004 11.5653C25.6004 12.0919 25.2824 12.5231 24.6215 12.5231H23.0221Z" fill="#016FD0"/>
<path d="M56.1947 12.6642C56.1947 14.4267 54.7596 15.8618 52.9972 15.8618H35.5996V3.19753C35.5996 1.43511 37.0347 0 38.7971 0H56.1947V12.6642Z" fill="white"/>
<path d="M50.5293 9.4175H51.8511C51.8889 9.4175 51.977 9.40491 52.0148 9.40491C52.2665 9.35456 52.4805 9.12796 52.4805 8.81324C52.4805 8.51111 52.2665 8.28452 52.0148 8.22157C51.977 8.20898 51.9015 8.20898 51.8511 8.20898H50.5293V9.4175Z" fill="url(#paint0_linear_5105_63896)"/>
<path d="M51.7002 1.07031C50.4413 1.07031 49.4091 2.09 49.4091 3.36146V5.74072H52.6444C52.7199 5.74072 52.808 5.74073 52.871 5.75331C53.6011 5.79108 54.1424 6.16874 54.1424 6.82335C54.1424 7.33949 53.7774 7.7801 53.0976 7.86822V7.89339C53.8403 7.94375 54.4068 8.35918 54.4068 9.0012C54.4068 9.69358 53.7774 10.1468 52.9465 10.1468H49.3965V14.8046H52.7577C54.0165 14.8046 55.0488 13.7849 55.0488 12.5135V1.07031H51.7002Z" fill="url(#paint1_linear_5105_63896)"/>
<path d="M52.3169 6.97382C52.3169 6.6717 52.1029 6.47028 51.8511 6.43251C51.8259 6.43251 51.763 6.41992 51.7252 6.41992H50.5293V7.52773H51.7252C51.763 7.52773 51.8385 7.52773 51.8511 7.51514C52.1029 7.47737 52.3169 7.27595 52.3169 6.97382Z" fill="url(#paint2_linear_5105_63896)"/>
<path d="M39.0362 1.07031C37.7773 1.07031 36.745 2.09 36.745 3.36146V9.01379C37.387 9.32851 38.0542 9.52993 38.7214 9.52993C39.5145 9.52993 39.9425 9.05156 39.9425 8.39694V5.72814H41.9064V8.38435C41.9064 9.41663 41.2644 10.2601 39.0865 10.2601C37.7647 10.2601 36.7324 9.97053 36.7324 9.97053V14.792H40.0936C41.3525 14.792 42.3848 13.7723 42.3848 12.5009V1.07031H39.0362Z" fill="url(#paint3_linear_5105_63896)"/>
<path d="M45.3683 1.07031C44.1094 1.07031 43.0771 2.09 43.0771 3.36146V6.35757C43.6562 5.86661 44.6633 5.55189 46.2873 5.62743C47.1559 5.66519 48.0875 5.90438 48.0875 5.90438V6.87371C47.6217 6.63452 47.0678 6.42052 46.3502 6.37016C45.1165 6.28204 44.3738 6.8863 44.3738 7.94375C44.3738 9.01379 45.1165 9.61805 46.3502 9.51734C47.0678 9.46698 47.6217 9.24039 48.0875 9.01379V9.98312C48.0875 9.98312 47.1685 10.2223 46.2873 10.2601C44.6633 10.3356 43.6562 10.0209 43.0771 9.52993V14.8172H46.4383C47.6972 14.8172 48.7295 13.7975 48.7295 12.526V1.07031H45.3683Z" fill="url(#paint4_linear_5105_63896)"/>
<path d="M91.5874 12.9572V12.6465H91.5105L91.4208 12.8536L91.3311 12.6465H91.2542V12.9572H91.3054V12.7242L91.3952 12.9313H91.4593L91.549 12.7242V12.9572H91.5874ZM91.0747 12.9572V12.6983H91.1773V12.6465H90.9209V12.6983H91.0234V12.9572H91.0747Z" fill="#00A2E5"/>
<path d="M82.4745 14.2915H75.54V1.70898H82.4745V14.2915Z" fill="#7375CF"/>
<path d="M75.9882 8C75.9882 5.44984 77.1674 3.17152 79.0132 1.70874C77.6673 0.634304 75.9625 0 74.1168 0C69.7459 0 66.1953 3.58576 66.1953 8C66.1953 12.4142 69.7459 16 74.1168 16C75.9625 16 77.6673 15.3657 79.0132 14.2913C77.1674 12.8285 75.9882 10.5502 75.9882 8Z" fill="#EB001B"/>
<path d="M91.8316 8C91.8316 12.4142 88.281 16 83.9101 16C82.0643 16 80.3596 15.3657 79.0137 14.2913C80.8594 12.8285 82.0387 10.5502 82.0387 8C82.0387 5.44984 80.8594 3.17152 79.0137 1.70874C80.3596 0.634304 82.0643 0 83.9101 0C88.281 0 91.8316 3.58576 91.8316 8Z" fill="#00A2E5"/>
<path d="M118.257 1.71289H111.256V14.2902H118.257V1.71289Z" fill="#FF5A00"/>
<path d="M111.722 8C111.722 5.44466 112.924 3.1767 114.767 1.71133C113.41 0.64466 111.699 0 109.832 0C105.409 0 101.831 3.57799 101.831 8C101.831 12.422 105.409 16 109.832 16C111.699 16 113.41 15.3553 114.767 14.2887C112.921 12.844 111.722 10.5553 111.722 8Z" fill="#EB001B"/>
<path d="M127.704 8C127.704 12.422 124.125 16 119.703 16C117.836 16 116.124 15.3553 114.768 14.2887C116.634 12.8207 117.813 10.5553 117.813 8C117.813 5.44466 116.611 3.1767 114.768 1.71133C116.122 0.64466 117.833 0 119.7 0C124.125 0 127.704 3.60129 127.704 8Z" fill="#F79E1B"/>
<path d="M159.083 15.7333H155.059L157.574 0.276197H161.599L159.083 15.7333ZM151.673 0.276197L147.837 10.9077L147.383 8.61834L147.383 8.61917L146.029 1.66793C146.029 1.66793 145.865 0.276197 144.12 0.276197H137.778L137.703 0.537922C137.703 0.537922 139.643 0.941467 141.913 2.30467L145.409 15.7337H149.602L156.004 0.276197H151.673ZM183.326 15.7333H187.022L183.8 0.275784H180.565C179.071 0.275784 178.707 1.42771 178.707 1.42771L172.705 15.7333H176.9L177.739 13.4373H182.855L183.326 15.7333ZM178.898 10.2656L181.013 4.48117L182.202 10.2656H178.898ZM173.02 3.99328L173.594 0.673953C173.594 0.673953 171.822 0 169.975 0C167.978 0 163.235 0.872832 163.235 5.11709C163.235 9.11037 168.801 9.15999 168.801 11.2575C168.801 13.355 163.809 12.9792 162.161 11.6565L161.563 15.1272C161.563 15.1272 163.36 16 166.105 16C168.851 16 172.994 14.5781 172.994 10.708C172.994 6.6891 167.378 6.31491 167.378 4.56759C167.379 2.81986 171.298 3.04437 173.02 3.99328Z" fill="#1434CB"/>
<defs>
<linearGradient id="paint0_linear_5105_63896" x1="49.4068" y1="8.81474" x2="55.0638" y2="8.81474" gradientUnits="userSpaceOnUse">
<stop stop-color="#007940"/>
<stop offset="0.2285" stop-color="#00873F"/>
<stop offset="0.7433" stop-color="#40A737"/>
<stop offset="1" stop-color="#5CB531"/>
</linearGradient>
<linearGradient id="paint1_linear_5105_63896" x1="49.4068" y1="7.93196" x2="55.0643" y2="7.93196" gradientUnits="userSpaceOnUse">
<stop stop-color="#007940"/>
<stop offset="0.2285" stop-color="#00873F"/>
<stop offset="0.7433" stop-color="#40A737"/>
<stop offset="1" stop-color="#5CB531"/>
</linearGradient>
<linearGradient id="paint2_linear_5105_63896" x1="49.4067" y1="6.97225" x2="55.0639" y2="6.97225" gradientUnits="userSpaceOnUse">
<stop stop-color="#007940"/>
<stop offset="0.2285" stop-color="#00873F"/>
<stop offset="0.7433" stop-color="#40A737"/>
<stop offset="1" stop-color="#5CB531"/>
</linearGradient>
<linearGradient id="paint3_linear_5105_63896" x1="36.7423" y1="7.93196" x2="42.487" y2="7.93196" gradientUnits="userSpaceOnUse">
<stop stop-color="#1F286F"/>
<stop offset="0.4751" stop-color="#004E94"/>
<stop offset="0.8261" stop-color="#0066B1"/>
<stop offset="1" stop-color="#006FBC"/>
</linearGradient>
<linearGradient id="paint4_linear_5105_63896" x1="43.0446" y1="7.93196" x2="48.6239" y2="7.93196" gradientUnits="userSpaceOnUse">
<stop stop-color="#6C2C2F"/>
<stop offset="0.1735" stop-color="#882730"/>
<stop offset="0.5731" stop-color="#BE1833"/>
<stop offset="0.8585" stop-color="#DC0436"/>
<stop offset="1" stop-color="#E60039"/>
</linearGradient>
</defs>
</svg>
