<svg width="24" height="24" viewBox="0 0 24 24" fill="none" xmlns="http://www.w3.org/2000/svg">
<g id="Icon">
<path id="Exclude" fill-rule="evenodd" clip-rule="evenodd" d="M8.37477 7.93128C8.37477 5.93447 10.0005 4.31042 11.9996 4.31042C13.9987 4.31042 15.6244 5.93447 15.6244 7.93128V9.73176H8.37477V7.93128ZM18.343 9.73176H17.4368V7.93129C17.4368 4.93652 14.9982 2.5 11.9996 2.5C9.00096 2.5 6.56238 4.93652 6.56238 7.93129V9.73176H5.65618C4.90584 9.73176 4.29688 10.3398 4.29688 11.0898V20.142C4.29688 20.892 4.90584 21.5 5.65618 21.5H18.343C19.0933 21.5 19.7023 20.892 19.7023 20.142V11.0898C19.7023 10.3398 19.0933 9.73176 18.343 9.73176ZM12.9058 15.8172V17.8791C12.9058 18.3786 12.4998 18.7839 11.9996 18.7839C11.4984 18.7839 11.0934 18.3786 11.0934 17.8791V15.8172C10.5533 15.5041 10.1872 14.9269 10.1872 14.2583C10.1872 13.2585 10.9982 12.4479 11.9996 12.4479C13 12.4479 13.812 13.2585 13.812 14.2583C13.812 14.9269 13.445 15.5041 12.9058 15.8172Z" fill="#6C6C6C"/>
</g>
</svg>
