<svg width="188" height="16" viewBox="0 0 188 16" fill="none" xmlns="http://www.w3.org/2000/svg">
<path d="M0 0H25.6V8.63728L24.3329 9.87471L25.6 10.976V16H0V7.85769L0.791957 7.28848L0 6.74401V0Z" fill="#016FD0"/>
<path d="M4.95703 13.0348V9.01562H9.20203L9.65747 9.61083L10.128 9.01562H25.5363V12.7576C25.5363 12.7576 25.1333 13.0308 24.6673 13.0348H16.1354L15.6219 12.4012V13.0348H13.9392V11.9533C13.9392 11.9533 13.7094 12.1043 13.2124 12.1043H12.6397V13.0348H10.092L9.63718 12.4268L9.1754 13.0348H4.95703Z" fill="white"/>
<path d="M0 5.98727L0.957264 3.75H2.61275L3.15601 5.00323V3.75H5.21394L5.53734 4.6558L5.85086 3.75H15.0888V4.20537C15.0888 4.20537 15.5744 3.75 16.3725 3.75L19.3699 3.7605L19.9038 4.99733V3.75H21.626L22.1 4.46046V3.75H23.838V7.76918H22.1L21.6457 7.05642V7.76918H19.1155L18.861 7.13561H18.1808L17.9305 7.76918H16.2145C15.5278 7.76918 15.0888 7.3231 15.0888 7.3231V7.76918H12.5016L11.9881 7.13561V7.76918H2.3675L2.11322 7.13561H1.43517L1.18269 7.76918H0V5.98727Z" fill="white"/>
<path d="M1.29602 4.25L0.00488281 7.25943H0.845482L1.08371 6.65681H2.46866L2.70566 7.25943H3.56478L2.27487 4.25H1.29602ZM1.77372 4.95039L2.19587 6.00344H1.35033L1.77372 4.95039V4.95039Z" fill="#016FD0"/>
<path d="M3.65332 7.25943V4.25L4.84786 4.25445L5.54264 6.19474L6.22079 4.25H7.40577V7.25943H6.65528V5.04196L5.85975 7.25943H5.20157L4.40381 5.04196V7.25943H3.65332Z" fill="#016FD0"/>
<path d="M7.91992 7.25943V4.25H10.3689V4.92317H8.67831V5.43793H10.3294V6.0715H8.67831V6.60607H10.3689V7.25943H7.91992Z" fill="#016FD0"/>
<path d="M10.8027 4.25V7.25943H11.5532V6.19029H11.8692L12.7691 7.25943H13.6862L12.6987 6.1507C13.104 6.11641 13.522 5.76771 13.522 5.22634C13.522 4.59305 13.0262 4.25 12.4728 4.25H10.8027V4.25ZM11.5532 4.92316H12.4111C12.6169 4.92316 12.7666 5.08454 12.7666 5.23995C12.7666 5.43988 12.5726 5.55673 12.4222 5.55673H11.5532V4.92316V4.92316Z" fill="#016FD0"/>
<path d="M14.5954 7.25943H13.8291V4.25H14.5954V7.25943Z" fill="#016FD0"/>
<path d="M16.4116 7.25943H16.2462C15.4459 7.25943 14.96 6.62736 14.96 5.76709C14.96 4.88557 15.4404 4.25 16.4511 4.25H17.2806V4.96276H16.4207C16.0105 4.96276 15.7203 5.28373 15.7203 5.77452C15.7203 6.35733 16.0521 6.60211 16.5301 6.60211H16.7276L16.4116 7.25943Z" fill="#016FD0"/>
<path d="M18.045 4.25L16.7539 7.25943H17.5945L17.8327 6.65681H19.2177L19.4547 7.25943H20.3138L19.0239 4.25H18.045ZM18.5227 4.95039L18.9449 6.00344H18.0994L18.5227 4.95039Z" fill="#016FD0"/>
<path d="M20.4014 7.25943V4.25H21.3555L22.5738 6.1408V4.25H23.3243V7.25943H22.401L21.1519 5.31914V7.25943H20.4014Z" fill="#016FD0"/>
<path d="M5.4707 12.5251V9.51562H7.91967V10.1888H6.22909V10.7036H7.88017V11.3371H6.22909V11.8717H7.91967V12.5251H5.4707Z" fill="#016FD0"/>
<path d="M17.4707 12.5251V9.51562H19.9197V10.1888H18.2291V10.7036H19.8723V11.3371H18.2291V11.8717H19.9197V12.5251H17.4707Z" fill="#016FD0"/>
<path d="M8.01472 12.5251L9.20711 11.0389L7.98633 9.51562H8.93185L9.65888 10.4573L10.3884 9.51562H11.2969L10.0921 11.0203L11.2867 12.5251H10.3414L9.63543 11.5982L8.94666 12.5251H8.01472Z" fill="#016FD0"/>
<path d="M11.376 9.51562V12.5251H12.1462V11.5747H12.9362C13.6046 11.5747 14.1113 11.2192 14.1113 10.5278C14.1113 9.95512 13.7139 9.51562 13.0337 9.51562H11.376V9.51562ZM12.1462 10.1962H12.9782C13.1941 10.1962 13.3485 10.3289 13.3485 10.5427C13.3485 10.7435 13.1949 10.8892 12.9757 10.8892H12.1462V10.1962Z" fill="#016FD0"/>
<path d="M14.4375 9.51562V12.5251H15.188V11.4559H15.504L16.4038 12.5251H17.321L16.3335 11.4163C16.7387 11.382 17.1568 11.0333 17.1568 10.492C17.1568 9.85867 16.661 9.51562 16.1076 9.51562H14.4375V9.51562ZM15.188 10.1888H16.0459C16.2517 10.1888 16.4014 10.3502 16.4014 10.5056C16.4014 10.7055 16.2074 10.8224 16.057 10.8224H15.188V10.1888V10.1888Z" fill="#016FD0"/>
<path d="M20.2672 12.5251V11.8717H21.7691C21.9914 11.8717 22.0876 11.7513 22.0876 11.6193C22.0876 11.4927 21.9917 11.3648 21.7691 11.3648H21.0904C20.5004 11.3648 20.1719 11.0045 20.1719 10.4635C20.1719 9.98096 20.4728 9.51562 21.3495 9.51562H22.8109L22.4949 10.1927H21.231C20.9893 10.1927 20.915 10.3198 20.915 10.4412C20.915 10.566 21.0069 10.7036 21.1915 10.7036H21.9024C22.5601 10.7036 22.8455 11.0775 22.8455 11.5673C22.8455 12.0938 22.5275 12.5251 21.8666 12.5251H20.2672Z" fill="#016FD0"/>
<path d="M23.0221 12.5251V11.8717H24.524C24.7463 11.8717 24.8425 11.7513 24.8425 11.6193C24.8425 11.4927 24.7466 11.3648 24.524 11.3648H23.8453C23.2553 11.3648 22.9268 11.0045 22.9268 10.4635C22.9268 9.98096 23.2276 9.51562 24.1043 9.51562H25.5658L25.2498 10.1927H23.9858C23.7442 10.1927 23.6698 10.3198 23.6698 10.4412C23.6698 10.566 23.7618 10.7036 23.9463 10.7036H24.6573C25.315 10.7036 25.6004 11.0775 25.6004 11.5673C25.6004 12.0938 25.2824 12.5251 24.6215 12.5251H23.0221Z" fill="#016FD0"/>
<path d="M56.1947 12.6642C56.1947 14.4267 54.7596 15.8618 52.9972 15.8618H35.5996V3.19753C35.5996 1.43511 37.0347 0 38.7971 0H56.1947V12.6642V12.6642Z" fill="white"/>
<path d="M50.5293 9.41945H51.8511C51.8889 9.41945 51.977 9.40687 52.0148 9.40687C52.2665 9.35651 52.4805 9.12991 52.4805 8.8152C52.4805 8.51307 52.2665 8.28647 52.0148 8.22353C51.977 8.21094 51.9015 8.21094 51.8511 8.21094H50.5293V9.41945Z" fill="url(#paint0_linear_8363_126468)"/>
<path d="M51.7002 1.07031C50.4413 1.07031 49.4091 2.09 49.4091 3.36146V5.74072H52.6444C52.7199 5.74072 52.808 5.74072 52.871 5.75331C53.6011 5.79108 54.1424 6.16874 54.1424 6.82335C54.1424 7.33949 53.7774 7.7801 53.0976 7.86822V7.89339C53.8403 7.94375 54.4068 8.35918 54.4068 9.0012C54.4068 9.69358 53.7774 10.1468 52.9465 10.1468H49.3965V14.8046H52.7577C54.0165 14.8046 55.0488 13.7849 55.0488 12.5135V1.07031H51.7002V1.07031Z" fill="url(#paint1_linear_8363_126468)"/>
<path d="M52.3169 6.97578C52.3169 6.67365 52.1029 6.47223 51.8511 6.43446C51.8259 6.43446 51.763 6.42188 51.7252 6.42188H50.5293V7.52968H51.7252C51.763 7.52968 51.8385 7.52968 51.8511 7.51709C52.1029 7.47933 52.3169 7.27791 52.3169 6.97578V6.97578Z" fill="url(#paint2_linear_8363_126468)"/>
<path d="M39.0362 1.07031C37.7773 1.07031 36.745 2.09 36.745 3.36146V9.01379C37.387 9.32851 38.0542 9.52993 38.7214 9.52993C39.5145 9.52993 39.9425 9.05156 39.9425 8.39694V5.72814H41.9064V8.38435C41.9064 9.41663 41.2644 10.2601 39.0865 10.2601C37.7647 10.2601 36.7324 9.97053 36.7324 9.97053V14.792H40.0936C41.3525 14.792 42.3848 13.7723 42.3848 12.5009V1.07031H39.0362V1.07031Z" fill="url(#paint3_linear_8363_126468)"/>
<path d="M45.3683 1.07031C44.1094 1.07031 43.0771 2.09 43.0771 3.36146V6.35757C43.6562 5.86661 44.6633 5.55189 46.2873 5.62743C47.1559 5.66519 48.0875 5.90438 48.0875 5.90438V6.87371C47.6217 6.63452 47.0678 6.42052 46.3502 6.37016C45.1165 6.28204 44.3738 6.8863 44.3738 7.94375C44.3738 9.01379 45.1165 9.61805 46.3502 9.51734C47.0678 9.46698 47.6217 9.24039 48.0875 9.01379V9.98312C48.0875 9.98312 47.1685 10.2223 46.2873 10.2601C44.6633 10.3356 43.6562 10.0209 43.0771 9.52993V14.8172H46.4383C47.6972 14.8172 48.7295 13.7975 48.7295 12.526V1.07031H45.3683V1.07031Z" fill="url(#paint4_linear_8363_126468)"/>
<path d="M91.5874 12.9591V12.6484H91.5105L91.4208 12.8556L91.3311 12.6484H91.2542V12.9591H91.3054V12.7261L91.3952 12.9332H91.4593L91.549 12.7261V12.9591H91.5874ZM91.0747 12.9591V12.7002H91.1773V12.6484H90.9209V12.7002H91.0234V12.9591H91.0747Z" fill="#00A2E5"/>
<path d="M82.4745 14.2935H75.54V1.71094H82.4745V14.2935Z" fill="#7375CF"/>
<path d="M75.9882 8C75.9882 5.44984 77.1674 3.17152 79.0132 1.70874C77.6673 0.634304 75.9625 0 74.1168 0C69.7459 0 66.1953 3.58576 66.1953 8C66.1953 12.4142 69.7459 16 74.1168 16C75.9625 16 77.6673 15.3657 79.0132 14.2913C77.1674 12.8285 75.9882 10.5502 75.9882 8Z" fill="#EB001B"/>
<path d="M91.8316 8C91.8316 12.4142 88.281 16 83.9101 16C82.0643 16 80.3596 15.3657 79.0137 14.2913C80.8594 12.8285 82.0387 10.5502 82.0387 8C82.0387 5.44984 80.8594 3.17152 79.0137 1.70874C80.3596 0.634304 82.0643 0 83.9101 0C88.281 0 91.8316 3.58576 91.8316 8Z" fill="#00A2E5"/>
<path d="M118.257 1.71094H111.256V14.2883H118.257V1.71094Z" fill="#FF5A00"/>
<path d="M111.722 8C111.722 5.44466 112.924 3.1767 114.767 1.71133C113.41 0.64466 111.699 0 109.832 0C105.409 0 101.831 3.57799 101.831 8C101.831 12.422 105.409 16 109.832 16C111.699 16 113.41 15.3553 114.767 14.2887C112.921 12.844 111.722 10.5553 111.722 8Z" fill="#EB001B"/>
<path d="M127.704 8C127.704 12.422 124.125 16 119.703 16C117.836 16 116.124 15.3553 114.768 14.2887C116.634 12.8207 117.813 10.5553 117.813 8C117.813 5.44466 116.611 3.1767 114.768 1.71133C116.122 0.64466 117.833 0 119.7 0C124.125 0 127.704 3.60129 127.704 8Z" fill="#F79E1B"/>
<path d="M159.083 15.7333H155.059L157.574 0.276197H161.599L159.083 15.7333ZM151.673 0.276197L147.837 10.9077L147.383 8.61834L147.383 8.61917L146.029 1.66793C146.029 1.66793 145.865 0.276197 144.12 0.276197H137.778L137.703 0.537922C137.703 0.537922 139.643 0.941467 141.913 2.30467L145.409 15.7337H149.602L156.004 0.276197H151.673V0.276197ZM183.326 15.7333H187.022L183.8 0.275784H180.565C179.071 0.275784 178.707 1.42771 178.707 1.42771L172.705 15.7333H176.9L177.739 13.4373H182.855L183.326 15.7333ZM178.898 10.2656L181.013 4.48117L182.202 10.2656H178.898ZM173.02 3.99328L173.594 0.673953C173.594 0.673953 171.822 0 169.975 0C167.978 0 163.235 0.872832 163.235 5.11709C163.235 9.11037 168.801 9.15999 168.801 11.2575C168.801 13.355 163.809 12.9792 162.161 11.6565L161.563 15.1272C161.563 15.1272 163.36 16 166.105 16C168.851 16 172.994 14.5781 172.994 10.708C172.994 6.6891 167.378 6.31491 167.378 4.56759C167.379 2.81986 171.298 3.04437 173.02 3.99328V3.99328Z" fill="#1434CB"/>
<defs>
<linearGradient id="paint0_linear_8363_126468" x1="49.4068" y1="8.8167" x2="55.0638" y2="8.8167" gradientUnits="userSpaceOnUse">
<stop stop-color="#007940"/>
<stop offset="0.2285" stop-color="#00873F"/>
<stop offset="0.7433" stop-color="#40A737"/>
<stop offset="1" stop-color="#5CB531"/>
</linearGradient>
<linearGradient id="paint1_linear_8363_126468" x1="49.4068" y1="7.93196" x2="55.0643" y2="7.93196" gradientUnits="userSpaceOnUse">
<stop stop-color="#007940"/>
<stop offset="0.2285" stop-color="#00873F"/>
<stop offset="0.7433" stop-color="#40A737"/>
<stop offset="1" stop-color="#5CB531"/>
</linearGradient>
<linearGradient id="paint2_linear_8363_126468" x1="49.4067" y1="6.9742" x2="55.0639" y2="6.9742" gradientUnits="userSpaceOnUse">
<stop stop-color="#007940"/>
<stop offset="0.2285" stop-color="#00873F"/>
<stop offset="0.7433" stop-color="#40A737"/>
<stop offset="1" stop-color="#5CB531"/>
</linearGradient>
<linearGradient id="paint3_linear_8363_126468" x1="36.7423" y1="7.93196" x2="42.487" y2="7.93196" gradientUnits="userSpaceOnUse">
<stop stop-color="#1F286F"/>
<stop offset="0.4751" stop-color="#004E94"/>
<stop offset="0.8261" stop-color="#0066B1"/>
<stop offset="1" stop-color="#006FBC"/>
</linearGradient>
<linearGradient id="paint4_linear_8363_126468" x1="43.0446" y1="7.93196" x2="48.6239" y2="7.93196" gradientUnits="userSpaceOnUse">
<stop stop-color="#6C2C2F"/>
<stop offset="0.1735" stop-color="#882730"/>
<stop offset="0.5731" stop-color="#BE1833"/>
<stop offset="0.8585" stop-color="#DC0436"/>
<stop offset="1" stop-color="#E60039"/>
</linearGradient>
</defs>
</svg>
