<svg width="175" height="46" viewBox="0 0 175 46" fill="none" xmlns="http://www.w3.org/2000/svg">
<path d="M21.6414 33.438H21.5354C20.9891 33.438 20.4895 33.6392 20.1067 33.9735C19.9467 33.9358 19.7814 33.916 19.6107 33.916C18.4084 33.916 17.429 34.8954 17.429 36.0977V38.558C17.429 39.7603 18.4084 40.7397 19.6107 40.7397C19.7814 40.7397 19.9467 40.7199 20.1067 40.6822C20.4895 41.0147 20.9891 41.2177 21.5354 41.2177H21.6414C22.8455 41.2177 23.8231 40.2383 23.8231 39.036V35.6215C23.8231 34.4174 22.8455 33.438 21.6414 33.438Z" fill="#48CEE0"/>
<path d="M32.1636 33.916C31.9929 33.916 31.8275 33.9358 31.6676 33.9735C31.2848 33.641 30.7852 33.438 30.2389 33.438H30.1311C28.9288 33.438 27.9493 34.4174 27.9493 35.6197V39.0342C27.9493 40.2383 28.9288 41.2159 30.1311 41.2159H30.2389C30.7852 41.2159 31.2848 41.0147 31.6676 40.6804C31.8275 40.7181 31.9929 40.7379 32.1636 40.7379C33.3659 40.7379 34.3453 39.7585 34.3453 38.5562V36.0959C34.3453 34.8954 33.3659 33.916 32.1636 33.916Z" fill="#48CEE0"/>
<path d="M43.978 36.9657C44.377 36.414 44.3788 35.8497 44.3608 35.6377C44.3087 34.9979 43.9565 34.4462 43.3706 34.0813C42.8746 33.774 42.2241 33.6105 41.4908 33.6105C41.356 33.6105 41.2177 33.6159 41.0811 33.6267C40.4736 33.677 39.8608 33.9088 39.4798 34.0795L24.0317 35.1938L9.84877 34.3761C9.80384 34.3743 9.75892 34.3725 9.71758 34.3725C8.50632 34.3725 7.51071 35.3214 7.455 36.5326C7.43702 36.91 7.5125 37.2766 7.66885 37.6073C7.52508 37.9416 7.46578 38.3082 7.49633 38.682C7.59337 39.8483 8.58359 40.7613 9.75352 40.7613C9.82361 40.7613 9.8955 40.7577 9.96559 40.7523L24.1072 39.435L39.5823 40.0029C39.9687 40.161 40.5887 40.3713 41.1979 40.4C41.2788 40.4036 41.3578 40.4054 41.4351 40.4054C42.2025 40.4054 42.8836 40.2329 43.403 39.9076C44.0194 39.5213 44.3752 38.9408 44.4076 38.2758C44.4273 37.7942 44.2782 37.3449 43.978 36.9657Z" fill="#48CEE0"/>
<path d="M25.2411 42.2798C21.8553 40.1664 18.4444 37.2012 15.3749 33.7075C12.4114 30.3343 10.0123 26.7077 8.62128 23.4963C7.31118 20.4717 6.76665 17.3033 7.09193 14.5789C7.52503 10.9415 9.37787 8.09306 12.6001 6.10903C15.905 4.07468 20.5003 3 25.8899 3C31.2777 3 35.8729 4.07468 39.1797 6.10903C42.4019 8.09127 44.2548 10.9415 44.6879 14.5789C45.0131 17.3051 44.4686 20.4717 43.1585 23.4963C41.7675 26.7077 39.3684 30.3343 36.4049 33.7075C33.3354 37.2012 29.9244 40.1646 26.5387 42.2798L25.8917 42.6842L25.2411 42.2798Z" fill="#48CEE0"/>
<path d="M27.3851 9.5092C23.958 8.23683 18.581 9.5038 13.921 14.6166C9.93679 18.9891 11.3332 25.0508 11.822 26.7149C11.8993 26.9809 11.955 27.1336 11.9604 27.1516C6.84393 19.3341 6.84932 12.3397 11.7124 8.2566C16.5772 4.17352 25.8863 4.22025 25.8863 4.22025C26.323 4.52216 26.6411 4.93191 26.8729 5.38838C27.7481 7.10643 27.3851 9.5092 27.3851 9.5092Z" fill="#FFC80B"/>
<path d="M26.8981 9.26479C23.4709 7.99242 18.0939 9.2594 13.434 14.3722C9.44973 18.7446 10.8461 24.8064 11.3349 26.4705C7.10268 19.2227 7.782 13.1017 12.5138 9.46247C18.6385 4.7522 26.6285 5.68671 26.5063 5.41354C27.3815 7.13519 26.8981 9.26479 26.8981 9.26479Z" fill="#F8A541"/>
<path d="M39.2695 21.2211C38.3332 26.0464 35.4201 28.0035 32.9023 28.3863C32.5752 28.4366 32.2571 28.4599 31.948 28.4599C29.2631 28.4599 26.0714 26.2638 25.2771 22.5222L26.8226 15.2816L28.0357 9.83629C28.0357 9.83629 27.6295 7.97985 28.3682 6.65896C29.1068 5.33987 31.2921 5.39558 33.33 6.41456C33.4468 6.47206 33.5601 6.53496 33.6733 6.59966C35.6178 7.72286 37.0717 9.88301 37.0717 12.1905C37.0717 12.1923 40.3263 15.7704 39.2695 21.2211Z" fill="white"/>
<path d="M39.2695 21.2211C38.3332 26.0464 35.4201 28.0034 32.9023 28.3862C32.8664 28.3341 32.8484 28.3036 32.8484 28.3036C39.6433 20.2219 34.7282 11.8005 34.7282 11.8005C35.1002 9.27916 34.3382 7.5629 33.6769 6.59964C35.6214 7.72285 37.0752 9.88299 37.0752 12.1905C37.0716 12.1923 40.3262 15.7704 39.2695 21.2211Z" fill="#E8E4D2"/>
<path d="M12.0915 27.3565C12.0915 27.3565 10.2028 22.2185 12.0915 17.7418C14.2966 12.5176 19.201 9.64218 23.9831 9.18212C28.2064 8.77597 29.184 10.7564 29.4266 11.7844C29.7519 13.1682 29.2901 14.7496 26.8244 15.2816C24.3587 15.8135 18.6546 16.8271 15.5798 19.5929C12.5049 22.3587 12.3503 26.6736 13.4861 29.3962" fill="#EF453F"/>
<path d="M41.178 24.7938C37.6808 30.2031 35.1019 33.6572 35.0211 33.7633C35.0516 33.7165 35.5243 32.9797 35.9376 31.9086C36.466 30.5392 36.8955 28.6253 36.1748 26.918C36.1748 26.918 42.9033 20.4196 37.0716 12.1905C37.0716 12.1905 37.4562 8.59986 33.4917 6.49902C33.1017 6.29235 32.7261 6.12342 32.3667 5.99043C31.7467 5.7586 31.1752 5.6346 30.6594 5.60225C29.4913 5.53037 28.6197 5.94011 28.1614 6.7003C27.7463 7.3868 27.6726 8.36084 28.0248 9.52179L27.2772 9.18033C27.2772 9.18033 27.5917 8.31052 27.4498 7.16216C27.3725 6.53496 27.1568 5.82509 26.6824 5.12781C26.4721 4.8187 26.2097 4.51319 25.8881 4.21846C25.8881 4.21846 33.294 3.81231 39.0898 7.50721C44.5369 10.9811 44.731 19.2982 41.178 24.7938Z" fill="#827596"/>
<path d="M26.6356 5.46746C27.6708 5.46746 29.0653 5.52856 30.6324 5.7532C29.4625 5.73703 28.6107 6.18811 28.1901 6.96806C27.9206 7.09386 27.6887 7.2592 27.5 7.46227C27.3922 6.84047 27.1442 6.14138 26.6356 5.46746Z" fill="#483C59"/>
<path d="M35.9376 31.9086C36.4659 30.5392 36.8955 28.6253 36.1748 26.918C36.1748 26.918 42.9033 20.4196 37.0716 12.1905C37.0716 12.1905 37.4562 8.59986 33.4917 6.49901C33.1017 6.29234 32.7261 6.12341 32.3667 5.99043C34.2267 6.48104 36.209 7.23584 38.0313 8.39858C43.4801 11.8742 43.5826 21.0558 40.0297 26.5514C40.0297 26.5532 37.2944 30.7513 35.9376 31.9086Z" fill="#483C59"/>
<path d="M27.3132 17.8191C27.1982 19.0484 26.7795 20.5777 25.6419 22.0963C23.0846 25.518 21.0394 25.0975 19.041 28.3C17.8585 30.1942 17.6411 31.896 17.801 33.1936C17.9124 34.0903 18.2018 34.793 18.4785 35.2369C18.4785 35.2369 18.2108 34.9961 17.783 34.5774C16.6508 33.4631 14.4044 31.0891 13.1123 28.6109C13.1123 28.6109 12.9398 27.9585 12.8751 26.9575C12.7313 24.81 13.0728 21.0593 16.6347 18.7123C21.2317 15.6823 27.1227 15.2061 27.1227 15.2061C27.1227 15.2061 27.457 16.2808 27.3132 17.8191Z" fill="#827596"/>
<path d="M27.6024 17.6466C27.4874 18.8758 27.0687 20.4052 25.9311 21.9238C23.3738 25.3455 21.3287 24.925 19.3303 28.1275C18.1477 30.0216 17.9303 31.7235 18.0902 33.021C18.0309 33.5188 18.0327 33.9825 18.0723 34.4048C16.9401 33.2906 14.6937 30.9166 13.4015 28.4384C13.4015 28.4384 13.229 27.786 13.1643 26.785C13.3081 24.6626 14.1114 21.9328 16.9239 20.0799C21.521 17.05 27.4119 16.5737 27.4119 16.5737C27.4119 16.5737 27.5395 16.9799 27.6024 17.6466Z" fill="#483C59"/>
<path d="M37.0717 12.5176C37.0717 12.5176 36.1048 12.0468 34.7246 11.8023C33.2384 11.54 31.2741 11.54 29.5165 12.674C29.3135 10.7474 28.0249 9.52359 28.0249 9.52359C27.7769 8.41116 27.8775 7.42274 28.4508 6.52597C28.9055 5.81611 30.2767 5.1332 32.4135 5.97066C32.9724 6.18991 33.5816 6.5116 34.2412 6.96447C37.4311 9.15158 37.0717 12.5176 37.0717 12.5176Z" fill="#FFC80B"/>
<path d="M37.0716 12.5176C37.0716 12.5176 36.1048 12.0468 34.7246 11.8023C35.0858 9.2055 33.7595 6.99683 32.4135 5.97066C32.9724 6.18991 33.5816 6.5116 34.2411 6.96448C37.431 9.15158 37.0716 12.5176 37.0716 12.5176Z" fill="#F8A541"/>
<path d="M35.8424 31.5797C35.5063 32.4154 34.9941 33.323 34.2322 34.2736C30.9812 38.3244 25.8881 41.2429 25.8881 41.2429C25.8881 41.2429 21.0287 38.1572 18.4803 35.2387C17.6249 33.0588 17.6698 31.3156 18.2161 29.8617C19.5083 26.4256 23.6075 24.6141 25.2771 22.5222C25.2771 22.5222 28.2495 32.1566 36.1767 26.918C36.1767 26.918 36.9422 28.8553 35.8424 31.5797Z" fill="#483C59"/>
<path d="M30.4347 30.6938C27.6779 32.0794 26.7363 29.8491 26.7363 29.8491C23.7135 31.0909 23.027 28.4923 23.027 28.4923C23.4529 31.817 26.6284 30.5788 26.6284 30.5788C28.2081 32.7766 30.4276 31.3156 30.4276 31.3156C31.9929 32.8449 33.3748 30.8879 33.3748 30.8879C31.7359 32.0919 30.4347 30.6938 30.4347 30.6938Z" fill="#223644"/>
<path d="M43.8755 14.6742C43.473 11.2956 41.7495 8.64838 38.7483 6.80094C35.571 4.84566 31.1231 3.81231 25.8863 3.81231C20.6495 3.81231 16.2016 4.84566 13.0242 6.80094C10.0248 8.64659 8.29958 11.2956 7.89702 14.6742C7.58971 17.2584 8.11088 20.2776 9.36528 23.1728C10.7239 26.3088 13.0746 29.8581 15.9841 33.1702C19.0015 36.6045 22.3513 39.5159 25.6706 41.588L25.8863 41.7227L26.1019 41.588C29.4212 39.5159 32.7711 36.6045 35.7885 33.1702C38.698 29.8581 41.0487 26.307 42.4073 23.1728C43.6617 20.2776 44.1847 17.2584 43.8755 14.6742ZM26.8621 8.91975C26.0372 8.71667 25.0614 8.66815 23.9418 8.77598C20.8166 9.0779 17.9484 10.3089 15.6768 12.2229C16.3256 8.87123 14.6434 7.69411 13.7503 7.31491C16.7533 5.5699 20.8939 4.64258 25.7605 4.62641C26.1091 4.88879 27.3617 6.05513 26.8621 8.91975ZM12.5138 27.2595C12.4959 27.2307 12.4761 27.2019 12.4581 27.1732C12.2856 26.6718 10.7545 21.9597 12.4671 17.9C14.8016 12.3666 19.9665 9.97646 24.0227 9.58649C27.8254 9.21987 28.794 10.8642 29.0313 11.8778C29.1445 12.3559 29.1948 13.0567 28.803 13.6768C28.4328 14.2626 27.7373 14.6688 26.7381 14.8844C26.5458 14.9258 26.332 14.9707 26.1019 15.0192C23.3469 15.5961 18.2215 16.669 15.3084 19.291C13.8311 20.6191 12.8787 22.4018 12.5534 24.4469C12.4042 25.3725 12.3952 26.3339 12.5138 27.2595ZM36.7715 12.4655C36.802 12.4996 39.8769 15.9537 38.8687 21.1438C37.8803 26.2387 34.6455 28.0538 31.9462 28.0538C29.4967 28.0538 26.5386 26.0338 25.7209 22.6408C26.0319 22.2742 26.3284 21.8753 26.5979 21.4332C28.1021 18.9729 27.7984 16.4425 27.6061 15.4865C28.4652 15.1917 29.096 14.7317 29.4877 14.1117C29.9172 13.4323 30.0323 12.5949 29.8202 11.6927C29.68 11.0961 29.326 10.2532 28.431 9.61524C28.422 9.60805 28.413 9.60266 28.4023 9.59727C28.3304 9.14978 28.1812 7.8217 28.7204 6.86024C29.2918 5.83947 31.195 5.80533 33.1467 6.78117C35.2529 7.83069 36.6655 10.007 36.6655 12.1923V12.3505L36.7715 12.4655ZM19.4022 30.8573C19.7113 29.3747 20.432 27.8723 22.3441 26.1291C23.532 25.0472 24.2473 24.2582 24.6768 23.7119C24.8098 23.5915 24.941 23.4693 25.0704 23.3417C25.6527 25.2449 26.7651 26.4813 27.6457 27.2073C28.9234 28.2623 30.4923 28.8661 31.948 28.8661C33.3282 28.8661 34.6976 28.4348 35.8765 27.644C35.837 28.6163 35.5566 30.8627 33.9123 32.9833C27.8865 35.6143 22.3136 33.7471 19.4022 30.8573ZM16.1189 32.0704C15.8835 29.4987 16.6095 27.2487 18.2808 25.3815C19.5406 23.9725 20.8957 23.3201 20.91 23.3148C21.1131 23.2195 21.1994 22.9769 21.1041 22.7738C21.0089 22.5707 20.7663 22.4827 20.5632 22.5797C20.5021 22.6085 19.068 23.295 17.6986 24.8154C16.5682 26.0698 15.2994 28.1257 15.2653 31.0442C15.0388 30.7639 14.816 30.4817 14.5967 30.1978C14.6093 30.151 14.6165 30.1025 14.6111 30.0504C14.3739 27.5128 14.9777 25.3833 16.4046 23.7191C17.4703 22.4773 18.6241 21.9687 18.6474 21.9579C18.8541 21.8699 18.9494 21.6308 18.8631 21.4242C18.775 21.2175 18.536 21.1205 18.3294 21.2085C18.2754 21.2319 17.0085 21.78 15.8134 23.1566C14.8447 24.2744 13.7664 26.1488 13.7485 28.9559C12.7475 26.2333 13.1357 22.3389 15.8493 19.8966C18.5989 17.422 23.586 16.3778 26.2655 15.8153C26.4614 15.774 26.6447 15.7363 26.8154 15.6985C26.9789 16.5755 27.2216 18.8507 25.9043 21.0072C24.9392 22.5851 23.6578 23.5538 22.301 24.5781C21.2515 25.3707 20.1642 26.192 19.2639 27.308C17.6644 29.292 17.0839 31.3246 17.4883 33.6105C17.0228 33.1073 16.5646 32.5915 16.1189 32.0704ZM41.6615 22.8493C40.5095 25.5055 38.68 28.3665 36.4696 31.0945C37.2495 28.9398 36.9278 27.6009 36.6834 27.0204C38.1858 25.6852 39.1904 23.764 39.6685 21.3002C40.6569 16.2071 38.0493 12.7297 37.4778 12.0396C37.4149 9.60625 35.837 7.21607 33.5133 6.05333C31.0908 4.84206 28.8282 5.0092 28.0141 6.46307C27.9116 6.64458 27.8308 6.83328 27.7643 7.02558C27.6565 5.91136 27.2701 5.14218 26.8945 4.64079C31.5419 4.76299 35.4776 5.74422 38.3242 7.49463C45.6421 11.9982 42.729 20.3854 41.6615 22.8493Z" fill="#223644"/>
<path d="M9.58259 37.6792C9.04705 37.6091 8.64809 37.1329 8.67325 36.5919C8.68583 36.3116 8.80983 36.0528 9.0183 35.8641C9.22676 35.6754 9.49813 35.5802 9.77848 35.5963L39.9217 37.3341C40.1518 37.2551 40.8005 37.052 41.3522 37.079C41.4565 37.0843 41.5589 37.0933 41.6613 37.1059C42.6138 37.2299 43.2105 37.6666 43.1853 38.2183C43.1763 38.4178 43.0703 38.7862 42.4701 39.0145C42.134 39.1421 41.7027 39.2014 41.2534 39.1798C41.1941 39.1762 41.1294 39.1708 41.0665 39.1636C40.5705 39.0989 40.0511 38.8815 39.8552 38.7916L9.68143 37.6864C9.64729 37.6864 9.61494 37.6828 9.58259 37.6792Z" fill="#F2C5A0"/>
<path d="M41.3344 37.4851C40.7414 37.4564 39.983 37.7457 39.983 37.7457L9.75708 36.0043C9.40125 35.9845 9.09754 36.2577 9.08136 36.6117C9.06519 36.9675 9.34195 37.2677 9.69598 37.2802L39.9524 38.3891C39.9524 38.3891 40.6821 38.7467 41.2733 38.7754C42.0874 38.8132 42.7614 38.5562 42.7793 38.2004C42.7955 37.8445 42.1485 37.5228 41.3344 37.4851Z" fill="#A57C58"/>
<path d="M41.3738 37.2245C40.7808 37.1922 40.0188 37.4725 40.0188 37.4725L9.80907 35.4705C9.45324 35.4472 9.14773 35.7185 9.12796 36.0726C9.10819 36.4284 9.38136 36.7303 9.73719 36.7465L39.9829 38.1159C39.9829 38.1159 40.7089 38.4807 41.302 38.5131C42.1161 38.558 42.7918 38.3064 42.8133 37.9506C42.8331 37.5947 42.1879 37.2695 41.3738 37.2245Z" fill="#F2C5A0"/>
<path d="M9.71933 36.0025C9.73191 36.0025 9.74449 36.0025 9.75707 36.0043L39.983 37.7457C39.983 37.7457 40.6731 37.4833 41.2518 37.4833C41.2805 37.4833 41.3075 37.4833 41.3344 37.4851C42.1485 37.5229 42.7955 37.8427 42.7793 38.2004C42.7631 38.5328 42.1755 38.7808 41.4333 38.7808C41.3811 38.7808 41.3272 38.779 41.2733 38.7773C40.6803 38.7485 39.9524 38.3909 39.9524 38.3909L9.69597 37.282C9.34014 37.2695 9.06338 36.9675 9.08135 36.6135C9.09573 36.2685 9.37967 36.0025 9.71933 36.0025ZM9.71933 35.1884C8.94297 35.1884 8.30499 35.7958 8.26905 36.5722C8.25108 36.9622 8.38586 37.336 8.65004 37.6235C8.91422 37.911 9.27544 38.0782 9.66542 38.0925L39.7601 39.196C40.0531 39.3236 40.6659 39.5608 41.2356 39.5878C41.3021 39.5914 41.3686 39.5931 41.4333 39.5931C42.6859 39.5931 43.5539 39.0486 43.5916 38.2381C43.6024 37.9973 43.5413 37.3953 42.729 36.9945C42.357 36.8112 41.8754 36.6962 41.3722 36.6728C41.3326 36.671 41.2913 36.6692 41.25 36.6692C40.7162 36.6692 40.1483 36.831 39.8662 36.9226L9.802 35.1902C9.77504 35.1902 9.74629 35.1884 9.71933 35.1884Z" fill="#223644"/>
<path d="M9.75342 39.5446C9.21429 39.5446 8.75602 39.1223 8.71109 38.5849C8.68773 38.3046 8.77579 38.0314 8.95909 37.8176C9.1424 37.6037 9.39759 37.4743 9.67795 37.4546L39.7942 35.2836C40.0117 35.1758 40.6299 34.8901 41.1798 34.8451C41.284 34.8361 41.3865 34.8325 41.4889 34.8325C42.4486 34.8325 43.0974 35.1884 43.1441 35.7401C43.1603 35.9396 43.1045 36.317 42.5384 36.6225C42.2221 36.7932 41.8016 36.9082 41.3541 36.9442C41.2948 36.9496 41.2301 36.9514 41.1654 36.9514C40.664 36.9514 40.1231 36.8022 39.9146 36.7393L9.85227 39.5392C9.81992 39.5428 9.78577 39.5446 9.75342 39.5446Z" fill="#F2C5A0"/>
<path d="M41.214 35.2513C40.6227 35.2998 39.9075 35.6844 39.9075 35.6844L9.7085 37.8607C9.35446 37.8859 9.08849 38.1968 9.11724 38.5508C9.14599 38.9048 9.45869 39.1672 9.81453 39.1349L39.9596 36.326C39.9596 36.326 40.7287 36.5866 41.32 36.538C42.1323 36.4715 42.7685 36.1283 42.7379 35.7725C42.7092 35.4166 42.0263 35.183 41.214 35.2513Z" fill="#A57C58"/>
<path d="M41.2303 34.9745C40.639 35.0177 39.9202 35.3968 39.9202 35.3968L9.70325 37.3144C9.34742 37.3377 9.07965 37.6451 9.10661 37.9991C9.13356 38.3531 9.44447 38.6191 9.7985 38.5885L39.9669 36.0384C39.9669 36.0384 40.7343 36.3062 41.3255 36.2631C42.1396 36.2038 42.7776 35.8659 42.7507 35.5101C42.7237 35.1542 42.0426 34.9152 41.2303 34.9745Z" fill="#F2C5A0"/>
<path d="M41.4889 35.2387C42.1754 35.2387 42.7128 35.4579 42.7379 35.7724C42.7667 36.1283 42.1323 36.4715 41.32 36.538C41.2697 36.5416 41.2176 36.5434 41.1654 36.5434C40.6029 36.5434 39.9596 36.3242 39.9596 36.3242L9.81453 39.1349C9.79476 39.1367 9.77499 39.1385 9.75522 39.1385C9.42635 39.1385 9.146 38.8869 9.11904 38.5508C9.09029 38.1968 9.35626 37.8859 9.7103 37.8607L39.9075 35.6844C39.9075 35.6844 40.6227 35.2998 41.214 35.2513C41.3074 35.2423 41.4009 35.2387 41.4889 35.2387ZM41.4889 34.4246C41.3757 34.4246 41.2607 34.43 41.1457 34.439C40.5778 34.4857 39.9739 34.7445 39.6864 34.8829L9.65099 37.0484C9.26101 37.0772 8.90698 37.2551 8.65179 37.5516C8.39659 37.8481 8.27439 38.2273 8.30674 38.6155C8.36784 39.3631 9.00402 39.949 9.75343 39.949C9.79836 39.949 9.84328 39.9472 9.88821 39.9418L39.8733 37.149C40.1411 37.2263 40.6622 37.3557 41.1636 37.3557C41.2391 37.3557 41.3146 37.3521 41.3865 37.3467C41.8897 37.3054 42.3659 37.1742 42.7307 36.9765C43.5287 36.547 43.5682 35.9432 43.5484 35.7024C43.4855 34.9278 42.6768 34.4246 41.4889 34.4246Z" fill="#223644"/>
<path d="M22.6029 35.6215V39.0342C22.6029 39.5662 22.1734 39.9957 21.6414 39.9957H21.5336C21.0017 39.9957 20.5721 39.5644 20.5721 39.0342V35.6215C20.5721 35.0895 21.0017 34.66 21.5336 34.66H21.6414C22.1734 34.6582 22.6029 35.0895 22.6029 35.6215Z" fill="#F8A541"/>
<path d="M20.5721 36.0977V38.558C20.5721 39.09 20.1426 39.5195 19.6106 39.5195C19.0787 39.5195 18.6492 39.09 18.6492 38.558V36.0977C18.6492 35.5658 19.0805 35.1363 19.6106 35.1363C19.8766 35.1363 20.1174 35.2441 20.2899 35.4184C20.4661 35.5909 20.5721 35.8318 20.5721 36.0977Z" fill="#F8A541"/>
<path d="M24.5275 36.0977V38.558C24.5275 39.09 24.098 39.5195 23.5661 39.5195C23.0341 39.5195 22.6046 39.09 22.6046 38.558V36.0977C22.6046 35.5658 23.0359 35.1363 23.5661 35.1363C23.8321 35.1363 24.0729 35.2441 24.2454 35.4184C24.4197 35.5909 24.5275 35.8318 24.5275 36.0977Z" fill="#F8A541"/>
<path d="M22.6029 37.9272V39.036C22.6029 39.568 22.1734 39.9975 21.6414 39.9975H21.5336C21.0017 39.9975 20.5721 39.5662 20.5721 39.036V37.9272C20.5721 37.3952 21.0017 36.9657 21.5336 36.9657H21.6414C22.1734 36.9657 22.6029 37.3952 22.6029 37.9272Z" fill="#C78434"/>
<path d="M20.5721 38.4035V38.558C20.5721 39.09 20.1426 39.5195 19.6106 39.5195C19.0787 39.5195 18.6492 39.09 18.6492 38.558V38.4035C18.6492 37.8715 19.0805 37.442 19.6106 37.442C19.8766 37.442 20.1174 37.5498 20.2899 37.7241C20.4661 37.8985 20.5721 38.1375 20.5721 38.4035Z" fill="#C78434"/>
<path d="M24.5275 38.4035V38.558C24.5275 39.09 24.098 39.5195 23.5661 39.5195C23.0341 39.5195 22.6046 39.09 22.6046 38.558V38.4035C22.6046 37.8715 23.0359 37.442 23.5661 37.442C23.8321 37.442 24.0729 37.5498 24.2454 37.7241C24.4197 37.8985 24.5275 38.1375 24.5275 38.4035Z" fill="#C78434"/>
<path d="M21.6415 40.4036H21.5354C20.7806 40.4036 20.166 39.789 20.166 39.0342V35.6197C20.166 34.8649 20.7806 34.2503 21.5354 34.2503H21.6415C22.3963 34.2503 23.0109 34.8649 23.0109 35.6197V39.0342C23.0109 39.789 22.3963 40.4036 21.6415 40.4036ZM21.5354 35.0662C21.2299 35.0662 20.9801 35.316 20.9801 35.6215V39.036C20.9801 39.3415 21.2299 39.5913 21.5354 39.5913H21.6415C21.947 39.5913 22.1968 39.3415 22.1968 39.036V35.6215C22.1968 35.316 21.947 35.0662 21.6415 35.0662H21.5354Z" fill="#223644"/>
<path d="M19.6106 39.9256C18.8558 39.9256 18.2412 39.311 18.2412 38.5562V36.0959C18.2412 35.3411 18.8558 34.7265 19.6106 34.7265C20.3654 34.7265 20.98 35.3411 20.98 36.0959V38.5562C20.98 39.3128 20.3654 39.9256 19.6106 39.9256ZM19.6106 35.5424C19.3051 35.5424 19.0553 35.7922 19.0553 36.0977V38.558C19.0553 38.8635 19.3051 39.1133 19.6106 39.1133C19.9161 39.1133 20.1659 38.8635 20.1659 38.558V36.0977C20.1659 35.7922 19.9161 35.5424 19.6106 35.5424Z" fill="#223644"/>
<path d="M23.5642 39.9256C22.8094 39.9256 22.1948 39.311 22.1948 38.5562V36.0959C22.1948 35.3411 22.8094 34.7265 23.5642 34.7265C24.319 34.7265 24.9336 35.3411 24.9336 36.0959V38.5562C24.9336 39.3128 24.319 39.9256 23.5642 39.9256ZM23.5642 35.5424C23.2587 35.5424 23.0089 35.7922 23.0089 36.0977V38.558C23.0089 38.8635 23.2587 39.1133 23.5642 39.1133C23.8698 39.1133 24.1196 38.8635 24.1196 38.558V36.0977C24.1196 35.7922 23.8715 35.5424 23.5642 35.5424Z" fill="#223644"/>
<path d="M29.1714 35.6215V39.0342C29.1714 39.5662 29.6009 39.9957 30.1328 39.9957H30.2407C30.7726 39.9957 31.2021 39.5644 31.2021 39.0342V35.6215C31.2021 35.0895 30.7726 34.66 30.2407 34.66H30.1328C29.6009 34.6582 29.1714 35.0895 29.1714 35.6215Z" fill="#F8A541"/>
<path d="M31.2021 36.0977V38.558C31.2021 39.09 31.6317 39.5195 32.1636 39.5195C32.6956 39.5195 33.1251 39.09 33.1251 38.558V36.0977C33.1251 35.5658 32.6938 35.1363 32.1636 35.1363C31.8976 35.1363 31.6568 35.2441 31.4843 35.4184C31.3082 35.5909 31.2021 35.8318 31.2021 36.0977Z" fill="#F8A541"/>
<path d="M27.2467 36.0977V38.558C27.2467 39.09 27.6762 39.5195 28.2082 39.5195C28.7401 39.5195 29.1696 39.09 29.1696 38.558V36.0977C29.1696 35.5658 28.7383 35.1363 28.2082 35.1363C27.9422 35.1363 27.7014 35.2441 27.5289 35.4184C27.3545 35.5909 27.2467 35.8318 27.2467 36.0977Z" fill="#F8A541"/>
<path d="M29.1714 37.9272V39.036C29.1714 39.568 29.6009 39.9975 30.1328 39.9975H30.2407C30.7726 39.9975 31.2021 39.5662 31.2021 39.036V37.9272C31.2021 37.3952 30.7726 36.9657 30.2407 36.9657H30.1328C29.6009 36.9657 29.1714 37.3952 29.1714 37.9272Z" fill="#C78434"/>
<path d="M31.2021 38.4035V38.558C31.2021 39.09 31.6317 39.5195 32.1636 39.5195C32.6956 39.5195 33.1251 39.09 33.1251 38.558V38.4035C33.1251 37.8715 32.6938 37.442 32.1636 37.442C31.8976 37.442 31.6568 37.5498 31.4843 37.7241C31.3082 37.8985 31.2021 38.1375 31.2021 38.4035Z" fill="#C78434"/>
<path d="M27.2467 38.4035V38.558C27.2467 39.09 27.6762 39.5195 28.2082 39.5195C28.7401 39.5195 29.1696 39.09 29.1696 38.558V38.4035C29.1696 37.8715 28.7383 37.442 28.2082 37.442C27.9422 37.442 27.7014 37.5498 27.5289 37.7241C27.3545 37.8985 27.2467 38.1375 27.2467 38.4035Z" fill="#C78434"/>
<path d="M30.239 40.4036H30.1311C29.3763 40.4036 28.7617 39.789 28.7617 39.0342V35.6197C28.7617 34.8649 29.3763 34.2503 30.1311 34.2503H30.239C30.9938 34.2503 31.6084 34.8649 31.6084 35.6197V39.0342C31.6084 39.789 30.9938 40.4036 30.239 40.4036ZM30.1329 35.0662C29.8274 35.0662 29.5776 35.316 29.5776 35.6215V39.036C29.5776 39.3415 29.8274 39.5913 30.1329 39.5913H30.2408C30.5463 39.5913 30.7961 39.3415 30.7961 39.036V35.6215C30.7961 35.316 30.5463 35.0662 30.2408 35.0662H30.1329Z" fill="#223644"/>
<path d="M32.1637 39.9256C31.4089 39.9256 30.7943 39.311 30.7943 38.5562V36.0959C30.7943 35.3411 31.4089 34.7265 32.1637 34.7265C32.9185 34.7265 33.5331 35.3411 33.5331 36.0959V38.5562C33.5313 39.3128 32.9185 39.9256 32.1637 39.9256ZM32.1637 35.5424C31.8582 35.5424 31.6084 35.7922 31.6084 36.0977V38.558C31.6084 38.8635 31.8582 39.1133 32.1637 39.1133C32.4692 39.1133 32.719 38.8635 32.719 38.558V36.0977C32.719 35.7922 32.4692 35.5424 32.1637 35.5424Z" fill="#223644"/>
<path d="M28.2083 39.9256C27.4535 39.9256 26.8389 39.311 26.8389 38.5562V36.0959C26.8389 35.3411 27.4535 34.7265 28.2083 34.7265C28.9631 34.7265 29.5777 35.3411 29.5777 36.0959V38.5562C29.5777 39.3128 28.9631 39.9256 28.2083 39.9256ZM28.2083 35.5424C27.9028 35.5424 27.653 35.7922 27.653 36.0977V38.558C27.653 38.8635 27.9028 39.1133 28.2083 39.1133C28.5138 39.1133 28.7636 38.8635 28.7636 38.558V36.0977C28.7636 35.7922 28.5156 35.5424 28.2083 35.5424Z" fill="#223644"/>
<path d="M32.1004 10.6267C32.9512 10.2791 33.3092 9.18549 32.9001 8.18402C32.4909 7.18254 31.4695 6.65247 30.6187 7.00007C29.7679 7.34767 29.4099 8.4413 29.8191 9.44277C30.2282 10.4442 31.2496 10.9743 32.1004 10.6267Z" fill="#223644"/>
<path d="M31.2665 8.40593C31.7084 8.17152 31.9053 7.67727 31.7062 7.302C31.5071 6.92673 30.9875 6.81255 30.5456 7.04695C30.1037 7.28136 29.9069 7.77561 30.1059 8.15088C30.305 8.52615 30.8246 8.64034 31.2665 8.40593Z" fill="white"/>
<path d="M32.0594 8.60525C32.1943 8.60525 32.3038 8.49583 32.3038 8.36084C32.3038 8.22586 32.1943 8.11643 32.0594 8.11643C31.9244 8.11643 31.8149 8.22586 31.8149 8.36084C31.8149 8.49583 31.9244 8.60525 32.0594 8.60525Z" fill="white"/>
<path d="M50.7441 23.0111C50.7441 15.2906 56.4159 9.61705 64.4526 9.61705C70.8738 9.61705 75.8375 13.2419 77.5304 18.6782H70.5179C69.2959 16.7085 67.1699 15.526 64.4508 15.526C60.0784 15.526 57.203 18.6782 57.203 23.0111C57.203 27.3439 60.0784 30.4961 64.4508 30.4961C67.6803 30.4961 69.9662 29.1968 71.1469 26.6754H65.8508C64.2064 26.6754 62.8748 25.3437 62.8748 23.6994V21.5554H75.3235C76.869 21.5554 78.1198 22.808 78.1198 24.3517C77.489 31.3641 72.015 36.4051 64.4508 36.4051C56.4159 36.4051 50.7441 30.7333 50.7441 23.0111Z" fill="#223644"/>
<path d="M79.8344 26.1632C79.8344 20.2543 84.1672 15.9214 90.3134 15.9214C96.4596 15.9214 100.674 20.2543 100.674 26.1632C100.674 27.0762 99.9334 27.8184 99.0187 27.8184H85.9805C86.4532 30.1025 88.1856 31.1269 90.3134 31.1269C92.0081 31.1269 93.2679 30.7729 94.0155 29.709H100.122C98.8623 33.7273 95.1585 36.4051 90.3134 36.4051C84.169 36.4051 79.8344 32.0722 79.8344 26.1632ZM94.6067 24.075C93.9364 22.0658 92.3621 21.1995 90.3134 21.1995C88.2647 21.1995 86.6886 22.1053 86.0991 24.075H94.6067Z" fill="#223644"/>
<path d="M102.372 26.1632C102.372 20.2543 106.705 15.9214 112.851 15.9214C118.996 15.9214 123.212 20.2543 123.212 26.1632C123.212 27.0762 122.471 27.8184 121.556 27.8184H108.518C108.991 30.1025 110.725 31.1269 112.851 31.1269C114.546 31.1269 115.806 30.7729 116.553 29.709H122.66C121.4 33.7273 117.696 36.4051 112.851 36.4051C106.705 36.4051 102.372 32.0722 102.372 26.1632ZM117.144 24.075C116.474 22.0658 114.9 21.1995 112.851 21.1995C110.802 21.1995 109.226 22.1053 108.637 24.075H117.144Z" fill="#223644"/>
<path d="M125.242 25.9655V7.92416H128.146C129.807 7.92416 131.151 9.27021 131.151 10.929V18.5596C132.373 16.8271 134.343 15.9196 136.667 15.9196C141.079 15.9196 146.121 19.149 146.121 25.926C146.121 32.189 141.788 36.4051 135.603 36.4051C129.654 36.4051 125.242 32.5053 125.242 25.9655ZM140.132 26.1632C140.132 23.3669 138.32 21.4368 135.64 21.4368C132.963 21.4368 131.149 23.3669 131.149 26.1632C131.149 28.9596 132.961 30.8897 135.64 30.8897C138.32 30.8897 140.132 28.9596 140.132 26.1632Z" fill="#223644"/>
<path d="M148.258 26.5172V16.4336H151.204C152.841 16.4336 154.167 17.7598 154.167 19.397V26.5172C154.167 29.5903 155.664 30.8897 157.871 30.8897C160.078 30.8897 161.573 29.5903 161.573 26.5172V16.4336H167.482V26.5172C167.482 33.057 163.622 36.405 157.871 36.405C152.118 36.405 148.258 33.0965 148.258 26.5172Z" fill="#223644"/>
</svg>
