<svg width="26" height="25" viewBox="0 0 26 25" fill="none" xmlns="http://www.w3.org/2000/svg">
<path d="M13.1854 25C20.089 25 25.6854 19.4036 25.6854 12.5C25.6854 5.59644 20.089 0 13.1854 0C6.28187 0 0.685425 5.59644 0.685425 12.5C0.685425 19.4036 6.28187 25 13.1854 25Z" fill="#373C59"/>
<path d="M17.0641 7.77344C16.8936 7.77344 16.7269 7.824 16.5851 7.91872C16.4434 8.01345 16.3329 8.14809 16.2677 8.30561C16.2024 8.46313 16.1853 8.63646 16.2186 8.80369C16.2518 8.97091 16.3339 9.12452 16.4545 9.24508C16.5751 9.36564 16.7287 9.44775 16.8959 9.48101C17.0631 9.51427 17.2365 9.49721 17.394 9.43196C17.5515 9.36671 17.6861 9.25621 17.7809 9.11445C17.8756 8.97268 17.9262 8.80601 17.9262 8.63551C17.9262 8.40687 17.8353 8.1876 17.6736 8.02593C17.512 7.86426 17.2927 7.77344 17.0641 7.77344Z" fill="white"/>
<path d="M13.2415 8.875C12.5274 8.875 11.8293 9.08677 11.2355 9.48353C10.6417 9.88029 10.1789 10.4442 9.90562 11.104C9.63232 11.7638 9.56079 12.4898 9.70011 13.1902C9.83943 13.8907 10.1833 14.534 10.6883 15.039C11.1933 15.544 11.8367 15.8879 12.5371 16.0272C13.2376 16.1665 13.9635 16.095 14.6233 15.8217C15.2831 15.5484 15.8471 15.0856 16.2438 14.4918C16.6406 13.8981 16.8523 13.1999 16.8523 12.4858C16.8523 12.0116 16.7589 11.5421 16.5775 11.104C16.396 10.6659 16.1301 10.2679 15.7948 9.93258C15.4595 9.59729 15.0614 9.33132 14.6233 9.14986C14.1853 8.9684 13.7157 8.875 13.2415 8.875ZM13.2415 14.7964C12.7849 14.795 12.3388 14.6583 11.9598 14.4036C11.5807 14.1488 11.2857 13.7875 11.1119 13.3651C10.9381 12.9428 10.8933 12.4785 10.9833 12.0307C11.0732 11.583 11.2938 11.1719 11.6172 10.8495C11.9407 10.527 12.3524 10.3077 12.8004 10.2191C13.2485 10.1305 13.7127 10.1766 14.1345 10.3517C14.5563 10.5268 14.9167 10.823 15.1703 11.2028C15.4239 11.5826 15.5593 12.0291 15.5593 12.4858C15.5574 13.0993 15.3124 13.687 14.8779 14.1201C14.4435 14.5532 13.855 14.7964 13.2415 14.7964Z" fill="white"/>
<path d="M16.1112 19.8134H10.2605C9.6824 19.8134 9.10993 19.6995 8.57583 19.4783C8.04173 19.257 7.55647 18.9328 7.14768 18.524C6.7389 18.1152 6.41461 17.6299 6.19338 17.0958C5.97215 16.5617 5.85828 15.9893 5.85828 15.4112V9.56041C5.85828 8.39287 6.32211 7.27315 7.14768 6.44758C7.97326 5.62201 9.09297 5.1582 10.2605 5.1582H16.1112C17.2788 5.1582 18.3985 5.62201 19.2241 6.44758C20.0496 7.27315 20.5134 8.39287 20.5134 9.56041V15.4112C20.5134 15.9893 20.3996 16.5617 20.1784 17.0958C19.9571 17.6299 19.6329 18.1152 19.2241 18.524C18.8153 18.9328 18.33 19.257 17.7959 19.4783C17.2618 19.6995 16.6894 19.8134 16.1112 19.8134ZM10.2605 6.5361C9.45841 6.5361 8.68916 6.85473 8.12199 7.4219C7.55483 7.98907 7.23618 8.75831 7.23618 9.56041V15.4112C7.23432 15.8095 7.31119 16.2043 7.46235 16.5729C7.6135 16.9414 7.83597 17.2765 8.11699 17.5588C8.39801 17.8412 8.73203 18.0652 9.09988 18.2181C9.46773 18.3709 9.86216 18.4496 10.2605 18.4496H16.1112C16.5084 18.4496 16.9017 18.3714 17.2686 18.2194C17.6355 18.0674 17.9689 17.8446 18.2498 17.5638C18.5306 17.283 18.7534 16.9496 18.9054 16.5827C19.0573 16.2157 19.1356 15.8225 19.1356 15.4253V9.56041C19.1356 8.75831 18.8169 7.98907 18.2498 7.4219C17.6826 6.85473 16.9133 6.5361 16.1112 6.5361H10.2605Z" fill="white"/>
</svg>
