<svg width="24" height="24" viewBox="0 0 24 24" fill="none" xmlns="http://www.w3.org/2000/svg">
<g id="noun-event-6029884 1">
<g id="Group">
<g id="Group_2">
<g id="Group_3">
<path id="Vector" d="M7.73688 6.56209H8.83582C9.15792 6.56209 9.40424 6.29683 9.40424 5.99367V3.56842C9.40424 3.24631 9.13898 3 8.83582 3H7.73688C7.41477 3 7.16846 3.26526 7.16846 3.56842V5.99367C7.16846 6.31578 7.43372 6.56209 7.73688 6.56209Z" fill="#B8BBCF"/>
<path id="Vector_2" d="M14.899 6.56209H15.9979C16.32 6.56209 16.5663 6.29683 16.5663 5.99367V3.56842C16.5663 3.24631 16.3011 3 15.9979 3H14.899C14.5769 3 14.3306 3.26526 14.3306 3.56842V5.99367C14.3306 6.31578 14.5769 6.56209 14.899 6.56209Z" fill="#B8BBCF"/>
<path id="Vector_3" d="M18.1956 4.72412H17.7219V5.97464C17.7219 6.92201 16.9451 7.69885 15.9977 7.69885H14.8988C13.9324 7.69885 13.1745 6.92201 13.1745 5.97464V4.72412H10.5598V5.97464C10.5598 6.92201 9.78298 7.69885 8.83562 7.69885H7.75562C6.80826 7.69885 6.03142 6.92201 6.03142 5.97464V4.72412H5.55774C4.15564 4.72412 3.0188 5.86096 3.0188 7.26306V9.11989H20.7345V7.26306C20.7345 5.87991 19.5787 4.72412 18.1956 4.72412Z" fill="#B8BBCF"/>
<path id="Vector_4" d="M3 18.4616C3 19.8637 4.13684 21.0005 5.53894 21.0005H18.1768C19.5789 21.0005 20.7157 19.8637 20.7157 18.4616V10.2764H3V18.4616ZM11.8673 11.83C13.9705 11.83 15.6757 13.5353 15.6757 15.6384C15.6757 17.7416 13.9705 19.4469 11.8673 19.4469C9.76418 19.4469 8.05893 17.7416 8.05893 15.6384C8.05893 13.5353 9.76418 11.83 11.8673 11.83Z" fill="#B8BBCF"/>
<path id="Vector_5" d="M10.4651 16.0175C10.503 16.0554 10.5219 16.0933 10.503 16.1502L10.2377 17.4765C10.1998 17.7039 10.4272 17.8744 10.6356 17.7607L11.8104 17.0975C11.8482 17.0786 11.9051 17.0786 11.943 17.0975L13.1177 17.7607C13.3072 17.8744 13.5535 17.7039 13.5156 17.4765L13.2503 16.1502C13.2503 16.1123 13.2503 16.0554 13.2882 16.0175L14.2924 15.1081C14.463 14.9565 14.3682 14.6723 14.1409 14.6533L12.7956 14.5018C12.7577 14.5018 12.7009 14.4639 12.6819 14.426L12.1325 13.1944C12.0377 12.986 11.7535 12.986 11.6588 13.1944L11.1093 14.426C11.0904 14.4639 11.0525 14.5018 10.9956 14.5018L9.63142 14.6533C9.40405 14.6723 9.30931 14.9565 9.47984 15.1081L10.4651 16.0175Z" fill="#B8BBCF"/>
</g>
</g>
</g>
</g>
</svg>
